<svg width="35" height="41" viewBox="0 0 35 41" fill="none" xmlns="http://www.w3.org/2000/svg">
<path d="M16.5898 0.468855C17.3834 0.198663 18.2581 0.196241 19.0512 0.462039L32.3489 4.95912C33.8362 5.46299 34.8382 6.82819 34.8424 8.36015L34.8792 21.6418C34.8903 25.6676 33.4049 29.5697 30.6987 32.6191C29.4594 34.0165 27.8677 35.2189 25.8332 36.2965L18.6629 40.0863C18.4389 40.2029 18.1921 40.2636 17.943 40.2643C17.6961 40.2649 17.4489 40.2056 17.2243 40.0903L10.0187 36.3383C7.97409 35.27 6.37369 34.0764 5.12881 32.6919C2.40162 29.6535 0.890465 25.7578 0.879307 21.7279C0.877059 20.9159 1.55441 20.2541 2.39 20.2518C3.22559 20.2494 3.90659 20.9075 3.90884 21.7195C3.91804 25.0434 5.16179 28.2519 7.41002 30.7576C8.4113 31.8728 9.73326 32.8492 11.4501 33.7444L17.9343 37.1204L24.3853 33.7106C26.0931 32.8079 27.4097 31.8242 28.4068 30.6995C30.637 28.1834 31.8609 24.9721 31.8517 21.6501L31.815 8.36853C31.8142 8.08454 31.6282 7.83306 31.3543 7.73982L18.0566 3.24273C17.9104 3.19314 17.7478 3.19359 17.5997 3.244L4.32929 7.81465C4.05583 7.9094 3.8713 8.16191 3.87208 8.4459L3.8826 12.2458C3.88486 13.0598 3.20751 13.7216 2.37192 13.7239C1.53633 13.7263 0.855329 13.0682 0.853075 12.2542L0.842554 8.45429C0.838312 6.92233 1.83476 5.5516 3.31931 5.0395L16.5898 0.468855ZM23.2284 14.7288C23.8175 14.1532 24.7766 14.1505 25.3688 14.7228C25.9611 15.2952 25.9637 16.2272 25.3746 16.8028L17.5297 24.4683C17.2464 24.7451 16.862 24.9022 16.4607 24.9033C16.0573 24.9044 15.674 24.7495 15.3892 24.4743L11.5591 20.773C10.9669 20.1986 10.9643 19.2706 11.5534 18.693C12.1445 18.1154 13.1015 18.1127 13.6938 18.6871L16.4508 21.3494L23.2284 14.7288Z" fill="#F9A825"/>
</svg>
