<svg width="21" height="20" viewBox="0 0 21 20" fill="none" xmlns="http://www.w3.org/2000/svg">
<path fill-rule="evenodd" clip-rule="evenodd" d="M8.01464 13.2587C11.7967 13.2587 15.0293 13.8318 15.0293 16.1211C15.0293 18.4105 11.8182 19 8.01464 19C4.23153 19 1 18.432 1 16.1416C1 13.8513 4.21 13.2587 8.01464 13.2587Z" stroke="#4285F4" stroke-width="1.5" stroke-linecap="round" stroke-linejoin="round"/>
<path opacity="0.4" fill-rule="evenodd" clip-rule="evenodd" d="M8.01449 9.99129C5.53138 9.99129 3.51782 7.97875 3.51782 5.49564C3.51782 3.01253 5.53138 1 8.01449 1C10.4966 1 12.5102 3.01253 12.5102 5.49564C12.5194 7.96953 10.5202 9.98206 8.04627 9.99129H8.01449Z" stroke="#4285F4" stroke-width="1.5" stroke-linecap="round" stroke-linejoin="round"/>
<path opacity="0.4" d="M15.0801 8.82437C16.7215 8.59369 17.9856 7.18502 17.9887 5.48006C17.9887 3.79971 16.7635 2.40539 15.157 2.14191" stroke="#4285F4" stroke-width="1.5" stroke-linecap="round" stroke-linejoin="round"/>
<path d="M17.2456 12.7721C18.8357 13.009 19.9461 13.5667 19.9461 14.7149C19.9461 15.5054 19.4232 16.018 18.5784 16.3389" stroke="#4285F4" stroke-width="1.5" stroke-linecap="round" stroke-linejoin="round"/>
</svg>
