<svg width="21" height="22" viewBox="0 0 21 22" fill="none" xmlns="http://www.w3.org/2000/svg">
<path opacity="0.4" d="M5.24609 13.7815L8.23923 9.89137L11.6534 12.5733L14.5825 8.79297" stroke="#0067C0" stroke-width="1.5" stroke-linecap="round" stroke-linejoin="round"/>
<path d="M17.9964 5.12247C19.058 5.12247 19.9186 4.26187 19.9186 3.20027C19.9186 2.13867 19.058 1.27808 17.9964 1.27808C16.9348 1.27808 16.0742 2.13867 16.0742 3.20027C16.0742 4.26187 16.9348 5.12247 17.9964 5.12247Z" stroke="#0067C0" stroke-width="1.5" stroke-linecap="round" stroke-linejoin="round"/>
<path d="M12.9238 2.12024H5.65606C2.64462 2.12024 0.777344 4.25296 0.777344 7.2644V15.3468C0.777344 18.3582 2.60801 20.4818 5.65606 20.4818H14.2602C17.2716 20.4818 19.1389 18.3582 19.1389 15.3468V8.30788" stroke="#0067C0" stroke-width="1.5" stroke-linecap="round" stroke-linejoin="round"/>
</svg>
