<svg width="18" height="18" viewBox="0 0 18 18" fill="none" xmlns="http://www.w3.org/2000/svg">
<path fill-rule="evenodd" clip-rule="evenodd" d="M9 1.48779C7.19008 1.48779 7.01897 4.53455 5.94143 5.61103C4.8639 6.6875 1.51395 5.45669 1.04852 7.36738C0.584066 9.27906 3.59765 9.92768 3.96921 11.5678C4.34273 13.2079 2.50153 15.5123 4.07481 16.6591C5.64809 17.8049 7.34164 15.2114 9 15.2114C10.6583 15.2114 12.3519 17.8049 13.9252 16.6591C15.4985 15.5123 13.6582 13.2079 14.0308 11.5678C14.4033 9.92768 17.4159 9.27906 16.9515 7.36738C16.487 5.45669 13.1361 6.6875 12.0595 5.61103C10.982 4.53455 10.8099 1.48779 9 1.48779Z" stroke="#FFCC00" stroke-width="1.5" stroke-linecap="round" stroke-linejoin="round"/>
</svg>
