<svg width="24" height="27" viewBox="0 0 24 27" fill="none" xmlns="http://www.w3.org/2000/svg">
<path fill-rule="evenodd" clip-rule="evenodd" d="M22.2599 7.82756L21.505 6.45295C20.8663 5.28983 19.4509 4.88858 18.3409 5.55596C17.8125 5.88257 17.182 5.97523 16.5884 5.81352C15.9949 5.6518 15.487 5.24899 15.1768 4.69392C14.9772 4.34111 14.87 3.93925 14.8659 3.529C14.8839 2.87126 14.6474 2.23387 14.2103 1.76205C13.7732 1.29023 13.1727 1.02414 12.5456 1.02441H11.0246C10.4102 1.02441 9.82115 1.28129 9.38777 1.73822C8.95438 2.19515 8.71239 2.81446 8.71535 3.4591C8.69714 4.79008 7.6636 5.85898 6.395 5.85884C6.00402 5.85458 5.62104 5.74206 5.28479 5.53267C4.17478 4.86528 2.75938 5.26653 2.12069 6.42966L1.31024 7.82756C0.672328 8.98924 1.04953 10.4735 2.154 11.1476C2.87192 11.5825 3.31418 12.3863 3.31418 13.2561C3.31418 14.1259 2.87192 14.9297 2.154 15.3646C1.05093 16.0342 0.673319 17.5148 1.31024 18.673L2.07628 20.0593C2.37553 20.6258 2.87762 21.0439 3.47145 21.221C4.06528 21.3981 4.70188 21.3196 5.24039 21.0028C5.76977 20.6787 6.40061 20.5899 6.99269 20.7562C7.58477 20.9224 8.08903 21.33 8.39338 21.8882C8.59295 22.241 8.70018 22.6428 8.70424 23.0531C8.70424 24.3977 9.74309 25.4878 11.0246 25.4878H12.5456C13.8227 25.4878 14.8598 24.4048 14.8659 23.0648C14.8629 22.4181 15.1065 21.797 15.5422 21.3397C15.978 20.8825 16.57 20.627 17.1863 20.6301C17.5763 20.641 17.9577 20.7531 18.2965 20.9562C19.4036 21.6256 20.8181 21.2298 21.4606 20.0709L22.2599 18.673C22.5693 18.1157 22.6542 17.4521 22.4959 16.8289C22.3375 16.2058 21.9489 15.6746 21.4162 15.353C20.8834 15.0314 20.4948 14.5002 20.3364 13.877C20.1781 13.2539 20.263 12.5902 20.5724 12.0329C20.7736 11.6643 21.0649 11.3587 21.4162 11.1476C22.514 10.4738 22.8903 8.99827 22.2599 7.83921V7.82756Z" stroke="#029244" stroke-width="2" stroke-linecap="round" stroke-linejoin="round"/>
<path opacity="0.4" d="M11.7912 16.6111C13.557 16.6111 14.9886 15.109 14.9886 13.2561C14.9886 11.4032 13.557 9.90112 11.7912 9.90112C10.0253 9.90112 8.59375 11.4032 8.59375 13.2561C8.59375 15.109 10.0253 16.6111 11.7912 16.6111Z" stroke="#029244" stroke-width="2" stroke-linecap="round" stroke-linejoin="round"/>
</svg>
