<svg width="41" height="40" viewBox="0 0 41 40" fill="none" xmlns="http://www.w3.org/2000/svg">
<path opacity="0.4" d="M1.69531 27.084C1.69531 27.084 1.98894 30.5592 2.05797 31.655C2.15004 33.1247 2.72258 34.7652 3.67374 35.9025C5.01621 37.5148 6.59378 38.0805 8.69778 38.0786C11.1718 38.0758 29.1617 38.026 31.6357 38.0151C33.7397 38.0053 35.3141 37.4309 36.6476 35.8112C37.5925 34.6686 38.1559 33.0251 38.2418 31.5548C38.3028 30.4586 38.5772 26.9819 38.5772 26.9819" stroke="#FF7F00" stroke-width="3" stroke-linecap="round" stroke-linejoin="round"/>
<path d="M13.0221 6.75747L13.02 6.01547C13.0133 3.57548 14.9838 1.59402 17.4238 1.58726L22.5878 1.57296C25.0258 1.56621 27.0092 3.53673 27.016 5.97672L27.02 6.71871" stroke="#FF7F00" stroke-width="3" stroke-linecap="round" stroke-linejoin="round"/>
<path d="M20.0833 29.4355L20.0762 26.8475" stroke="#FF7F00" stroke-width="3" stroke-linecap="round" stroke-linejoin="round"/>
<path fill-rule="evenodd" clip-rule="evenodd" d="M1.54721 12.9085L1.56641 19.8424C5.4094 22.3618 10.0103 24.1211 15.0562 24.8091C15.6541 22.6054 17.6356 20.986 20.0496 20.9793C22.4256 20.9727 24.4561 22.5811 25.0262 24.8015C30.0883 24.0855 34.6973 22.3007 38.5463 19.74L38.5271 12.8061C38.5177 9.41808 35.7841 6.69764 32.3961 6.70702L7.66425 6.7755C4.27626 6.78488 1.53783 9.52047 1.54721 12.9085Z" stroke="#FF7F00" stroke-width="3" stroke-linecap="round" stroke-linejoin="round"/>
</svg>
