<svg width="44" height="36" viewBox="0 0 44 36" fill="none" xmlns="http://www.w3.org/2000/svg">
<g opacity="0.4">
<path opacity="0.4" d="M25.6992 2.51343L25.6992 7.35343" stroke="#00A85A" stroke-width="3" stroke-linecap="round" stroke-linejoin="round"/>
<path opacity="0.4" d="M25.6992 29.533L25.6992 33.581" stroke="#00A85A" stroke-width="3" stroke-linecap="round" stroke-linejoin="round"/>
<path opacity="0.4" d="M25.6992 22.662L25.6992 13.02" stroke="#00A85A" stroke-width="3" stroke-linecap="round" stroke-linejoin="round"/>
</g>
<path fill-rule="evenodd" clip-rule="evenodd" d="M35.4043 34.0128C39.0484 34.0128 42 31.0979 42 27.4991L42 22.3141C39.5887 22.3141 37.6466 20.3962 37.6466 18.0149C37.6466 15.6335 39.5887 13.7136 42 13.7136L41.9979 8.52653C41.9979 4.92771 39.0442 2.01282 35.4022 2.01282L8.59783 2.01282C4.95578 2.01282 2.00209 4.92771 2.00209 8.52653L2 13.8825C4.41135 13.8825 6.35336 15.6335 6.35336 18.0149C6.35336 20.3962 4.41135 22.3141 2 22.3141L2 27.4991C2 31.0979 4.95161 34.0128 8.59574 34.0128L35.4043 34.0128Z" stroke="#00A85A" stroke-width="3" stroke-linecap="round" stroke-linejoin="round"/>
</svg>
