<svg width="27" height="26" viewBox="0 0 27 26" fill="none" xmlns="http://www.w3.org/2000/svg">
<path fill-rule="evenodd" clip-rule="evenodd" d="M3.87379 6.58538C3.87379 4.96501 5.18796 3.6508 6.80699 3.6508H8.14192C8.91511 3.6508 9.65847 3.34463 10.2085 2.79845L11.1413 1.86436C12.2842 0.716217 14.142 0.711027 15.2901 1.85398L15.3017 1.86436L16.2358 2.79845C16.7846 3.34463 17.5279 3.6508 18.3024 3.6508H19.636C21.2564 3.6508 22.5705 4.96501 22.5705 6.58538V7.91775C22.5705 8.69356 22.8767 9.43564 23.4229 9.98571L24.3569 10.9198C25.505 12.0628 25.5115 13.9192 24.3686 15.0687L24.3569 15.0804L23.4229 16.0144C22.8767 16.5619 22.5705 17.3066 22.5705 18.0798V19.4148C22.5705 21.0352 21.2564 22.3481 19.636 22.3481H18.3024C17.5279 22.3481 16.7846 22.6555 16.2358 23.2017L15.3017 24.1345C14.1601 25.2839 12.3024 25.2891 11.153 24.1462C11.1491 24.1423 11.1452 24.1384 11.1413 24.1345L10.2085 23.2017C9.65847 22.6555 8.91511 22.3481 8.14192 22.3481H6.80699C5.18796 22.3481 3.87379 21.0352 3.87379 19.4148V18.0798C3.87379 17.3066 3.56633 16.5619 3.02016 16.0144L2.0874 15.0804C0.937988 13.9374 0.932799 12.0796 2.07572 10.9315L2.0874 10.9198L3.02016 9.98571C3.56633 9.43564 3.87379 8.69356 3.87379 7.91775V6.58538Z" stroke="#0067C0" stroke-width="2" stroke-linecap="round" stroke-linejoin="round"/>
<path opacity="0.4" d="M9.88794 16.3325L16.5561 9.66414" stroke="#0067C0" stroke-width="2" stroke-linecap="round" stroke-linejoin="round"/>
<path opacity="0.4" d="M16.5518 17.3092C16.2924 17.3092 16.0459 17.2055 15.8643 17.0238C15.7735 16.933 15.7086 16.8163 15.6567 16.6995C15.6048 16.5827 15.5789 16.4673 15.5789 16.3362C15.5789 16.2065 15.6048 16.0768 15.6567 15.96C15.7086 15.8432 15.7735 15.7395 15.8643 15.6486C16.2275 15.2854 16.8762 15.2854 17.2394 15.6486C17.3302 15.7395 17.4081 15.8432 17.4599 15.96C17.4989 16.0768 17.5248 16.2065 17.5248 16.3362C17.5248 16.4673 17.4989 16.5827 17.4599 16.6995C17.4081 16.8163 17.3302 16.933 17.2394 17.0238C17.0578 17.2055 16.8113 17.3092 16.5518 17.3092Z" fill="#0067C0"/>
<path opacity="0.4" d="M9.88362 10.6414C9.75389 10.6414 9.63714 10.6142 9.52038 10.5623C9.40362 10.5104 9.28686 10.4468 9.19605 10.356C9.10524 10.2522 9.04037 10.1484 8.98848 10.0317C8.93659 9.91363 8.91064 9.79817 8.91064 9.66843C8.91064 9.5374 8.93659 9.40896 8.98848 9.2922C9.04037 9.17544 9.10524 9.05868 9.19605 8.98084C9.57227 8.61629 10.208 8.61629 10.5712 8.98084C10.7528 9.16117 10.8566 9.40896 10.8566 9.66843C10.8566 9.79817 10.8436 9.91363 10.7917 10.0317C10.7398 10.1484 10.662 10.2522 10.5712 10.356C10.4804 10.4468 10.3766 10.5104 10.2598 10.5623C10.1431 10.6142 10.0134 10.6414 9.88362 10.6414Z" fill="#0067C0"/>
</svg>
