<svg width="553" height="451" viewBox="0 0 553 451" fill="none" xmlns="http://www.w3.org/2000/svg">
<path d="M274.996 450.183C426.746 450.183 549.764 439.111 549.764 425.454C549.764 411.796 426.746 400.725 274.996 400.725C123.246 400.725 0.228821 411.796 0.228821 425.454C0.228821 439.111 123.246 450.183 274.996 450.183Z" fill="#F0F0F0"/>
<path d="M464.057 37.9181C459.393 35.3973 457.263 37.4895 455.574 35.3973C453.885 33.305 460.238 27.7592 447.508 22.2513C447.508 22.2513 446.663 10.3657 429.27 9.94976C411.876 9.53383 416.552 21.8227 411.889 24.7847C407.225 27.7466 405.952 23.0958 401.289 26.0451C396.625 28.9944 398.768 34.9561 394.924 35.8006C391.08 36.6451 386.013 32.0194 381.349 34.9561C376.686 37.8929 376.686 40.4641 374.568 40.4641C372.451 40.4641 368.203 38.7752 365.657 40.4641C363.111 42.153 360.149 44.2453 360.149 44.2453H467.447C467.447 44.2453 468.72 40.4515 464.057 37.9181Z" fill="#92E3A9"/>
<path opacity="0.7" d="M464.057 37.9181C459.393 35.3973 457.263 37.4895 455.574 35.3973C453.885 33.305 460.238 27.7592 447.508 22.2513C447.508 22.2513 446.663 10.3657 429.27 9.94976C411.876 9.53383 416.552 21.8227 411.889 24.7847C407.225 27.7466 405.952 23.0958 401.289 26.0451C396.625 28.9944 398.768 34.9561 394.924 35.8006C391.08 36.6451 386.013 32.0194 381.349 34.9561C376.686 37.8929 376.686 40.4641 374.568 40.4641C372.451 40.4641 368.203 38.7752 365.657 40.4641C363.111 42.153 360.149 44.2453 360.149 44.2453H467.447C467.447 44.2453 468.72 40.4515 464.057 37.9181Z" fill="white"/>
<path d="M398.024 17.2599C395.138 15.6844 393.827 16.9952 392.781 15.6844C391.735 14.3736 395.667 10.9705 387.802 7.56741C387.802 7.56741 387.286 0.231871 376.534 0.00499849C365.783 -0.221874 368.682 7.34054 365.796 9.18072C362.909 11.0209 362.128 8.12198 359.242 9.96217C356.355 11.8024 357.666 15.4575 355.309 15.9869C352.952 16.5163 349.814 13.6299 346.928 15.4575C344.041 17.2851 344.041 18.8732 342.73 18.8732C341.42 18.8732 338.811 17.8271 337.235 18.8732C335.66 19.9193 333.832 21.2302 333.832 21.2302H400.117C400.117 21.2302 400.898 18.8354 398.024 17.2599Z" fill="#92E3A9"/>
<path opacity="0.7" d="M398.024 17.2599C395.138 15.6844 393.827 16.9952 392.781 15.6844C391.735 14.3736 395.667 10.9705 387.802 7.56741C387.802 7.56741 387.286 0.231871 376.534 0.00499849C365.783 -0.221874 368.682 7.34054 365.796 9.18072C362.909 11.0209 362.128 8.12198 359.242 9.96217C356.355 11.8024 357.666 15.4575 355.309 15.9869C352.952 16.5163 349.814 13.6299 346.928 15.4575C344.041 17.2851 344.041 18.8732 342.73 18.8732C341.42 18.8732 338.811 17.8271 337.235 18.8732C335.66 19.9193 333.832 21.2302 333.832 21.2302H400.117C400.117 21.2302 400.898 18.8354 398.024 17.2599Z" fill="white"/>
<path d="M77.9956 75.6417C75.1219 74.0662 73.8111 75.3771 72.7649 74.0662C71.7188 72.7554 75.6386 69.3523 67.7233 65.9492C67.7233 65.9492 67.194 58.6137 56.4553 58.3868C45.7167 58.16 48.5904 65.7224 45.7041 67.5626C42.8178 69.4027 42.0363 66.5038 39.15 68.344C36.2637 70.1842 37.5871 73.852 35.2302 74.3687C32.8732 74.8855 29.7222 72.0118 26.8359 73.852C23.9496 75.6922 23.9622 77.2551 22.6513 77.2551C21.3405 77.2551 18.7189 76.2089 17.1434 77.2551C15.5679 78.3012 13.7403 79.612 13.7403 79.612H80.0375C80.0375 79.612 80.8819 77.2172 77.9956 75.6417Z" fill="#92E3A9"/>
<path opacity="0.7" d="M77.9956 75.6417C75.1219 74.0662 73.8111 75.3771 72.7649 74.0662C71.7188 72.7554 75.6386 69.3523 67.7233 65.9492C67.7233 65.9492 67.194 58.6137 56.4553 58.3868C45.7167 58.16 48.5904 65.7224 45.7041 67.5626C42.8178 69.4027 42.0363 66.5038 39.15 68.344C36.2637 70.1842 37.5871 73.852 35.2302 74.3687C32.8732 74.8855 29.7222 72.0118 26.8359 73.852C23.9496 75.6922 23.9622 77.2551 22.6513 77.2551C21.3405 77.2551 18.7189 76.2089 17.1434 77.2551C15.5679 78.3012 13.7403 79.612 13.7403 79.612H80.0375C80.0375 79.612 80.8819 77.2172 77.9956 75.6417Z" fill="white"/>
<path d="M468.367 386.759H552.285C550.672 376.487 544.08 378.302 543.21 362.396C542.769 354.38 550.18 344.473 549.512 333.948C548.995 325.277 540.437 316.391 539.782 306.472C539.177 297.523 546.474 287.566 545.769 277.949C545.101 268.836 536.429 260.076 535.685 250.611C534.942 241.359 542.088 231.327 541.244 221.987C540.399 212.647 531.589 204.051 530.644 194.838C529.686 185.36 536.605 175.163 535.547 166.101C534.425 156.471 525.338 148.165 524.115 139.292C522.741 129.423 529.157 118.886 527.669 110.303C525.816 99.8666 516.099 92.3042 514.057 84.6031C510.276 70.2597 510.729 56.4205 506.23 55.5256C501.415 54.5551 500.331 68.1296 496.689 83.2545C494.861 90.8169 485.345 98.581 483.795 109.03C482.534 117.487 489.24 127.784 488.143 137.616C487.16 146.438 478.312 154.883 477.442 164.45C476.636 173.449 483.82 183.356 483.114 192.783C482.421 201.934 473.837 210.656 473.245 219.945C472.653 229.234 480.064 238.977 479.547 248.153C479.03 257.555 470.598 266.429 470.17 275.478C469.716 285.045 477.266 294.7 476.9 303.585C476.484 313.417 468.178 322.491 467.863 331.024C467.498 341.46 475.161 351.103 474.921 359.043C474.417 376.298 466.515 372.718 466.237 386.608L468.367 386.759Z" fill="#92E3A9"/>
<path opacity="0.5" d="M468.367 386.759H552.285C550.672 376.487 544.08 378.302 543.21 362.396C542.769 354.38 550.18 344.473 549.512 333.948C548.995 325.277 540.437 316.391 539.782 306.472C539.177 297.523 546.474 287.566 545.769 277.949C545.101 268.836 536.429 260.076 535.685 250.611C534.942 241.359 542.088 231.327 541.244 221.987C540.399 212.647 531.589 204.051 530.644 194.838C529.686 185.36 536.605 175.163 535.547 166.101C534.425 156.471 525.338 148.165 524.115 139.292C522.741 129.423 529.157 118.886 527.669 110.303C525.816 99.8666 516.099 92.3042 514.057 84.6031C510.276 70.2597 510.729 56.4205 506.23 55.5256C501.415 54.5551 500.331 68.1296 496.689 83.2545C494.861 90.8169 485.345 98.581 483.795 109.03C482.534 117.487 489.24 127.784 488.143 137.616C487.16 146.438 478.312 154.883 477.442 164.45C476.636 173.449 483.82 183.356 483.114 192.783C482.421 201.934 473.837 210.656 473.245 219.945C472.653 229.234 480.064 238.977 479.547 248.153C479.03 257.555 470.598 266.429 470.17 275.478C469.716 285.045 477.266 294.7 476.9 303.585C476.484 313.417 468.178 322.491 467.863 331.024C467.498 341.46 475.161 351.103 474.921 359.043C474.417 376.298 466.515 372.718 466.237 386.608L468.367 386.759Z" fill="white"/>
<path d="M504.39 83.1538V382.89" stroke="black" stroke-miterlimit="10"/>
<path d="M517.498 114.575L503.835 126.373L492.655 111.475" stroke="black" stroke-miterlimit="10"/>
<path d="M517.498 166.743L503.835 178.553L492.655 163.643" stroke="black" stroke-miterlimit="10"/>
<path d="M517.498 215.811L503.835 227.608L492.655 212.71" stroke="black" stroke-miterlimit="10"/>
<path d="M517.498 274.193L503.835 285.99L492.655 271.092" stroke="black" stroke-miterlimit="10"/>
<path d="M517.498 333.192L503.835 345.002L492.655 330.092" stroke="black" stroke-miterlimit="10"/>
<path d="M21.1515 386.759H96.4857C95.0362 377.546 89.125 379.197 88.3309 364.891C87.9402 357.695 94.6329 348.796 94.0153 339.356C93.549 331.566 85.8731 323.588 85.2807 314.69C84.7388 306.661 91.2802 297.737 90.65 289.091C90.0451 280.898 82.2684 273.046 81.5878 264.538C80.9071 256.245 87.3226 247.233 86.6294 238.851C85.9361 230.47 77.9578 222.743 77.1259 214.475C76.2563 205.967 82.4574 196.829 81.5121 188.675C80.5038 180.041 72.3616 172.579 71.2525 164.626C69.9921 155.803 75.7899 146.3 74.4413 138.649C72.7901 129.272 64.0682 122.491 62.228 115.571C58.8123 102.69 59.2282 90.275 55.1949 89.4684C50.8844 88.5987 49.9012 100.812 46.6368 114.386C44.9983 121.218 36.4654 128.137 35.0537 137.527C33.9193 145.09 39.9567 154.354 38.9609 163.177C38.0787 171.079 30.1381 178.68 29.3693 187.263C28.6383 195.342 35.0789 204.253 34.4109 212.71C33.7933 220.916 26.0922 228.755 25.5881 237.087C25.0839 245.418 31.7136 254.165 31.2599 262.408C30.8061 270.651 23.2185 278.793 22.8278 286.936C22.4245 295.531 29.2054 304.19 28.8651 312.144C28.4996 320.966 21.038 329.058 20.7607 336.772C20.433 346.149 27.3148 354.796 27.0628 361.98C26.5964 377.458 19.5003 374.256 19.2609 386.709L21.1515 386.759Z" fill="#92E3A9"/>
<path opacity="0.5" d="M21.1515 386.759H96.4857C95.0362 377.546 89.125 379.197 88.3309 364.891C87.9402 357.695 94.6329 348.796 94.0153 339.356C93.549 331.566 85.8731 323.588 85.2807 314.69C84.7388 306.661 91.2802 297.737 90.65 289.091C90.0451 280.898 82.2684 273.046 81.5878 264.538C80.9071 256.245 87.3226 247.233 86.6294 238.851C85.9361 230.47 77.9578 222.743 77.1259 214.475C76.2563 205.967 82.4574 196.829 81.5121 188.675C80.5038 180.041 72.3616 172.579 71.2525 164.626C69.9921 155.803 75.7899 146.3 74.4413 138.649C72.7901 129.272 64.0682 122.491 62.228 115.571C58.8123 102.69 59.2282 90.275 55.1949 89.4684C50.8844 88.5987 49.9012 100.812 46.6368 114.386C44.9983 121.218 36.4654 128.137 35.0537 137.527C33.9193 145.09 39.9567 154.354 38.9609 163.177C38.0787 171.079 30.1381 178.68 29.3693 187.263C28.6383 195.342 35.0789 204.253 34.4109 212.71C33.7933 220.916 26.0922 228.755 25.5881 237.087C25.0839 245.418 31.7136 254.165 31.2599 262.408C30.8061 270.651 23.2185 278.793 22.8278 286.936C22.4245 295.531 29.2054 304.19 28.8651 312.144C28.4996 320.966 21.038 329.058 20.7607 336.772C20.433 346.149 27.3148 354.796 27.0628 361.98C26.5964 377.458 19.5003 374.256 19.2609 386.709L21.1515 386.759Z" fill="white"/>
<path d="M53.4808 114.223V383.281" stroke="black" stroke-miterlimit="10"/>
<path d="M65.2529 142.43L52.9892 153.03L42.9438 139.645" stroke="black" stroke-miterlimit="10"/>
<path d="M65.2529 189.267L52.9892 199.854L42.9438 186.481" stroke="black" stroke-miterlimit="10"/>
<path d="M65.2529 233.305L52.9892 243.905L42.9438 230.52" stroke="black" stroke-miterlimit="10"/>
<path d="M65.2529 285.713L52.9892 296.313L42.9438 282.927" stroke="black" stroke-miterlimit="10"/>
<path d="M65.2529 338.675L52.9892 349.275L42.9438 335.889" stroke="black" stroke-miterlimit="10"/>
<path d="M393.071 34.2627H99.372V414.11H393.071V34.2627Z" fill="white"/>
<path d="M393.071 91.2959L99.372 399.023V414.11H393.071V91.2959Z" fill="#92E3A9"/>
<path opacity="0.7" d="M393.071 91.2959L99.372 399.023V414.11H393.071V91.2959Z" fill="white"/>
<path d="M393.071 34.2627H99.372V414.11H393.071V34.2627Z" stroke="#263238" stroke-linecap="round" stroke-linejoin="round"/>
<path d="M393.071 34.2627H99.372V51.1017H393.071V34.2627Z" fill="#263238"/>
<path d="M399.776 34.2627H90.9778V44.4845H399.776V34.2627Z" fill="#029244" stroke="#263238" stroke-linecap="round" stroke-linejoin="round"/>
<path d="M399.776 410.215H90.9778V420.437H399.776V410.215Z" fill="#263238" stroke="#263238" stroke-linecap="round" stroke-linejoin="round"/>
<path d="M464.662 400.409L480.719 411.753C480.987 411.979 481.178 412.283 481.266 412.622C481.354 412.961 481.336 413.319 481.213 413.647C481.091 413.975 480.87 414.258 480.58 414.456C480.291 414.653 479.948 414.757 479.598 414.753H457.856C457.415 414.753 456.98 414.661 456.578 414.483C456.175 414.304 455.815 414.043 455.52 413.716C455.226 413.389 455.003 413.004 454.867 412.585C454.73 412.167 454.684 411.724 454.73 411.287L455.864 400.359L464.662 400.409Z" fill="#F4C201" stroke="#263238" stroke-linecap="round" stroke-linejoin="round"/>
<path d="M480.719 411.803L454.73 411.337" stroke="#263238" stroke-linecap="round" stroke-linejoin="round"/>
<path d="M414.762 153.988C414.762 153.988 404.175 177.079 401.289 185.246C398.402 193.413 399.852 210.744 400.81 218.924C401.768 227.104 404.667 234.314 414.284 235.309C423.9 236.305 434.45 230.986 438.332 226.171C442.214 221.357 439.29 169.894 439.29 161.727C439.29 153.56 419.993 140.035 414.762 153.988Z" fill="white" stroke="#263238" stroke-linecap="round" stroke-linejoin="round"/>
<path d="M475.552 139.04C475.552 139.04 479.144 170.336 481.072 187.654C483.001 204.971 480.593 214.588 478.665 220.84C476.736 227.092 470.006 239.595 470.006 239.595L466.641 207.366L475.552 139.04Z" fill="#F4C201" stroke="#263238" stroke-linecap="round" stroke-linejoin="round"/>
<path d="M436.883 127.734L417.485 139.128L422.388 214.979L469.855 214.349L475.552 139.04L457.125 126.474L436.883 127.734Z" fill="#F4C201" stroke="#263238" stroke-linecap="round" stroke-linejoin="round"/>
<path d="M429.131 132.347C429.131 132.347 441.634 161.198 441.634 167.449C441.634 173.701 414.599 221.231 414.599 221.231L416.59 227.873C416.59 227.873 447.886 167.991 447.886 166.113C447.886 164.235 433.454 129.562 433.454 129.562L429.131 132.347Z" fill="#263238" stroke="#263238" stroke-linecap="round" stroke-linejoin="round"/>
<path d="M417.485 139.128C417.485 139.128 412.771 141.964 411.813 149.211C410.855 156.458 406.998 198.758 409.406 204.53C411.813 210.303 416.628 206.446 420.472 204.53C424.316 202.614 428.627 159.282 428.627 159.282C428.627 159.282 427.177 150.623 423.812 145.329" fill="#F4C201"/>
<path d="M417.485 139.128C417.485 139.128 412.771 141.964 411.813 149.211C410.855 156.458 406.998 198.758 409.406 204.53C411.813 210.303 416.628 206.446 420.472 204.53C424.316 202.614 428.627 159.282 428.627 159.282C428.627 159.282 427.177 150.623 423.812 145.329" stroke="#263238" stroke-linecap="round" stroke-linejoin="round"/>
<path d="M444.899 120.991C444.899 120.991 438.987 120.991 438.155 123.94C437.463 126.045 436.465 128.037 435.194 129.851L447.798 142.077L454.541 134.061L464.246 140.363C464.246 140.363 464.662 129.826 464.246 126.499C463.83 123.171 453.709 120.6 453.709 120.6L444.899 120.991Z" fill="#F4C201" stroke="#263238" stroke-linecap="round" stroke-linejoin="round"/>
<path d="M443.21 110.025L444.054 124.785L454.591 136.179L459.658 125.213L459.242 112.13L443.21 110.025Z" fill="#AA7F48" stroke="#263238" stroke-linecap="round" stroke-linejoin="round"/>
<path d="M454.831 77.3179C454.831 77.3179 466.452 80.3807 466.452 88.3339C466.452 96.287 466.54 106.837 463.401 111.021C458.94 116.882 454.226 122.642 449.323 122.642C444.42 122.642 438.156 113.088 437.538 109.42C437.046 106.484 437.903 92.594 438.193 86.5315C438.245 85.4296 438.515 84.3488 438.986 83.3515C439.458 82.3543 440.122 81.4602 440.941 80.721C443.348 78.5153 447.659 76.2844 454.831 77.3179Z" fill="#AA7F48" stroke="#263238" stroke-linecap="round" stroke-linejoin="round"/>
<path d="M439.97 93.804C440.458 93.745 440.953 93.7977 441.417 93.958C441.881 94.1183 442.303 94.382 442.65 94.7293C442.997 95.0765 443.261 95.4982 443.421 95.9624C443.582 96.4266 443.634 96.9212 443.575 97.4087C443.575 101.417 440.777 106.635 441.974 107.832C443.154 108.697 444.533 109.252 445.983 109.446V113.857C445.983 113.857 448.39 116.655 452.801 112.244" stroke="#263238" stroke-linecap="round" stroke-linejoin="round"/>
<path d="M448.012 95.8081C448.012 95.8081 449.272 91.7875 454.831 95.0015" stroke="#263238" stroke-linecap="round" stroke-linejoin="round"/>
<path d="M450.419 100.61C450.419 101.719 450.785 102.627 451.226 102.627C451.667 102.627 452.033 101.719 452.033 100.61C452.033 99.5011 451.667 98.6062 451.226 98.6062C450.785 98.6062 450.419 99.5137 450.419 100.61Z" fill="#263238"/>
<path d="M440.802 100.61C440.802 101.719 441.155 102.627 441.596 102.627C442.038 102.627 442.403 101.719 442.403 100.61C442.403 99.5011 442.038 98.6062 441.596 98.6062C441.155 98.6062 440.802 99.5137 440.802 100.61Z" fill="#263238"/>
<path d="M466.073 102.009C466.073 102.009 462.696 103.698 461.864 102.438C461.032 101.177 461.435 97.7995 461.019 95.2661C460.603 92.7326 458.498 91.4849 457.238 89.7833C455.978 88.0818 458.082 84.7417 458.082 83.4813C458.082 82.2209 450.079 87.2625 442.958 87.2625C435.836 87.2625 433.253 84.3132 435.786 77.57C438.319 70.8269 445.063 73.7888 445.063 73.7888C445.749 72.666 446.764 71.781 447.97 71.2535C449.176 70.7261 450.515 70.5815 451.806 70.8395C456.457 71.6713 457.288 75.0492 457.288 75.0492C457.288 75.0492 468.254 78.4271 468.254 83.4813C468.254 88.5355 466.073 102.009 466.073 102.009Z" fill="#263238" stroke="#263238" stroke-linecap="round" stroke-linejoin="round"/>
<path d="M463.124 104.971C463.124 104.971 462.696 96.539 466.905 98.2154C471.115 99.8917 468.594 109.181 463.527 109.181" fill="#AA7F48"/>
<path d="M463.124 104.971C463.124 104.971 462.696 96.539 466.905 98.2154C471.115 99.8917 468.594 109.181 463.527 109.181" stroke="#263238" stroke-linecap="round" stroke-linejoin="round"/>
<path d="M469.855 214.349C469.855 214.349 472.779 220.878 473.838 236.154C473.989 238.233 472.023 244.977 472.174 247.245C473.686 269.202 475.489 296.93 476.182 313.076C477.442 342.822 464.838 400.409 464.838 400.409H456.015C456.015 400.409 454.755 319.403 454.755 311.816C454.755 304.228 449.713 252.955 449.713 252.955C449.713 252.955 448.453 306.749 448.453 322.567C448.453 338.385 445.289 400.409 445.289 400.409H432.509C432.509 400.409 423.018 251.052 423.018 243.464C423.018 235.877 422.388 214.979 422.388 214.979L469.855 214.349Z" fill="#263238" stroke="#263238" stroke-linecap="round" stroke-linejoin="round"/>
<path d="M439.151 167.474L445.869 164.676C446.404 164.434 447 164.357 447.579 164.457C448.157 164.556 448.693 164.827 449.117 165.234C449.54 165.642 449.832 166.166 449.954 166.741C450.076 167.315 450.023 167.913 449.802 168.458C449.578 168.953 449.236 169.386 448.806 169.718C448.354 170.042 448.004 170.487 447.796 171.003C447.588 171.519 447.532 172.083 447.634 172.629C447.974 174.234 447.843 175.902 447.257 177.434C446.672 178.966 445.655 180.295 444.331 181.263C443.723 181.676 443.056 181.994 442.353 182.209C439.667 182.997 437.072 184.071 434.614 185.41L431.425 176.259L439.151 167.474Z" fill="#AA7F48" stroke="#263238" stroke-linecap="round" stroke-linejoin="round"/>
<path d="M431.425 176.209C431.425 176.209 409.885 196.312 408.927 198.72C407.969 201.127 406.519 207.379 413.741 211.223C420.964 215.067 434.614 185.359 434.614 185.359L431.425 176.209Z" fill="#F4C201" stroke="#263238" stroke-linecap="round" stroke-linejoin="round"/>
<path d="M445.176 400.409L459.355 412.723C459.641 412.973 459.843 413.304 459.933 413.672C460.024 414.04 459.998 414.427 459.86 414.78C459.722 415.133 459.479 415.435 459.163 415.644C458.847 415.854 458.474 415.961 458.095 415.95H434.652C434.173 415.952 433.7 415.852 433.262 415.656C432.825 415.461 432.435 415.175 432.117 414.818C431.799 414.46 431.56 414.039 431.417 413.583C431.274 413.126 431.229 412.644 431.286 412.169L432.547 400.359L445.176 400.409Z" fill="#F4C201" stroke="#263238" stroke-linecap="round" stroke-linejoin="round"/>
<path d="M431.286 412.219L457.667 411.942" stroke="#263238" stroke-linecap="round" stroke-linejoin="round"/>
<path d="M329.383 161.273C328.488 161.563 321.694 163.933 314.006 157.429C306.317 150.926 309.569 134.364 322.577 132.889C335.584 131.415 337.702 139.393 340.323 141.712C342.945 144.031 345.932 138.46 356.582 139.053C367.233 139.645 376.95 153.295 375.791 165.118C374.631 176.94 368.102 177.533 367.22 186.998C366.338 196.464 376.976 200.598 384.072 205.614C391.168 210.631 398.264 223.953 393.537 234.301C388.811 244.649 377.278 252.035 381.122 258.829C384.967 265.622 391.76 281.012 381.412 287.515C371.064 294.019 363.086 292.834 360.124 285.738C357.162 278.642 355.687 216.857 353.62 213.013C351.553 209.169 344.798 205.917 343.865 197.044C342.932 188.17 344.747 184.326 342.39 180.784C340.033 177.243 333.819 169.844 333.227 166.302C332.842 164.289 333.153 162.205 334.109 160.391L329.383 161.273Z" fill="#263238" stroke="#263238" stroke-linecap="round" stroke-linejoin="round"/>
<path d="M317.888 143.54C319.64 140.073 322.778 137.011 328.312 138.246C340.651 140.981 336.706 150.005 345.957 154.203C355.209 158.4 366.955 154.631 372.426 160.933C377.896 167.235 373.686 171.016 373.686 171.016" stroke="white" stroke-linecap="round" stroke-linejoin="round"/>
<path d="M315.708 151.266C315.865 149.75 316.165 148.252 316.602 146.792" stroke="white" stroke-linecap="round" stroke-linejoin="round"/>
<path d="M342.592 163.454C342.592 163.454 343.436 169.327 353.52 170.172C363.603 171.016 366.955 178.995 364.019 184.452" stroke="white" stroke-linecap="round" stroke-linejoin="round"/>
<path d="M370.056 271.13C370.834 272.692 371.923 274.077 373.257 275.201" stroke="white" stroke-linecap="round" stroke-linejoin="round"/>
<path d="M361.498 177.318C361.498 177.318 358.561 180.671 356.456 192.443C354.541 203.182 364.019 217.223 373.258 224.369C382.496 231.516 380.82 239.494 374.102 247.056C372.006 249.557 370.423 252.445 369.443 255.557C368.464 258.669 368.106 261.944 368.392 265.194" stroke="white" stroke-linecap="round" stroke-linejoin="round"/>
<path d="M363.174 190.754C363.174 190.754 361.662 198.241 364.863 204.619C371.165 217.223 392.592 218.483 391.748 230.255" stroke="white" stroke-linecap="round" stroke-linejoin="round"/>
<path d="M335.584 194.384C336.423 198.585 337.016 202.832 337.361 207.102C337.664 212.421 337.664 215.925 337.664 215.925L352.789 210.013C350.835 204.916 349.223 199.695 347.961 194.384C347.396 191.851 347.005 189.282 346.789 186.696L335.584 194.384Z" fill="#C69556" stroke="#263238" stroke-linecap="round" stroke-linejoin="round"/>
<path d="M357.175 174.281C355.398 170.437 350.961 170.147 348.894 173.096C347.923 174.422 347.035 175.807 346.234 177.243C346.234 177.243 338.244 169.252 339.731 165.118C341.218 160.984 345.642 157.719 342.088 156.547C338.533 155.375 325.274 159.206 325.274 159.206C325.274 159.206 324.53 165.42 323.862 172.277C323.862 172.277 323.093 175.34 320.863 176.234C318.632 177.129 319.287 178.932 320.636 179.146C321.405 179.285 322.4 179.549 323.232 179.764C323.043 182.436 322.917 184.868 322.917 186.696C322.917 194.674 326.459 199.111 329.421 199.111C332.383 199.111 345.718 194.888 347.482 191.939C348.822 189.421 349.903 186.773 350.709 184.036C350.709 184.036 358.939 178.125 357.175 174.281Z" fill="#C69556" stroke="#263238" stroke-linecap="round" stroke-linejoin="round"/>
<path d="M324.631 183.86C325.36 184.092 326.143 184.086 326.868 183.844C327.593 183.601 328.222 183.135 328.664 182.511" stroke="#263238" stroke-linecap="round" stroke-linejoin="round"/>
<path d="M328.438 172.567C328.438 173.625 328.022 174.457 327.58 174.445C327.139 174.432 326.837 173.562 326.875 172.516C326.912 171.47 327.291 170.626 327.719 170.638C328.148 170.651 328.475 171.521 328.438 172.567Z" fill="#263238"/>
<path d="M325.967 168.622C325.967 168.622 327.984 165.256 330 169.517" stroke="#263238" stroke-linecap="round" stroke-linejoin="round"/>
<path d="M350.671 205.614C350.671 205.614 334.702 215.37 332.042 220.739C329.383 226.109 320.22 241.133 319.325 246.162C318.43 251.191 331.45 265.673 333.189 267.147C334.929 268.622 334.072 278.68 333.479 283.709C332.887 288.738 332.597 294.057 324.908 299.073C317.22 304.09 319.627 328.365 331.45 332.146C343.272 335.927 363.678 332.449 364.561 308.199C365.443 283.948 363.086 239.318 360.124 222.769C357.162 206.219 352.146 202.665 350.671 205.614Z" fill="#92E3A9" stroke="#263238" stroke-linecap="round" stroke-linejoin="round"/>
<path d="M275.866 288.398C275.866 288.398 263.161 282.184 260.502 292.834C257.842 303.485 238.621 367.929 238.621 367.929C238.621 367.929 225.022 366.152 218.808 363.782C212.594 361.413 209.985 362.005 213.199 366.442C216.413 370.878 226.206 377.382 233 381.226C239.793 385.07 240.096 386.268 240.978 385.07C241.861 383.873 247.482 363.492 254.843 350.485C262.203 337.478 268.707 324.76 273.749 316.454C276.883 311.075 278.99 305.16 279.962 299.01" fill="#C69556"/>
<path d="M275.866 288.398C275.866 288.398 263.161 282.184 260.502 292.834C257.842 303.485 238.621 367.929 238.621 367.929C238.621 367.929 225.022 366.152 218.808 363.782C212.594 361.413 209.985 362.005 213.199 366.442C216.413 370.878 226.206 377.382 233 381.226C239.793 385.07 240.096 386.268 240.978 385.07C241.861 383.873 247.482 363.492 254.843 350.485C262.203 337.478 268.707 324.76 273.749 316.454C276.883 311.075 278.99 305.16 279.962 299.01" stroke="#263238" stroke-linecap="round" stroke-linejoin="round"/>
<path d="M290.361 304.417C290.361 304.417 272.917 303.232 269.073 307.959C265.228 312.686 280.895 376.55 282.37 386.306C283.845 396.061 284.739 404.342 283.555 405.817C282.37 407.291 271.732 419.681 267.295 422.668C262.859 425.655 268.77 426.802 273.799 425.038C278.828 423.273 289.466 417.349 293.613 416.215C297.759 415.081 299.814 413.845 299.221 410.001C298.629 406.157 294.495 409.119 290.941 382.512C289.466 371.37 290.361 344.082 289.768 332.839C289.176 321.597 288.874 315.698 288.874 315.698L300.406 313.328L290.361 304.417Z" fill="#C69556" stroke="#263238" stroke-linecap="round" stroke-linejoin="round"/>
<path d="M267.585 298.746C267.585 298.746 290.941 324.76 291.835 322.983C292.73 321.206 292.718 292.242 292.718 292.242C292.718 292.242 269.816 285.511 267.384 286.973" fill="#C69556"/>
<path d="M267.585 298.746C267.585 298.746 290.941 324.76 291.835 322.983C292.73 321.206 292.718 292.242 292.718 292.242C292.718 292.242 269.816 285.511 267.384 286.973" stroke="#263238" stroke-linecap="round" stroke-linejoin="round"/>
<path d="M353.923 302.287L286.806 289.583L284.739 322.983C284.739 322.983 321.984 338.65 338.243 337.478C354.503 336.306 362.494 326.537 363.376 315.597" fill="#92E3A9"/>
<path d="M353.923 302.287L286.806 289.583L284.739 322.983C284.739 322.983 321.984 338.65 338.243 337.478C354.503 336.306 362.494 326.537 363.376 315.597" stroke="#263238" stroke-linecap="round" stroke-linejoin="round"/>
<path d="M282.118 407.468C278.803 411.337 270.951 420.185 267.295 422.593C262.859 425.542 268.77 426.727 273.799 424.962C278.828 423.198 289.466 417.274 293.613 416.139C297.759 415.005 299.814 413.77 299.221 409.925C298.982 408.363 298.137 407.934 296.965 406.144L286.201 411.967L282.118 407.468Z" fill="#92E3A9" stroke="#263238" stroke-linecap="round" stroke-linejoin="round"/>
<path d="M234.777 372.353L237.878 367.828C234.991 367.425 224.164 365.824 218.808 363.782C212.607 361.425 209.985 362.005 213.199 366.442C216.413 370.878 226.206 377.382 233 381.226C239.793 385.07 240.096 386.268 240.978 385.07C241.331 384.604 242.415 381.163 244.054 376.361L234.777 372.353Z" fill="#92E3A9" stroke="#263238" stroke-linecap="round" stroke-linejoin="round"/>
<path d="M355.687 230.457C355.687 230.457 355.99 219.214 347.117 220.374C338.243 221.533 339.428 237.528 339.428 237.528L338.395 281.062L305.435 292.809L321.102 295.758C321.102 295.758 350.369 295.468 352.146 293.099C353.923 290.729 355.687 230.457 355.687 230.457Z" fill="#C69556" stroke="#263238" stroke-linecap="round" stroke-linejoin="round"/>
<path d="M315.708 289.066C315.708 289.066 307.301 285.713 304.78 286.973C302.259 288.234 299.322 292.847 299.738 294.536C300.154 296.225 315.708 289.066 315.708 289.066Z" fill="#C69556" stroke="#263238" stroke-linecap="round" stroke-linejoin="round"/>
<path d="M299.738 294.536L307.717 286.973L312.342 288.234L305.473 293.565" stroke="#263238" stroke-linecap="round" stroke-linejoin="round"/>
<path d="M371.127 333.923H306.04C303.639 333.923 301.692 335.87 301.692 338.272V420.853C301.692 423.255 303.639 425.202 306.04 425.202H371.127C373.529 425.202 375.476 423.255 375.476 420.853V338.272C375.476 335.87 373.529 333.923 371.127 333.923Z" fill="#029244" stroke="#263238" stroke-linecap="round" stroke-linejoin="round"/>
<path d="M134.184 333.923H69.0972C66.6957 333.923 64.7488 335.87 64.7488 338.272V420.853C64.7488 423.255 66.6957 425.202 69.0972 425.202H134.184C136.586 425.202 138.533 423.255 138.533 420.853V338.272C138.533 335.87 136.586 333.923 134.184 333.923Z" fill="white" stroke="#263238" stroke-linecap="round" stroke-linejoin="round"/>
<path d="M207.88 238.297C210.783 235.923 213.844 233.75 217.043 231.793C221.19 229.436 241.293 227.659 241.293 227.659L242.176 238.889C242.176 238.889 228.866 242.141 227.983 242.443C227.101 242.746 223.849 245.393 219.413 245.985C216.271 246.343 213.105 246.444 209.947 246.288L207.88 238.297Z" fill="#C69556" stroke="#263238" stroke-linecap="round" stroke-linejoin="round"/>
<path d="M220.295 200.762L229.168 250.422L269.375 241.851L259.62 191.599L220.295 200.762Z" fill="white" stroke="#263238" stroke-linecap="round" stroke-linejoin="round"/>
<path d="M123.332 207.266L154.376 249.829L210.577 236.822L211.762 246.288L155.586 271.118L108.586 229.134C108.586 229.134 98.7923 210.215 123.332 207.266Z" fill="#BF990F" stroke="#263238" stroke-linecap="round" stroke-linejoin="round"/>
<path d="M123.03 166.756C121.834 170.703 120.351 174.558 118.593 178.289C117.642 179.887 116.853 181.576 116.236 183.33L129.244 194.561C129.244 194.561 132.785 188.939 136.037 186.582C137.819 185.258 139.698 184.07 141.659 183.028C138.225 178.839 135.887 173.863 134.852 168.546C132.785 159.08 132.785 156.723 132.785 156.723L123.03 166.756Z" fill="#C69556" stroke="#263238" stroke-linecap="round" stroke-linejoin="round"/>
<path d="M163.829 145.468C163.829 145.468 169.74 146.955 170.043 141.687C170.345 136.418 162.682 130.104 148.818 128.327C134.953 126.549 124.567 133.948 122.5 141.044C120.433 148.14 121.908 155.816 121.908 160.253C121.908 164.689 120.143 166.466 122.5 169.075C124.857 171.684 133.743 170.26 133.743 170.26C133.743 170.26 143.196 169.075 143.826 166.479C144.457 163.883 142.944 160.265 145.604 158.198C148.263 156.131 152.7 154.064 152.397 150.812C152.33 149.414 152.132 148.026 151.805 146.665C151.805 146.665 158.019 149.035 160.086 148.14C161.47 147.458 162.734 146.555 163.829 145.468Z" fill="#3D2D1A" stroke="#263238" stroke-linecap="round" stroke-linejoin="round"/>
<path d="M145.2 142.809C145.2 142.809 130.92 141.221 122.778 152.098" stroke="#655136" stroke-linecap="round" stroke-linejoin="round"/>
<path d="M143.158 146.993C143.158 146.993 130.92 149.035 123.799 158.211" stroke="#655136" stroke-linecap="round" stroke-linejoin="round"/>
<path d="M160.703 162.95C162.606 154.48 163.829 145.468 163.829 145.468C163.829 145.468 148.704 142.216 145.2 142.809C141.696 143.401 144.318 148.72 144.91 152.564C145.503 156.408 139.592 157.883 138.104 159.068C136.617 160.253 138.407 163.215 138.407 164.979C138.407 166.744 136.037 167.349 133.97 167.059C131.903 166.769 133.378 158.778 130.428 157.593C127.479 156.408 123.622 160.253 123.925 164.097C124.227 167.941 129.533 169.416 129.533 169.416C129.533 169.416 129.836 180.356 133.378 182.726C136.919 185.095 147.57 189.519 150.229 188.927C152.889 188.334 154.011 182.133 157.628 173.562C157.88 172.945 158.132 172.302 158.372 171.546C161.321 171.748 163.287 169.025 162.354 168.168C161.712 167.525 161.069 164.777 160.703 162.95Z" fill="#C69556" stroke="#263238" stroke-linecap="round" stroke-linejoin="round"/>
<path d="M157.956 159.131C157.956 159.131 156.405 155.072 152.246 158.375" stroke="#263238" stroke-linecap="round" stroke-linejoin="round"/>
<path d="M155.12 163.731C154.893 164.79 154.351 165.584 153.859 165.496C153.368 165.408 153.242 164.462 153.456 163.391C153.67 162.32 154.225 161.525 154.716 161.626C155.208 161.727 155.321 162.66 155.12 163.731Z" fill="#263238"/>
<path d="M149.158 174.117C149.158 174.117 149.082 177.722 150.418 178.39C151.754 179.058 154.641 175.705 154.641 175.705C154.641 175.705 150.796 175.428 149.158 174.117Z" fill="#263238"/>
<path d="M115.556 294.334C115.556 294.334 175.273 298.771 181.487 301.733C187.701 304.695 189.755 310.001 190.31 317.992C190.865 325.983 196.221 405.792 196.221 405.792L187.953 408.754L165.203 322.177L106.065 327.218C106.065 327.218 98.3889 326.033 96.3093 315.685C95.6842 312.725 95.7599 309.66 96.5302 306.734C97.3005 303.808 98.7442 301.103 100.746 298.834" fill="#023439"/>
<path d="M115.556 294.334C115.556 294.334 175.273 298.771 181.487 301.733C187.701 304.695 189.755 310.001 190.31 317.992C190.865 325.983 196.221 405.792 196.221 405.792L187.953 408.754L165.203 322.177L106.065 327.218C106.065 327.218 98.3889 326.033 96.3093 315.685C95.6842 312.725 95.7599 309.66 96.5302 306.734C97.3005 303.808 98.7442 301.103 100.746 298.834" stroke="#263238" stroke-linecap="round" stroke-linejoin="round"/>
<path d="M69.2233 286.772C69.2233 286.772 68.341 320.802 71.8827 327.873C75.4244 334.944 107.653 334.377 114.169 330.823C120.685 327.268 124.807 313.089 122.74 301.266C120.673 289.444 123.332 287.402 118.593 285.889C113.854 284.377 69.2233 286.772 69.2233 286.772Z" fill="#023439" stroke="#263238" stroke-linecap="round" stroke-linejoin="round"/>
<path d="M111.497 181.541C112.606 182.272 129.534 200.447 130.718 204.896C131.903 209.345 131.311 233.28 128.349 243.628C125.387 253.976 120.37 266.681 120.37 271.118C120.37 275.554 124.152 284.427 121.845 287.679C119.539 290.931 101.452 293.288 89.3267 292.721C77.2016 292.154 69.8157 289.179 69.1602 286.81C68.5048 284.44 72.7146 239.507 77.731 223.55C82.7474 207.593 90.1585 196.64 96.0698 191.611C101.981 186.582 109.745 180.356 111.497 181.541Z" fill="#BF990F" stroke="#263238" stroke-linecap="round" stroke-linejoin="round"/>
<path d="M91.1038 235.095C91.1038 235.095 95.9186 236.545 112.316 224.495" stroke="#263238" stroke-linecap="round" stroke-linejoin="round"/>
<path d="M82.9112 246.149C82.9112 246.149 101.704 245.67 113.766 226.386" stroke="#263238" stroke-linecap="round" stroke-linejoin="round"/>
<path d="M115.379 173.033L134.273 193.956L130.718 204.896L109.758 180.721L115.379 173.033Z" fill="#BF990F" stroke="#263238" stroke-linecap="round" stroke-linejoin="round"/>
<path d="M105.157 302.766C105.157 302.766 156.834 303.787 173.622 307.631C190.411 311.475 190.008 316.668 183.706 332.663C180.857 339.923 129.811 405.615 129.811 405.615L122.425 401.771L155.536 333.772C155.536 333.772 94.633 338.209 81.6256 334.364C68.6183 330.52 69.5006 319.882 70.9752 313.669" fill="#023439"/>
<path d="M105.157 302.766C105.157 302.766 156.834 303.787 173.622 307.631C190.411 311.475 190.008 316.668 183.706 332.663C180.857 339.923 129.811 405.615 129.811 405.615L122.425 401.771L155.536 333.772C155.536 333.772 94.633 338.209 81.6256 334.364C68.6183 330.52 69.5006 319.882 70.9752 313.669" stroke="#263238" stroke-linecap="round" stroke-linejoin="round"/>
<path d="M180.189 338.007C178.084 341.612 176.408 344.133 176.408 344.133" stroke="white" stroke-linecap="round" stroke-linejoin="round"/>
<path d="M108.548 303.409C108.548 303.409 173.143 307.405 180.466 309.396C187.789 311.388 189.793 316.719 186.466 325.378C185.186 328.592 183.7 331.72 182.017 334.743" stroke="white" stroke-linecap="round" stroke-linejoin="round"/>
<path d="M96.5614 303.409C96.5614 303.409 83.9574 312.724 81.9029 321.382" stroke="white" stroke-linecap="round" stroke-linejoin="round"/>
<path d="M82.5709 305.4C82.5709 305.4 73.9119 317.387 75.248 323.386" stroke="white" stroke-linecap="round" stroke-linejoin="round"/>
<path d="M196.259 405.842C196.259 405.842 224.643 400.221 224.643 402.3C224.643 404.38 212.518 412.383 205.737 415.9C198.956 419.417 195.1 423.576 192.73 422.694C190.36 421.811 188.004 408.829 188.004 408.829L196.259 405.842Z" fill="#3D2D1A" stroke="#263238" stroke-linecap="round" stroke-linejoin="round"/>
<path d="M129.811 405.615C129.811 405.615 135.432 413.883 137.789 416.555C140.146 419.227 150.507 426.311 147.545 426.903C144.583 427.496 130.996 425.126 123.899 422.756C116.803 420.387 112.657 417.148 112.077 415.371C111.497 413.593 122.425 401.771 122.425 401.771" fill="#3D2D1A"/>
<path d="M129.811 405.615C129.811 405.615 135.432 413.883 137.789 416.555C140.146 419.227 150.507 426.311 147.545 426.903C144.583 427.496 130.996 425.126 123.899 422.756C116.803 420.387 112.657 417.148 112.077 415.371C111.497 413.593 122.425 401.771 122.425 401.771" stroke="#263238" stroke-linecap="round" stroke-linejoin="round"/>
<path d="M156.141 246.577C156.141 246.577 119.488 201.354 114.459 198.985C109.43 196.615 101.742 204.304 99.6746 211.992C97.6075 219.68 101.742 227.117 106.771 230.621C109.002 232.184 154.074 269.05 156.443 269.34C158.813 269.63 211.422 219.378 211.422 219.378L206.103 214.336L156.141 246.577Z" fill="#BF990F" stroke="#263238" stroke-linecap="round" stroke-linejoin="round"/>
<path d="M206.103 214.362C206.103 214.362 208.17 199.867 209.065 199.237C209.96 198.607 215.858 192.443 216.753 193.326C217.648 194.208 218.228 195.393 217.043 196.577C215.685 198.436 214.499 200.414 213.501 202.489C213.501 202.489 221.77 195.695 222.954 193.918C224.139 192.141 226.206 189.481 227.101 190.969C227.996 192.456 223.257 203.673 221.77 207.228C220.282 210.782 211.422 219.34 211.422 219.34L206.103 214.362Z" fill="#C69556" stroke="#263238" stroke-linecap="round" stroke-linejoin="round"/>
<path d="M210.577 236.822C210.577 236.822 218.858 227.066 219.741 226.184C220.623 225.302 232.748 224.709 232.748 224.709C232.748 224.709 235.71 224.709 234.235 226.474C232.76 228.239 224.48 229.726 224.48 229.726C224.48 229.726 221.808 236.23 219.741 237.414C218.408 238.231 216.866 238.642 215.304 238.599" fill="#C69556"/>
<path d="M210.577 236.822C210.577 236.822 218.858 227.066 219.741 226.184C220.623 225.302 232.748 224.709 232.748 224.709C232.748 224.709 235.71 224.709 234.235 226.474C232.76 228.239 224.48 229.726 224.48 229.726C224.48 229.726 221.808 236.23 219.741 237.414C218.408 238.231 216.866 238.642 215.304 238.599" stroke="#263238" stroke-linecap="round" stroke-linejoin="round"/>
</svg>
