<svg width="35" height="41" viewBox="0 0 35 41" fill="none" xmlns="http://www.w3.org/2000/svg">
<path d="M16.2133 0.468855C17.007 0.198663 17.8817 0.196241 18.6748 0.462039L31.9724 4.95912C33.4597 5.46299 34.4617 6.82819 34.466 8.36015L34.5027 21.6418C34.5139 25.6676 33.0284 29.5697 30.3222 32.6191C29.083 34.0165 27.4913 35.2189 25.4567 36.2965L18.2864 40.0863C18.0624 40.2029 17.8156 40.2636 17.5666 40.2643C17.3196 40.2649 17.0725 40.2056 16.8478 40.0903L9.64224 36.3383C7.59763 35.27 5.99722 34.0764 4.75234 32.6919C2.02516 29.6535 0.514 25.7578 0.502842 21.7279C0.500594 20.9159 1.17794 20.2541 2.01353 20.2518C2.84912 20.2494 3.53012 20.9075 3.53237 21.7195C3.54157 25.0434 4.78533 28.2519 7.03356 30.7576C8.03484 31.8728 9.35679 32.8492 11.0737 33.7444L17.5579 37.1204L24.0089 33.7106C25.7167 32.8079 27.0332 31.8242 28.0303 30.6995C30.2605 28.1834 31.4845 24.9721 31.4753 21.6501L31.4385 8.36853C31.4377 8.08454 31.2518 7.83306 30.9778 7.73982L17.6802 3.24273C17.5339 3.19314 17.3713 3.19359 17.2233 3.244L3.95283 7.81465C3.67936 7.9094 3.49483 8.16191 3.49562 8.4459L3.50614 12.2458C3.50839 13.0598 2.83105 13.7216 1.99546 13.7239C1.15987 13.7263 0.478864 13.0682 0.47661 12.2542L0.466089 8.45429C0.461847 6.92233 1.4583 5.5516 2.94284 5.0395L16.2133 0.468855ZM22.8519 14.7288C23.441 14.1532 24.4001 14.1505 24.9924 14.7228C25.5846 15.2952 25.5872 16.2272 24.9981 16.8028L17.1532 24.4683C16.87 24.7451 16.4855 24.9022 16.0842 24.9033C15.6808 24.9044 15.2976 24.7495 15.0128 24.4743L11.1827 20.773C10.5904 20.1986 10.5878 19.2706 11.1769 18.693C11.768 18.1154 12.7251 18.1127 13.3173 18.6871L16.0743 21.3494L22.8519 14.7288Z" fill="#00A85A"/>
</svg>
