<svg width="20" height="22" viewBox="0 0 20 22" fill="none" xmlns="http://www.w3.org/2000/svg">
<path opacity="0.4" d="M1.09265 8.4043L18.9166 8.4043" stroke="#00A85A" stroke-width="2" stroke-linecap="round" stroke-linejoin="round"/>
<path opacity="0.4" d="M5.55786 16.1961L5.56713 16.1961M14.442 12.3096L14.4513 12.3096L14.442 12.3096ZM10.0046 12.3096L10.0138 12.3096L10.0046 12.3096ZM5.55786 12.3096L5.56713 12.3096L5.55786 12.3096ZM14.442 16.1961L14.4513 16.1961L14.442 16.1961ZM10.0046 16.1961L10.0138 16.1961L10.0046 16.1961Z" stroke="#00A85A" stroke-width="2" stroke-linecap="round" stroke-linejoin="round"/>
<path d="M14.0437 1L14.0437 4.29078" stroke="#00A85A" stroke-width="2" stroke-linecap="round" stroke-linejoin="round"/>
<path d="M5.96552 1L5.96552 4.29078" stroke="#00A85A" stroke-width="2" stroke-linecap="round" stroke-linejoin="round"/>
<path fill-rule="evenodd" clip-rule="evenodd" d="M14.2383 2.5791L5.77096 2.5791C2.83427 2.5791 1 4.21504 1 7.22213L1 16.2718C1 19.3261 2.83427 20.9999 5.77096 20.9999L14.229 20.9999C17.175 20.9999 19 19.3545 19 16.3474L19 7.22213C19.0092 4.21504 17.1842 2.5791 14.2383 2.5791Z" stroke="#00A85A" stroke-width="2" stroke-linecap="round" stroke-linejoin="round"/>
</svg>
