<svg width="20" height="22" viewBox="0 0 20 22" fill="none" xmlns="http://www.w3.org/2000/svg">
<path opacity="0.4" d="M1.09277 8.40422L18.9167 8.40422" stroke="#00A85A" stroke-width="2" stroke-linecap="round" stroke-linejoin="round"/>
<path opacity="0.4" d="M5.55811 16.1963L5.56737 16.1963M14.4423 12.3098L14.4516 12.3098L14.4423 12.3098ZM10.0048 12.3098L10.0141 12.3098L10.0048 12.3098ZM5.55811 12.3098L5.56737 12.3098L5.55811 12.3098ZM14.4423 16.1963L14.4516 16.1963L14.4423 16.1963ZM10.0048 16.1963L10.0141 16.1963L10.0048 16.1963Z" stroke="#00A85A" stroke-width="2" stroke-linecap="round" stroke-linejoin="round"/>
<path d="M14.0439 1L14.0439 4.29078" stroke="#00A85A" stroke-width="2" stroke-linecap="round" stroke-linejoin="round"/>
<path d="M5.96533 1L5.96533 4.29078" stroke="#00A85A" stroke-width="2" stroke-linecap="round" stroke-linejoin="round"/>
<path fill-rule="evenodd" clip-rule="evenodd" d="M14.2383 2.57928L5.77096 2.57928C2.83427 2.57928 1 4.21522 1 7.22231L1 16.272C1 19.3263 2.83427 21.0001 5.77096 21.0001L14.229 21.0001C17.175 21.0001 19 19.3547 19 16.3476L19 7.22231C19.0092 4.21522 17.1842 2.57928 14.2383 2.57928Z" stroke="#00A85A" stroke-width="2" stroke-linecap="round" stroke-linejoin="round"/>
</svg>
