<svg width="22" height="28" viewBox="0 0 22 28" fill="none" xmlns="http://www.w3.org/2000/svg">
<path d="M1.65333 8.24255C0.746666 8.24255 0 9.08028 0 10.1175V25.5355C0 26.5528 0.746666 27.3905 1.65333 27.3905C2.57778 27.3905 3.32444 26.5528 3.32444 25.5355V10.1175C3.32444 9.08028 2.57778 8.24255 1.65333 8.24255Z" fill="#029244"/>
<path d="M10.9854 0.882568C10.0787 0.882568 9.33203 1.72029 9.33203 2.75747V25.5356C9.33203 26.5528 10.0787 27.3905 10.9854 27.3905C11.9098 27.3905 12.6565 26.5528 12.6565 25.5356V2.75747C12.6565 1.72029 11.9098 0.882568 10.9854 0.882568Z" fill="#029244"/>
<path d="M20.1945 16.3805C19.2701 16.3805 18.5234 17.2182 18.5234 18.2554V25.5356C18.5234 26.5528 19.2701 27.3906 20.1768 27.3906C21.1012 27.3906 21.8479 26.5528 21.8479 25.5356V18.2554C21.8479 17.2182 21.1012 16.3805 20.1945 16.3805Z" fill="#029244"/>
</svg>
