<svg width="32" height="40" viewBox="0 0 32 40" fill="none" xmlns="http://www.w3.org/2000/svg">
<path fill-rule="evenodd" clip-rule="evenodd" d="M25.7725 32.4795C21.5076 38.017 15.1923 39.2134 10.0242 36.1105C9.2613 35.7117 8.6358 35.3894 8.04116 35.3894C6.38484 35.4021 4.32322 37.4871 3.25173 36.0977C2.18025 34.7065 3.78748 32.0279 3.78748 29.8646C3.78748 29.0925 3.54906 28.2949 3.24192 27.3025C0.850713 20.594 1.77354 12.3924 6.03843 6.85668C11.4828 -0.21413 20.3282 -0.21413 25.7725 6.85486C31.2267 13.9366 31.2169 25.4105 25.7725 32.4795Z" stroke="#029244" stroke-width="3" stroke-linecap="round" stroke-linejoin="round"/>
<path opacity="0.4" d="M21.4023 20.4189H21.4171" stroke="#029244" stroke-width="3" stroke-linecap="round" stroke-linejoin="round"/>
<path opacity="0.4" d="M15.8086 20.4189H15.8234" stroke="#029244" stroke-width="3" stroke-linecap="round" stroke-linejoin="round"/>
<path opacity="0.4" d="M10.2109 20.4189H10.2257" stroke="#029244" stroke-width="3" stroke-linecap="round" stroke-linejoin="round"/>
</svg>
