<svg width="29" height="31" viewBox="0 0 29 31" fill="none" xmlns="http://www.w3.org/2000/svg">
<path opacity="0.4" d="M25.1788 11.4218C25.1788 11.4218 24.3657 21.8673 23.8895 26.2676C23.6627 28.3693 22.3683 29.6041 20.2425 29.6487C16.1973 29.7328 12.1472 29.7487 8.10303 29.6746C6.0577 29.6384 4.77812 28.3952 4.54447 26.332C4.04065 21.8956 3.1745 11.4827 3.1745 11.4827" stroke="#E31A1C" stroke-width="2" stroke-linecap="round" stroke-linejoin="round"/>
<path d="M27.3097 6.40992L1.01501 6.48273" stroke="#E31A1C" stroke-width="2" stroke-linecap="round" stroke-linejoin="round"/>
<path d="M22.2434 6.424C21.0262 6.42737 19.9757 5.5697 19.7336 4.37796L19.3516 2.4935C19.1166 1.62427 18.3272 1.02483 17.4294 1.02732L10.8658 1.04549C9.96803 1.04797 9.182 1.65178 8.95182 2.5223L8.58025 4.40885C8.34477 5.6019 7.29896 6.46538 6.08175 6.46875" stroke="#E31A1C" stroke-width="2" stroke-linecap="round" stroke-linejoin="round"/>
</svg>
