<svg width="20" height="20" viewBox="0 0 20 20" fill="none" xmlns="http://www.w3.org/2000/svg">
<path fill-rule="evenodd" clip-rule="evenodd" d="M2.79413 5.05575C2.79413 3.80675 3.80713 2.79375 5.05513 2.79375H6.08413C6.68013 2.79375 7.25313 2.55775 7.67713 2.13675L8.39613 1.41675C9.27713 0.531746 10.7091 0.527746 11.5941 1.40875L11.6031 1.41675L12.3231 2.13675C12.7461 2.55775 13.3191 2.79375 13.9161 2.79375H14.9441C16.1931 2.79375 17.2061 3.80675 17.2061 5.05575V6.08275C17.2061 6.68075 17.4421 7.25275 17.8631 7.67675L18.5831 8.39675C19.4681 9.27775 19.4731 10.7087 18.5921 11.5947L18.5831 11.6037L17.8631 12.3237C17.4421 12.7457 17.2061 13.3197 17.2061 13.9157V14.9447C17.2061 16.1937 16.1931 17.2057 14.9441 17.2057H13.9161C13.3191 17.2057 12.7461 17.4427 12.3231 17.8637L11.6031 18.5827C10.7231 19.4687 9.29113 19.4727 8.40513 18.5917C8.40213 18.5887 8.39913 18.5857 8.39613 18.5827L7.67713 17.8637C7.25313 17.4427 6.68013 17.2057 6.08413 17.2057H5.05513C3.80713 17.2057 2.79413 16.1937 2.79413 14.9447V13.9157C2.79413 13.3197 2.55713 12.7457 2.13613 12.3237L1.41713 11.6037C0.531134 10.7227 0.527134 9.29075 1.40813 8.40575L1.41713 8.39675L2.13613 7.67675C2.55713 7.25275 2.79413 6.68075 2.79413 6.08275V5.05575Z" stroke="#00A85A" stroke-width="1.5" stroke-linecap="round" stroke-linejoin="round"/>
<path opacity="0.4" d="M7.42969 12.5694L12.5697 7.42944" stroke="#00A85A" stroke-width="1.5" stroke-linecap="round" stroke-linejoin="round"/>
<path opacity="0.4" d="M12.5664 13.3224C12.3664 13.3224 12.1764 13.2424 12.0364 13.1024C11.9664 13.0324 11.9164 12.9424 11.8764 12.8524C11.8364 12.7624 11.8164 12.6734 11.8164 12.5724C11.8164 12.4724 11.8364 12.3724 11.8764 12.2824C11.9164 12.1924 11.9664 12.1124 12.0364 12.0424C12.3164 11.7624 12.8164 11.7624 13.0964 12.0424C13.1664 12.1124 13.2264 12.1924 13.2664 12.2824C13.2964 12.3724 13.3164 12.4724 13.3164 12.5724C13.3164 12.6734 13.2964 12.7624 13.2664 12.8524C13.2264 12.9424 13.1664 13.0324 13.0964 13.1024C12.9564 13.2424 12.7664 13.3224 12.5664 13.3224Z" fill="black"/>
<path opacity="0.4" d="M7.42578 8.18277C7.32578 8.18277 7.23578 8.16177 7.14578 8.12177C7.05578 8.08177 6.96578 8.03277 6.89578 7.96277C6.82578 7.88277 6.77578 7.80277 6.73578 7.71277C6.69578 7.62177 6.67578 7.53277 6.67578 7.43277C6.67578 7.33177 6.69578 7.23277 6.73578 7.14277C6.77578 7.05277 6.82578 6.96277 6.89578 6.90277C7.18578 6.62177 7.67578 6.62177 7.95578 6.90277C8.09578 7.04177 8.17578 7.23277 8.17578 7.43277C8.17578 7.53277 8.16578 7.62177 8.12578 7.71277C8.08578 7.80277 8.02578 7.88277 7.95578 7.96277C7.88578 8.03277 7.80578 8.08177 7.71578 8.12177C7.62578 8.16177 7.52578 8.18277 7.42578 8.18277Z" fill="black"/>
</svg>
