<svg width="20" height="21" viewBox="0 0 20 21" fill="none" xmlns="http://www.w3.org/2000/svg">
<path d="M9.26953 14.9595C9.26953 14.5076 9.59645 14.1343 9.99926 14.1343C10.4021 14.1343 10.729 14.4956 10.729 14.9475V14.9595C10.729 15.4114 10.4021 15.7782 9.99926 15.7782C9.59645 15.7782 9.26953 15.4114 9.26953 14.9595Z" fill="#FF7F00"/>
<path d="M2.99006 19.4878H17.0805C18.1965 19.4223 19.0547 18.3558 18.9973 17.1037C18.9846 16.8504 18.936 16.6005 18.8504 16.3669L11.7701 2.46401C11.2291 1.36693 9.99832 0.96958 9.02049 1.57761C8.68774 1.78284 8.41336 2.09067 8.22947 2.46401L1.14921 16.3669C0.728885 17.5283 1.22704 18.8514 2.26131 19.3241C2.47147 19.419 2.6933 19.4736 2.91903 19.4878" stroke="#F9A825" stroke-width="1.5" stroke-linecap="round" stroke-linejoin="round"/>
<path opacity="0.4" d="M9.98828 11.8226V8.43848" stroke="#F9A825" stroke-width="1.5" stroke-linecap="round" stroke-linejoin="round"/>
</svg>
