<svg width="33" height="30" viewBox="0 0 33 30" fill="none" xmlns="http://www.w3.org/2000/svg">
<path fill-rule="evenodd" clip-rule="evenodd" d="M26.4262 28.5881C29.4667 28.5796 31.9215 26.1096 31.9131 23.0707L31.901 18.6923C29.8902 18.6979 28.2641 17.0808 28.2585 15.0716C28.253 13.0608 29.8701 11.4363 31.8809 11.4307L31.8655 7.0475C31.8571 4.00859 29.3887 1.55218 26.3498 1.56059L7.3574 1.61318C4.31849 1.62159 1.86208 4.09165 1.87049 7.13056L1.8814 11.6549C3.89058 11.6493 5.51629 13.1237 5.52186 15.1345C5.52742 17.1437 3.9103 18.7698 1.90112 18.7754L1.91324 23.1537C1.92165 26.1927 4.39009 28.6491 7.42899 28.6407L26.4262 28.5881Z" stroke="#029244" stroke-width="2" stroke-linecap="round" stroke-linejoin="round"/>
<path opacity="0.4" fill-rule="evenodd" clip-rule="evenodd" d="M16.8978 17.9724L19.7235 19.4484C19.9882 19.5855 20.2973 19.3608 20.2462 19.0675L19.6975 15.9247L21.9762 13.6951C22.1897 13.4853 22.0703 13.124 21.7751 13.0811L18.6181 12.6309L17.1978 9.77426C17.0657 9.50705 16.6846 9.50811 16.5524 9.77604L15.1479 12.6405L11.9951 13.1081C11.7001 13.1527 11.5827 13.5147 11.7973 13.7233L14.0867 15.9402L13.5554 19.086C13.506 19.3797 13.8163 19.6026 14.0803 19.464L16.8978 17.9724Z" stroke="#029244" stroke-linecap="round" stroke-linejoin="round"/>
</svg>
