<svg width="24" height="24" viewBox="0 0 24 24" fill="none" xmlns="http://www.w3.org/2000/svg">
<path d="M12.0001 1.9993C17.5301 1.9993 22.0001 6.4803 22.0001 11.9993C22.0001 17.5203 17.5301 21.9993 12.0001 21.9993C6.4801 21.9993 2.0001 17.5203 2.0001 11.9993C2.0001 6.4803 6.4801 1.9993 12.0001 1.9993ZM12.0001 14.9303C11.5201 14.9303 11.1301 15.3203 11.1301 15.8003C11.1301 16.2803 11.5201 16.6803 12.0101 16.6803C12.4901 16.6803 12.8801 16.2803 12.8801 15.8003C12.8801 15.3203 12.4901 14.9303 12.0001 14.9303ZM12.0001 7.3293C11.5201 7.3293 11.1201 7.7303 11.1201 8.2093V12.6293C11.1201 13.1103 11.5201 13.4993 12.0001 13.4993C12.4801 13.4993 12.8701 13.1103 12.8701 12.6293V8.2093C12.8701 7.7303 12.4801 7.3293 12.0001 7.3293Z" fill="#F9A825"/>
</svg>
