<svg width="18" height="21" viewBox="0 0 18 21" fill="none" xmlns="http://www.w3.org/2000/svg">
<path fill-rule="evenodd" clip-rule="evenodd" d="M1.23926 9.39134C1.25367 5.15075 4.70302 1.72476 8.94361 1.73912C13.1842 1.75357 16.6102 5.20293 16.5958 9.44351V9.53047C16.5436 12.287 15.0045 14.8348 13.1175 16.8261C12.0384 17.9468 10.8333 18.9388 9.52621 19.7826C9.17672 20.085 8.65832 20.085 8.30882 19.7826C6.36033 18.5144 4.65019 16.9132 3.25665 15.0522C2.01461 13.4294 1.30942 11.4598 1.23926 9.41743V9.39134Z" stroke="#E31A1C" stroke-width="1.5" stroke-linecap="round" stroke-linejoin="round"/>
<path opacity="0.4" d="M8.9179 12C10.277 12 11.3788 10.8983 11.3788 9.53918C11.3788 8.18008 10.277 7.07831 8.9179 7.07831C7.5588 7.07831 6.45703 8.18008 6.45703 9.53918C6.45703 10.8983 7.5588 12 8.9179 12Z" stroke="#E31A1C" stroke-width="1.5" stroke-linecap="round" stroke-linejoin="round"/>
</svg>
