<svg width="95" height="95" viewBox="0 0 95 95" fill="none" xmlns="http://www.w3.org/2000/svg">
<g clip-path="url(#clip0)">
<path d="M94.3731 -1.64902e-05L0 0.261292L0.261308 94.6344L94.6344 94.3731L94.3731 -1.64902e-05Z" fill="white"/>
<path d="M4.85938 5.09363L89.7951 4.85845L90.0303 89.7942L5.09455 90.0294L4.85938 5.09363Z" fill="#FFCC00"/>
<path d="M47.3632 63.8962C69.5536 63.8348 87.3875 56.3885 87.3621 47.2063C87.3366 38.024 69.4618 30.6767 47.2714 30.7381C25.0809 30.7996 7.24704 38.2458 7.27247 47.428C7.29789 56.6103 25.1727 63.9577 47.3632 63.8962Z" fill="#00678F"/>
<path d="M57.5073 43.2079L58.5163 39.1241L44.7429 39.1622L43.734 43.246L48.3251 43.2333L46.0542 52.1669L50.9004 52.1534L53.1713 43.2199L57.5073 43.2079Z" fill="#FFCC00"/>
<path d="M43.4666 39.1658L36.5799 39.1848L32.2707 48.8892L32.2439 39.1968L25.6122 39.2152L21.5772 55.8056L26.1683 55.7928L28.9443 45.0725L28.974 55.7851L32.5448 55.7752L37.6164 45.0484L35.0955 55.7681L39.4315 55.7561L43.4666 39.1658Z" fill="white"/>
<path d="M73.0563 39.0838L68.7203 39.0958L66.4487 47.7743L64.3842 39.1079L59.538 39.1213L55.5029 55.7116L59.839 55.6996L62.1098 46.7661L64.4301 55.6869L69.0212 55.6742L73.0563 39.0838Z" fill="white"/>
<path d="M45.803 53.1879L45.2993 55.4846L49.89 55.4719L50.3938 53.1751L45.803 53.1879Z" fill="#FF0000"/>
<rect x="94.4102" y="12.7531" width="265.266" height="73.9684" transform="rotate(-0.158645 94.4102 12.7531)" fill="#C4C4C4"/>
</g>
<defs>
<clipPath id="clip0">
<rect width="94.3734" height="94.3734" fill="white" transform="translate(0 0.261292) rotate(-0.158645)"/>
</clipPath>
</defs>
</svg>
