<svg width="554" height="573" viewBox="0 0 554 573" fill="none" xmlns="http://www.w3.org/2000/svg">
<path d="M276.642 461.286C429.428 461.286 553.285 449 553.285 433.844C553.285 418.688 429.428 406.402 276.642 406.402C123.857 406.402 0 418.688 0 433.844C0 449 123.857 461.286 276.642 461.286Z" fill="#92E3A9"/>
<path opacity="0.5" d="M276.642 461.286C429.428 461.286 553.285 449 553.285 433.844C553.285 418.688 429.428 406.402 276.642 406.402C123.857 406.402 0 418.688 0 433.844C0 449 123.857 461.286 276.642 461.286Z" fill="white"/>
<path d="M550.745 291.137H34.3824V295.842H550.745V291.137Z" fill="#263238"/>
<path d="M397.419 233.712C398.433 233.975 399.481 234.087 400.528 234.045C400.528 234.045 400.056 232.657 400.014 232.518C399.528 231.519 398.002 229.853 396.766 230.02C396.559 230.051 396.362 230.126 396.186 230.24C396.011 230.354 395.862 230.504 395.749 230.68C395.636 230.856 395.561 231.054 395.531 231.261C395.501 231.468 395.515 231.679 395.572 231.88C395.729 232.301 395.975 232.683 396.294 232.999C396.613 233.316 396.996 233.559 397.419 233.712Z" fill="#263238"/>
<path d="M426.276 226.175C425.027 226.036 423.5 227.743 423.098 228.757C423.098 228.854 422.598 230.297 422.626 230.297L421.876 231.186C421.377 231.783 420.835 232.463 420.294 233.24C419.7 234.079 419.153 234.95 418.656 235.85C418.103 236.853 417.638 237.903 417.268 238.987C417.268 238.612 417.268 237.599 417.268 237.515C417.115 236.405 416.185 234.337 414.964 234.115C414.759 234.081 414.549 234.091 414.348 234.145C414.147 234.198 413.959 234.294 413.798 234.425C413.637 234.556 413.505 234.72 413.412 234.906C413.318 235.092 413.265 235.295 413.256 235.503C413.268 235.953 413.38 236.394 413.585 236.795C413.789 237.196 414.08 237.546 414.436 237.821C415.292 238.388 416.228 238.823 417.212 239.112C416.853 240.224 416.575 241.36 416.38 242.512C416.268 243.179 416.157 243.901 416.074 244.539C416.074 244.22 416.074 243.942 416.074 243.901C415.921 242.79 414.991 240.736 413.77 240.514C413.564 240.482 413.354 240.494 413.154 240.549C412.953 240.603 412.766 240.698 412.604 240.829C412.442 240.959 412.309 241.122 412.213 241.307C412.118 241.492 412.062 241.694 412.049 241.902C412.068 242.351 412.185 242.792 412.391 243.192C412.597 243.592 412.888 243.943 413.242 244.22C414.1 244.776 415.036 245.202 416.019 245.483C416.019 245.733 415.949 245.997 415.921 246.26C415.769 247.523 415.63 248.773 415.45 249.994C415.45 250.438 415.311 250.855 415.227 251.285C415.239 251.1 415.239 250.915 415.227 250.73C415.089 249.619 414.159 247.551 412.923 247.329C412.718 247.296 412.508 247.306 412.307 247.359C412.106 247.413 411.919 247.508 411.758 247.64C411.596 247.771 411.465 247.935 411.371 248.12C411.278 248.306 411.225 248.509 411.216 248.717C411.234 249.167 411.351 249.608 411.557 250.008C411.763 250.408 412.054 250.759 412.41 251.035C413.219 251.583 414.109 251.999 415.047 252.271C414.964 252.701 414.867 253.131 414.756 253.548C414.696 253.829 414.622 254.107 414.533 254.381C414.436 254.658 414.353 254.936 414.256 255.213C414.075 255.727 413.881 256.268 413.687 256.768L413.284 257.767C413.354 257.337 413.465 256.504 413.465 256.379C413.459 255.403 413.195 254.445 412.701 253.603C412.715 253.493 412.715 253.381 412.701 253.27C412.676 253.064 412.607 252.867 412.5 252.689C412.392 252.512 412.249 252.359 412.078 252.242C411.908 252.124 411.715 252.043 411.511 252.005C411.307 251.967 411.098 251.972 410.897 252.021C409.689 252.34 408.912 254.464 408.856 255.574C408.856 255.644 408.856 256.365 408.939 256.81C408.87 256.56 408.815 256.296 408.745 256.032C408.62 255.491 408.481 254.963 408.329 254.394L408.079 253.562C407.996 253.284 407.885 253.006 407.787 252.715C407.551 252.062 407.274 251.41 406.982 250.758C407.956 250.557 408.893 250.206 409.758 249.717C410.137 249.469 410.457 249.142 410.697 248.759C410.936 248.375 411.09 247.944 411.147 247.496C411.153 247.287 411.115 247.08 411.037 246.887C410.958 246.695 410.839 246.521 410.689 246.377C410.538 246.233 410.359 246.122 410.163 246.052C409.967 245.981 409.758 245.953 409.55 245.969C408.301 246.108 407.218 248.093 406.996 249.189C406.996 249.259 406.913 250.064 406.871 250.494C406.691 250.105 406.524 249.717 406.33 249.328C405.775 248.217 405.178 247.093 404.581 245.983L404.04 244.956C405.054 244.743 406.031 244.383 406.941 243.887C407.321 243.638 407.642 243.309 407.881 242.923C408.121 242.537 408.274 242.103 408.329 241.652C408.333 241.445 408.294 241.239 408.214 241.048C408.135 240.857 408.016 240.684 407.866 240.542C407.715 240.399 407.537 240.29 407.342 240.221C407.146 240.151 406.939 240.123 406.732 240.139C405.483 240.278 404.4 242.263 404.178 243.359C404.178 243.443 404.053 244.595 404.04 244.886C403.651 244.137 403.262 243.373 402.915 242.624C402.442 241.595 402.034 240.538 401.694 239.459C402.714 239.251 403.696 238.891 404.609 238.39C404.989 238.141 405.31 237.812 405.549 237.426C405.789 237.04 405.942 236.606 405.997 236.155C406.001 235.947 405.962 235.74 405.882 235.548C405.801 235.355 405.681 235.182 405.529 235.04C405.377 234.897 405.197 234.788 405 234.719C404.803 234.651 404.594 234.625 404.387 234.642C403.151 234.781 402.069 236.766 401.846 237.862C401.846 237.946 401.708 239.251 401.708 239.417C401.691 239.35 401.667 239.285 401.638 239.223C401.328 238.134 401.119 237.019 401.014 235.891C400.944 235.267 400.903 234.67 400.889 234.087C401.902 233.999 402.895 233.75 403.831 233.351C404.229 233.143 404.577 232.852 404.852 232.497C405.128 232.143 405.324 231.734 405.428 231.297C405.455 231.093 405.44 230.887 405.383 230.689C405.327 230.492 405.231 230.308 405.101 230.149C404.971 229.99 404.81 229.86 404.627 229.766C404.444 229.672 404.244 229.617 404.04 229.603C402.79 229.603 401.499 231.463 401.152 232.518C401.152 232.518 401.014 233.185 400.93 233.629C400.93 233.365 400.93 233.101 400.93 232.852C400.93 231.894 400.93 231.033 401.041 230.27C401.041 229.826 401.125 229.437 401.166 229.062C402.019 228.517 402.782 227.842 403.429 227.063C403.688 226.695 403.864 226.274 403.943 225.83C404.022 225.386 404.003 224.931 403.887 224.495C403.818 224.299 403.708 224.119 403.565 223.968C403.421 223.817 403.247 223.698 403.054 223.619C402.861 223.541 402.654 223.504 402.446 223.511C402.237 223.519 402.033 223.57 401.846 223.662C400.736 224.232 400.458 226.439 400.625 227.577C400.625 227.674 401.069 229.132 401.083 229.132C401.083 229.492 400.986 229.867 400.944 230.284C400.861 231.047 400.778 231.922 400.764 232.865C400.726 233.893 400.749 234.922 400.833 235.947C400.92 237.091 401.111 238.224 401.402 239.334C401.208 239.015 400.625 238.168 400.569 238.112C399.834 237.266 397.932 236.058 396.78 236.558C396.59 236.642 396.42 236.766 396.282 236.921C396.143 237.076 396.039 237.258 395.976 237.456C395.913 237.654 395.893 237.863 395.917 238.07C395.94 238.276 396.008 238.475 396.114 238.654C396.377 239.019 396.718 239.323 397.111 239.544C397.504 239.764 397.941 239.896 398.39 239.931C399.426 239.926 400.455 239.767 401.444 239.459C401.762 240.583 402.161 241.682 402.638 242.748C402.901 243.373 403.193 243.998 403.498 244.608C403.318 244.345 403.151 244.123 403.123 244.095C402.388 243.248 400.486 242.041 399.334 242.526C399.144 242.612 398.974 242.738 398.835 242.894C398.697 243.05 398.592 243.233 398.53 243.432C398.467 243.632 398.447 243.842 398.47 244.049C398.494 244.256 398.561 244.457 398.668 244.636C398.933 245 399.274 245.302 399.667 245.523C400.06 245.743 400.495 245.876 400.944 245.913C401.952 245.914 402.954 245.759 403.915 245.455C404.026 245.691 404.137 245.927 404.262 246.163C404.831 247.301 405.4 248.426 405.927 249.55C406.108 249.939 406.288 250.341 406.455 250.73L406.136 250.272C405.4 249.439 403.484 248.231 402.332 248.717C402.143 248.804 401.975 248.931 401.837 249.087C401.7 249.244 401.598 249.428 401.536 249.627C401.475 249.826 401.456 250.035 401.48 250.242C401.505 250.449 401.573 250.648 401.68 250.827C401.944 251.192 402.285 251.495 402.678 251.716C403.071 251.936 403.507 252.069 403.956 252.104C404.935 252.103 405.907 251.958 406.843 251.674C406.996 252.076 407.163 252.493 407.302 252.895C407.44 253.298 407.496 253.437 407.565 253.714L407.801 254.561C407.926 255.088 408.065 255.644 408.176 256.171C408.287 256.699 408.329 256.879 408.398 257.226L407.815 256.005C407.218 255.061 405.511 253.575 404.289 253.895C404.089 253.95 403.903 254.047 403.744 254.179C403.584 254.312 403.455 254.477 403.364 254.663C403.273 254.85 403.224 255.054 403.218 255.261C403.212 255.468 403.251 255.675 403.332 255.866C403.532 256.268 403.818 256.621 404.171 256.9C404.524 257.178 404.934 257.375 405.372 257.476C406.393 257.632 407.432 257.632 408.454 257.476C408.565 258.059 408.676 258.614 408.759 259.155C409.092 261.015 409.3 262.57 409.425 263.667C409.425 263.861 409.425 264.041 409.425 264.194H405.455L406.843 291.053H413.256L414.644 264.194H411.133L411.216 264.041C411.702 263.042 412.368 261.598 413.09 259.877L413.784 258.114C414.79 258.339 415.823 258.419 416.851 258.35C417.29 258.284 417.709 258.127 418.082 257.887C418.455 257.648 418.774 257.333 419.017 256.962C419.109 256.776 419.162 256.573 419.17 256.365C419.178 256.158 419.143 255.951 419.065 255.758C418.988 255.566 418.871 255.391 418.721 255.247C418.572 255.103 418.393 254.992 418.198 254.922C417.004 254.519 415.2 255.866 414.533 256.768C414.533 256.768 414.131 257.448 413.909 257.837L414.2 257.073C414.381 256.56 414.561 256.046 414.742 255.477L414.991 254.658C415.08 254.371 415.154 254.079 415.214 253.784C415.38 253.103 415.505 252.396 415.63 251.715C416.557 252.085 417.536 252.31 418.531 252.382C418.982 252.381 419.427 252.282 419.835 252.09C420.243 251.898 420.603 251.618 420.891 251.271C421.01 251.1 421.092 250.907 421.132 250.702C421.171 250.498 421.167 250.287 421.12 250.084C421.073 249.881 420.984 249.69 420.858 249.524C420.733 249.358 420.573 249.22 420.391 249.12C419.281 248.551 417.282 249.606 416.491 250.397C416.491 250.397 415.935 251.077 415.672 251.424C415.741 251.007 415.797 250.577 415.852 250.147C416.005 248.911 416.13 247.648 416.255 246.399C416.255 246.01 416.324 245.622 416.366 245.233C417.327 245.625 418.343 245.864 419.378 245.941C419.827 245.94 420.271 245.842 420.678 245.653C421.086 245.463 421.447 245.188 421.737 244.844C421.857 244.674 421.939 244.48 421.978 244.275C422.018 244.071 422.014 243.86 421.967 243.657C421.92 243.454 421.831 243.264 421.705 243.098C421.579 242.931 421.42 242.794 421.238 242.693C420.127 242.11 418.128 243.179 417.337 243.956C417.337 243.956 416.546 244.928 416.38 245.164C416.463 244.317 416.56 243.484 416.699 242.651C416.858 241.534 417.099 240.43 417.421 239.348C418.383 239.734 419.399 239.972 420.433 240.056C420.882 240.056 421.326 239.958 421.734 239.769C422.142 239.579 422.503 239.303 422.792 238.959C422.912 238.788 422.994 238.594 423.033 238.39C423.073 238.185 423.069 237.975 423.022 237.772C422.975 237.569 422.886 237.378 422.76 237.212C422.634 237.046 422.475 236.908 422.293 236.808C421.182 236.225 419.197 237.293 418.392 238.071C418.392 238.14 417.559 239.112 417.421 239.306C417.425 239.241 417.425 239.176 417.421 239.112C417.766 238.031 418.202 236.982 418.725 235.975C419.017 235.419 419.322 234.906 419.628 234.406C420.524 234.886 421.488 235.228 422.487 235.419C422.936 235.466 423.389 235.414 423.816 235.268C424.242 235.122 424.632 234.885 424.958 234.573C425.093 234.415 425.194 234.231 425.254 234.032C425.314 233.833 425.333 233.624 425.308 233.418C425.283 233.212 425.216 233.013 425.11 232.834C425.004 232.656 424.863 232.501 424.694 232.38C423.653 231.699 421.557 232.532 420.683 233.226C420.683 233.226 420.183 233.698 419.877 234.017L420.294 233.365C420.821 232.574 421.349 231.88 421.821 231.269L422.584 230.339C423.595 230.356 424.601 230.216 425.569 229.923C425.988 229.758 426.367 229.503 426.679 229.177C426.99 228.851 427.227 228.462 427.373 228.035C427.431 227.841 427.449 227.637 427.424 227.435C427.4 227.234 427.334 227.04 427.231 226.865C427.128 226.691 426.99 226.539 426.826 226.42C426.662 226.302 426.475 226.218 426.276 226.175ZM412.396 259.627C411.632 261.349 411.008 262.764 410.452 263.792L410.175 264.319H410.092C410.092 264.143 410.064 263.935 410.008 263.694C409.856 262.584 409.62 261.015 409.245 259.142C409.134 258.559 408.995 257.92 408.842 257.282C409.431 257.046 410.006 256.777 410.564 256.476C411.319 257.125 412.159 257.667 413.062 258.087C412.868 258.586 412.646 259.128 412.396 259.627Z" fill="#263238"/>
<path d="M419.655 234.142C419.655 234.142 420.058 232.671 420.072 232.574C420.225 231.477 419.878 229.242 418.684 228.701C418.495 228.615 418.29 228.569 418.082 228.568C417.874 228.567 417.668 228.609 417.478 228.693C417.288 228.777 417.118 228.9 416.978 229.055C416.839 229.209 416.735 229.392 416.671 229.589C416.569 230.029 416.564 230.485 416.658 230.927C416.751 231.368 416.941 231.783 417.212 232.144C417.927 232.923 418.75 233.596 419.655 234.142Z" fill="#263238"/>
<path d="M99.5108 236.488C100.47 236.744 101.462 236.856 102.453 236.821C102.453 236.821 101.995 235.433 101.968 235.364C101.51 234.406 100.052 232.824 98.8723 232.99C98.6764 233.02 98.4892 233.091 98.3232 233.199C98.1572 233.307 98.0162 233.449 97.9097 233.616C97.8032 233.783 97.7336 233.971 97.7057 234.167C97.6778 234.363 97.6922 234.563 97.7479 234.753C97.8966 235.154 98.1315 235.517 98.4362 235.817C98.7408 236.117 99.1077 236.346 99.5108 236.488Z" fill="#263238"/>
<path d="M126.884 229.368C125.704 229.243 124.288 230.853 123.858 231.825C123.858 231.922 123.386 233.296 123.413 233.296C123.177 233.546 122.941 233.823 122.692 234.129C122.234 234.698 121.706 235.35 121.193 236.086C120.679 236.822 120.138 237.654 119.638 238.557C119.092 239.515 118.628 240.518 118.25 241.555C118.25 241.208 118.25 240.236 118.25 240.167C118.111 239.112 117.223 237.155 116.057 236.946C115.856 236.912 115.649 236.922 115.453 236.976C115.256 237.03 115.074 237.127 114.919 237.259C114.764 237.392 114.64 237.557 114.556 237.743C114.472 237.928 114.43 238.131 114.433 238.335C114.449 238.762 114.558 239.18 114.753 239.561C114.947 239.942 115.221 240.277 115.557 240.542C116.382 241.084 117.286 241.496 118.236 241.763C117.899 242.822 117.635 243.902 117.445 244.997C117.334 245.636 117.237 246.288 117.153 246.927C117.153 246.621 117.153 246.358 117.153 246.316C117.014 245.261 116.126 243.304 114.96 243.096C114.765 243.062 114.565 243.07 114.373 243.12C114.181 243.17 114.002 243.261 113.848 243.386C113.694 243.511 113.569 243.667 113.481 243.845C113.392 244.022 113.343 244.216 113.336 244.414C113.353 244.842 113.462 245.26 113.656 245.641C113.85 246.022 114.124 246.357 114.46 246.621C115.258 247.153 116.134 247.556 117.056 247.815C117.056 248.065 116.987 248.315 116.959 248.565C116.82 249.758 116.681 250.952 116.515 252.118L116.306 253.34C116.306 253.062 116.306 252.84 116.306 252.812C116.168 251.757 115.279 249.8 114.113 249.578C113.912 249.543 113.706 249.553 113.509 249.607C113.313 249.661 113.13 249.758 112.975 249.891C112.82 250.023 112.696 250.188 112.612 250.374C112.528 250.56 112.486 250.762 112.489 250.966C112.507 251.391 112.617 251.807 112.811 252.186C113.005 252.565 113.279 252.897 113.614 253.159C114.388 253.674 115.235 254.072 116.126 254.339C116.043 254.742 115.959 255.158 115.848 255.547C115.789 255.814 115.715 256.078 115.626 256.338L115.376 257.129C115.196 257.615 115.016 258.128 114.835 258.6C114.655 259.072 114.571 259.253 114.446 259.558C114.516 259.156 114.627 258.351 114.627 258.281C114.612 257.349 114.359 256.436 113.891 255.63C113.898 255.524 113.898 255.417 113.891 255.311C113.87 255.113 113.806 254.923 113.704 254.752C113.603 254.582 113.466 254.435 113.303 254.322C113.139 254.209 112.954 254.132 112.759 254.096C112.563 254.061 112.362 254.068 112.17 254.117C111.018 254.422 110.282 256.449 110.227 257.504C110.227 257.573 110.227 258.253 110.227 258.684L110.06 257.934C109.935 257.421 109.796 256.921 109.658 256.379C109.574 256.116 109.505 255.852 109.422 255.588C109.338 255.325 109.227 255.047 109.144 254.783C108.908 254.159 108.658 253.534 108.381 252.923C109.372 252.688 110.319 252.294 111.185 251.757C111.538 251.518 111.836 251.206 112.059 250.842C112.282 250.478 112.424 250.071 112.475 249.647C112.476 249.453 112.436 249.26 112.358 249.082C112.28 248.904 112.165 248.744 112.021 248.613C111.877 248.482 111.707 248.383 111.522 248.322C111.338 248.261 111.142 248.24 110.949 248.259C109.769 248.384 108.742 250.272 108.533 251.313C108.533 251.382 108.436 252.146 108.408 252.562C108.242 252.201 108.075 251.827 107.895 251.452C107.367 250.383 106.798 249.328 106.229 248.259L105.729 247.288C106.7 247.088 107.635 246.747 108.506 246.274C108.861 246.034 109.16 245.72 109.383 245.353C109.605 244.987 109.747 244.577 109.796 244.151C109.797 243.956 109.757 243.763 109.679 243.585C109.601 243.407 109.486 243.247 109.342 243.117C109.198 242.986 109.028 242.886 108.843 242.825C108.659 242.764 108.463 242.743 108.27 242.762C107.09 242.901 106.063 244.789 105.84 245.83C105.84 245.9 105.729 247.01 105.716 247.288C105.341 246.566 104.98 245.9 104.647 245.122C104.197 244.149 103.812 243.148 103.495 242.124C104.466 241.922 105.402 241.575 106.271 241.097C106.629 240.863 106.93 240.552 107.154 240.187C107.377 239.822 107.516 239.412 107.562 238.987C107.563 238.792 107.523 238.6 107.444 238.422C107.366 238.243 107.251 238.084 107.107 237.953C106.963 237.822 106.793 237.723 106.609 237.662C106.424 237.601 106.228 237.579 106.035 237.599C104.855 237.724 103.828 239.612 103.62 240.653C103.62 240.736 103.495 241.916 103.495 242.138C103.489 242.078 103.489 242.017 103.495 241.957C103.201 240.923 103.001 239.863 102.898 238.793C102.898 238.196 102.801 237.627 102.773 237.071C103.729 236.986 104.665 236.752 105.549 236.377C105.93 236.179 106.262 235.9 106.524 235.559C106.785 235.219 106.969 234.825 107.062 234.406C107.092 234.207 107.079 234.004 107.023 233.811C106.967 233.618 106.869 233.439 106.737 233.287C106.605 233.135 106.442 233.014 106.258 232.932C106.074 232.849 105.875 232.808 105.674 232.81C104.48 232.81 103.245 234.573 102.898 235.586C102.898 235.586 102.759 236.211 102.676 236.641C102.676 236.391 102.676 236.128 102.676 235.892C102.676 234.989 102.676 234.17 102.787 233.435C102.787 233.018 102.87 232.643 102.912 232.296C103.719 231.778 104.44 231.136 105.049 230.395C105.299 230.046 105.469 229.646 105.546 229.223C105.623 228.801 105.605 228.366 105.493 227.952C105.429 227.765 105.326 227.594 105.19 227.451C105.055 227.307 104.89 227.195 104.708 227.12C104.525 227.045 104.329 227.01 104.131 227.017C103.934 227.024 103.741 227.073 103.564 227.161C102.495 227.702 102.176 229.84 102.398 230.881C102.398 230.978 102.814 232.366 102.828 232.352C102.828 232.685 102.731 233.046 102.69 233.449C102.69 234.17 102.537 235.003 102.523 235.905C102.462 236.876 102.462 237.85 102.523 238.82C102.599 239.909 102.781 240.987 103.064 242.041L102.273 240.889C101.579 240.084 99.7607 238.931 98.6641 239.403C98.4824 239.483 98.3198 239.601 98.1874 239.749C98.055 239.897 97.9559 240.071 97.8967 240.261C97.8375 240.45 97.8196 240.65 97.8442 240.847C97.8689 241.044 97.9354 241.233 98.0395 241.402C98.2887 241.748 98.6103 242.035 98.9819 242.244C99.3535 242.452 99.7661 242.577 100.191 242.61C101.175 242.612 102.154 242.462 103.092 242.166C103.41 243.228 103.79 244.271 104.23 245.289C104.48 245.886 104.758 246.483 105.049 247.065L104.702 246.566C104.008 245.761 102.19 244.623 101.093 245.081C100.911 245.16 100.749 245.278 100.617 245.426C100.484 245.574 100.385 245.748 100.326 245.938C100.267 246.127 100.249 246.327 100.273 246.524C100.298 246.721 100.365 246.91 100.469 247.079C100.717 247.427 101.038 247.716 101.41 247.927C101.781 248.138 102.194 248.266 102.62 248.301C103.561 248.293 104.497 248.148 105.396 247.871C105.521 248.093 105.618 248.315 105.729 248.537C106.271 249.62 106.826 250.688 107.326 251.757L107.825 252.882L107.52 252.451C106.826 251.646 105.008 250.494 103.911 250.966C103.729 251.046 103.567 251.163 103.434 251.311C103.302 251.459 103.203 251.634 103.144 251.823C103.084 252.013 103.067 252.213 103.091 252.409C103.116 252.606 103.182 252.796 103.286 252.965C103.535 253.312 103.856 253.602 104.228 253.813C104.599 254.024 105.012 254.151 105.438 254.186C106.379 254.193 107.316 254.053 108.214 253.77C108.367 254.159 108.519 254.547 108.658 254.936C108.797 255.325 108.839 255.449 108.908 255.727C108.977 256.005 109.061 256.255 109.13 256.518C109.255 257.018 109.38 257.545 109.491 258.045L109.699 259.058C109.533 258.684 109.172 257.962 109.144 257.892C108.575 257.004 106.951 255.588 105.799 255.88C105.605 255.93 105.425 256.021 105.27 256.147C105.115 256.273 104.989 256.431 104.901 256.61C104.812 256.79 104.764 256.986 104.758 257.185C104.753 257.385 104.791 257.584 104.869 257.768C105.065 258.149 105.341 258.483 105.679 258.746C106.017 259.01 106.409 259.197 106.826 259.294C107.792 259.444 108.775 259.444 109.741 259.294C109.852 259.836 109.963 260.377 110.046 260.891C110.366 262.654 110.546 264.139 110.671 265.18C110.671 265.374 110.671 265.527 110.671 265.693H107.09L108.394 291.22H114.502L115.904 265.638H112.573V265.485C113.031 264.527 113.669 263.153 114.349 261.474C114.571 260.946 114.793 260.377 115.016 259.78C115.969 260.012 116.953 260.092 117.931 260.016C118.354 259.949 118.757 259.79 119.112 259.55C119.467 259.31 119.765 258.996 119.985 258.628C120.075 258.452 120.127 258.258 120.136 258.06C120.145 257.862 120.112 257.664 120.038 257.48C119.965 257.295 119.852 257.129 119.709 256.992C119.566 256.855 119.395 256.75 119.208 256.685C118.083 256.31 116.362 257.587 115.724 258.448L115.141 259.461C115.224 259.225 115.321 258.989 115.404 258.739C115.585 258.253 115.751 257.754 115.932 257.226C116.015 256.962 116.084 256.699 116.168 256.435C116.251 256.171 116.306 255.894 116.376 255.616C116.529 254.964 116.654 254.311 116.765 253.645C117.653 253.992 118.589 254.203 119.541 254.27C119.968 254.267 120.39 254.173 120.778 253.993C121.166 253.814 121.511 253.553 121.789 253.229C121.908 253.067 121.991 252.883 122.032 252.687C122.073 252.491 122.071 252.288 122.026 252.093C121.981 251.898 121.894 251.715 121.772 251.556C121.65 251.397 121.495 251.267 121.317 251.174C120.262 250.633 118.361 251.646 117.611 252.396C117.611 252.396 117.084 253.034 116.82 253.367C116.889 252.965 116.945 252.562 117.001 252.16C117.153 250.98 117.264 249.772 117.375 248.578C117.375 248.218 117.445 247.857 117.486 247.482C118.4 247.848 119.364 248.072 120.346 248.148C120.773 248.146 121.195 248.052 121.583 247.872C121.971 247.692 122.316 247.432 122.594 247.107C122.711 246.946 122.792 246.763 122.831 246.568C122.871 246.374 122.868 246.173 122.823 245.979C122.778 245.786 122.693 245.604 122.572 245.447C122.451 245.29 122.298 245.16 122.123 245.067C121.054 244.511 119.166 245.525 118.402 246.274C118.402 246.274 117.667 247.19 117.5 247.413C117.584 246.607 117.667 245.816 117.792 245.025C117.954 243.965 118.186 242.917 118.486 241.888C119.404 242.255 120.373 242.48 121.359 242.554C121.785 242.552 122.204 242.457 122.59 242.278C122.976 242.098 123.318 241.837 123.594 241.513C123.713 241.352 123.796 241.167 123.836 240.971C123.877 240.775 123.875 240.573 123.83 240.378C123.786 240.182 123.699 239.999 123.577 239.841C123.454 239.682 123.299 239.552 123.122 239.459C122.067 238.918 120.165 239.931 119.416 240.68C119.416 240.68 118.611 241.666 118.5 241.846V241.652C118.829 240.627 119.247 239.634 119.749 238.682C120.013 238.154 120.304 237.654 120.596 237.182C121.462 237.653 122.4 237.977 123.372 238.14C123.797 238.191 124.228 238.146 124.634 238.009C125.04 237.872 125.41 237.647 125.718 237.349C125.851 237.202 125.952 237.027 126.012 236.838C126.072 236.649 126.091 236.448 126.068 236.251C126.044 236.054 125.978 235.863 125.875 235.694C125.771 235.524 125.632 235.378 125.468 235.267C124.482 234.601 122.483 235.392 121.651 236.058L120.887 236.822C121.026 236.613 121.151 236.391 121.29 236.197C121.789 235.447 122.289 234.809 122.678 234.212C122.941 233.879 123.177 233.587 123.413 233.324C124.354 233.327 125.289 233.191 126.19 232.921C126.588 232.763 126.947 232.521 127.244 232.212C127.541 231.903 127.768 231.535 127.911 231.13C127.967 230.947 127.985 230.754 127.963 230.564C127.941 230.374 127.88 230.19 127.783 230.024C127.687 229.858 127.557 229.715 127.402 229.602C127.247 229.489 127.071 229.409 126.884 229.368ZM113.78 261.168C113.058 262.82 112.392 264.167 111.934 265.097C111.837 265.291 111.74 265.457 111.67 265.61H111.587C111.587 265.416 111.587 265.221 111.504 264.999C111.365 263.944 111.143 262.459 110.782 260.682C110.671 260.113 110.546 259.516 110.407 258.906C110.963 258.683 111.505 258.428 112.031 258.142C112.752 258.754 113.55 259.267 114.405 259.669C114.201 260.197 113.993 260.696 113.78 261.168Z" fill="#263238"/>
<path d="M120.651 236.932C120.651 236.932 121.026 235.544 121.04 235.461C121.179 234.406 120.845 232.282 119.777 231.769C119.597 231.685 119.401 231.64 119.203 231.638C119.004 231.635 118.808 231.676 118.626 231.756C118.445 231.836 118.282 231.954 118.15 232.103C118.018 232.251 117.92 232.426 117.861 232.616C117.763 233.032 117.756 233.466 117.843 233.885C117.929 234.305 118.106 234.701 118.361 235.045C119.026 235.785 119.798 236.421 120.651 236.932Z" fill="#263238"/>
<path d="M430.441 293.913V33.1777" stroke="#263238" stroke-linecap="round" stroke-linejoin="round"/>
<path d="M197.245 293.913V34.8018" stroke="#263238" stroke-linecap="round" stroke-linejoin="round"/>
<path d="M48.3743 165.919H532.103" stroke="#263238" stroke-linecap="round" stroke-linejoin="round"/>
<path d="M121.401 49.9178H130.909C132.131 49.9178 133.303 50.4034 134.168 51.2676C135.032 52.1318 135.517 53.304 135.517 54.5262V65.0617H116.737V54.5262C116.737 53.9163 116.858 53.3125 117.093 52.7497C117.328 52.187 117.672 51.6765 118.106 51.2478C118.54 50.8191 119.054 50.4808 119.62 50.2525C120.186 50.0242 120.791 49.9105 121.401 49.9178Z" fill="#263238"/>
<path d="M134.629 79.0257C134.629 80.7498 134.118 82.4351 133.16 83.8686C132.202 85.3021 130.841 86.4194 129.248 87.0792C127.655 87.739 125.902 87.9116 124.211 87.5753C122.52 87.2389 120.967 86.4087 119.748 85.1896C118.529 83.9705 117.699 82.4173 117.362 80.7263C117.026 79.0354 117.199 77.2826 117.858 75.6898C118.518 74.097 119.635 72.7355 121.069 71.7777C122.502 70.8198 124.188 70.3086 125.912 70.3086C128.224 70.3086 130.441 71.227 132.076 72.8618C133.711 74.4965 134.629 76.7138 134.629 79.0257Z" fill="white"/>
<path d="M163.223 79.428H89.0864L116.889 64.2842H135.351L163.223 79.428Z" fill="#263238"/>
<path d="M127.716 21.6982H124.579V51.9998H127.716V21.6982Z" fill="#263238"/>
<path d="M477.385 49.9175H486.88C488.102 49.9175 489.274 50.403 490.138 51.2673C491.003 52.1315 491.488 53.3037 491.488 54.5259V65.0613H472.777V54.5259C472.777 53.3037 473.262 52.1315 474.127 51.2673C474.991 50.403 476.163 49.9175 477.385 49.9175Z" fill="#263238"/>
<path d="M481.896 87.7428C486.711 87.7428 490.614 83.84 490.614 79.0257C490.614 74.2114 486.711 70.3086 481.896 70.3086C477.082 70.3086 473.179 74.2114 473.179 79.0257C473.179 83.84 477.082 87.7428 481.896 87.7428Z" fill="white"/>
<path d="M519.208 79.428H445.071L472.874 64.2842H491.335L519.208 79.428Z" fill="#263238"/>
<path d="M483.701 21.6982H480.564V51.9998H483.701V21.6982Z" fill="#263238"/>
<path d="M265.316 118.03L259.292 121.736" stroke="#263238" stroke-width="0.5" stroke-linecap="round" stroke-linejoin="round"/>
<path d="M367.006 55.3589L273.422 113.033" stroke="#263238" stroke-width="0.5" stroke-linecap="round" stroke-linejoin="round"/>
<path d="M379.36 59.2593L304.376 105.454" stroke="#263238" stroke-width="0.5" stroke-linecap="round" stroke-linejoin="round"/>
<path d="M412.104 39.0767L389.451 53.0268" stroke="#263238" stroke-width="0.5" stroke-linecap="round" stroke-linejoin="round"/>
<path d="M294.882 281.379C294.882 281.379 292.466 297.383 294.16 305.864C295.853 314.345 302.155 355.835 303.876 372.783C305.598 389.731 313.815 415.438 314.301 416.66C314.787 417.881 313.579 421.254 313.579 422.712C313.579 424.169 314.065 427.57 314.065 427.57C314.065 427.57 307.027 432.165 303.391 434.358C299.754 436.551 301.461 437.509 304.848 437.981C308.235 438.453 356.207 437.981 356.207 437.981C356.207 437.981 357.414 437.745 355.957 435.565C354.499 433.386 344.561 426.599 344.561 426.599C344.369 424.987 344.29 423.363 344.325 421.74C344.325 418.353 341.41 412.288 341.41 412.288C341.41 412.288 346.754 373.505 345.574 363.316C344.394 353.128 343.881 342.717 345.824 333.501C347.767 324.284 344.852 283.322 345.338 281.379C345.587 279.973 345.418 278.525 344.852 277.214C344.852 277.214 329.583 283.266 316.73 284.238C309.325 284.916 301.862 283.94 294.882 281.379Z" fill="#263238" stroke="#263238" stroke-miterlimit="10" stroke-linecap="round"/>
<path d="M355.971 435.565C354.513 433.386 344.575 426.598 344.575 426.598C344.575 426.598 344.575 426.418 344.575 426.113C338.609 428.08 333.037 431.083 328.112 434.982C328.112 434.982 328.903 433.927 324.434 430.249C321.461 428.008 317.732 427.012 314.037 427.473C314.037 427.473 307 432.067 303.363 434.261C299.726 436.454 301.433 437.411 304.82 437.883C308.207 438.355 356.179 437.883 356.179 437.883C356.179 437.883 357.428 437.759 355.971 435.565Z" fill="white" stroke="#263238" stroke-linecap="round" stroke-linejoin="round"/>
<path d="M303.696 435.857C303.696 435.857 312.621 436.509 316.314 435.427" stroke="#263238" stroke-width="0.75" stroke-linecap="round" stroke-linejoin="round"/>
<path d="M292.258 214.46C292.258 214.46 285.318 251.937 283.527 257.573C281.737 263.209 282.431 276.312 287.691 274.785C292.952 273.258 294.632 265.416 295.09 263.236C295.548 261.057 295.964 222.982 295.964 216.403C295.964 209.823 292.258 214.46 292.258 214.46Z" fill="#92E3A9" stroke="#263238" stroke-linecap="round" stroke-linejoin="round"/>
<path d="M317.535 200.01C317.535 200.01 299.629 205.271 296.714 205.881C293.799 206.492 292.355 210.851 292.203 214.46C292.05 218.069 292.661 254.922 292.508 265.915C292.355 276.909 290.856 280.657 295.812 284.71C300.767 288.763 314.773 289.526 327.557 288.624C340.341 287.722 346.074 283.808 346.074 278.103C346.074 272.398 345.172 245.303 345.172 245.303C345.172 245.303 346.56 229.506 349.683 222.733C352.806 215.959 354.638 213.849 352.237 211.448C349.835 209.046 334.928 200.468 329.07 198.802C325.197 197.925 321.142 198.349 317.535 200.01Z" fill="#92E3A9" stroke="#263238" stroke-linecap="round" stroke-linejoin="round"/>
<path d="M314.079 210.545L315.731 221.081L327.765 214.002L322.504 205.423C322.504 205.423 315.134 207.686 314.079 210.545Z" fill="#263238" stroke="#263238" stroke-linecap="round" stroke-linejoin="round"/>
<path d="M318.479 194.555C316.103 196.623 314.208 199.186 312.927 202.064C311.247 206.326 307.749 213.058 309.179 213.433C310.609 213.807 314.87 210.212 315.772 210.212C316.674 210.212 318.479 214.599 319.006 214.737C320.862 214.228 322.676 213.578 324.434 212.794C324.434 212.794 325.211 218.346 326.891 218.485C328.57 218.624 334.261 209.948 335.302 203.48C336.343 197.012 332.97 195.984 332.318 195.846C331.666 195.707 324.045 192.362 318.479 194.555Z" fill="#92E3A9" stroke="#263238" stroke-linecap="round" stroke-linejoin="round"/>
<path d="M317.577 173.47C317.577 173.47 317.327 167.529 317.327 163.906C317.327 160.283 317.84 158.354 320.034 157.563C322.227 156.771 322.879 160.158 322.81 161.963C322.74 163.767 317.577 173.47 317.577 173.47Z" fill="#263238" stroke="#263238" stroke-linecap="round" stroke-linejoin="round"/>
<path d="M317.577 172.054C317.577 172.054 317.452 167.654 315.897 169.986C314.343 172.318 314.87 177.745 315.897 177.232C316.924 176.718 317.577 172.054 317.577 172.054Z" fill="white" stroke="#263238" stroke-linecap="round" stroke-linejoin="round"/>
<path d="M317.84 194.305C317.84 194.305 317.452 204.771 317.188 208.907C316.924 213.044 318.354 215.376 320.811 214.46C323.268 213.544 329.223 205.659 331.027 202.564C332.23 200.42 333.225 198.166 333.998 195.832C333.998 195.832 325.086 198.566 317.84 194.305Z" fill="white" stroke="#263238" stroke-linecap="round" stroke-linejoin="round"/>
<path d="M320.783 160.672C320.783 160.672 316.133 176.066 314.842 181.618C313.551 187.17 314.19 191.848 316.522 195.499C317.615 197.18 319.14 198.536 320.937 199.425C322.735 200.314 324.738 200.703 326.738 200.551C330.902 200.412 336.052 199.385 339.147 192.917C340.793 189.342 342.221 185.671 343.423 181.923C344.061 180.632 346.393 173.9 347.684 169.639C348.975 165.377 346.421 160.242 341.479 157.354C339.98 156.424 329.875 150.039 320.783 160.672Z" fill="white" stroke="#263238" stroke-linecap="round" stroke-linejoin="round"/>
<path d="M344.38 180.466C344.38 180.466 347.615 177.87 348.545 179.813C349.475 181.757 347.767 185.241 345.574 186.407C345.045 186.756 344.44 186.974 343.81 187.041C343.18 187.109 342.542 187.025 341.951 186.795C341.951 186.795 342.992 181.882 344.38 180.466Z" fill="white" stroke="#263238" stroke-linecap="round" stroke-linejoin="round"/>
<path d="M348.614 155.245L347.226 153.69C347.226 153.69 347.101 152.649 342.951 151.108C338.8 149.567 334.025 149.803 332.346 147.735C330.666 145.667 328.723 145.153 323.809 145.931C318.895 146.708 316.869 151.747 316.869 155.883C316.869 160.02 325.794 165.849 331.999 166.752C338.203 167.654 344.297 165.711 342.992 166.877C341.687 168.043 337.953 172.179 339.244 173.609C340.535 175.038 341.313 175.927 341.313 177.62C341.313 178.772 341.077 181.437 341.132 183.048C340.632 184.061 339.3 186.768 338.995 187.212C338.689 187.656 334.983 184.63 332.776 183.464C331.755 182.834 330.608 182.436 329.417 182.298C329.417 182.298 329.292 184.241 328.39 184.491C327.487 184.741 324.378 184.755 323.462 183.853C323.177 183.455 322.974 183.005 322.864 182.529C322.755 182.052 322.741 181.559 322.824 181.077C319.66 181.19 316.656 182.494 314.412 184.727C313.89 188.442 314.67 192.223 316.619 195.429C317.712 197.111 319.237 198.467 321.034 199.356C322.832 200.245 324.835 200.634 326.835 200.482C330.999 200.343 336.149 199.316 339.244 192.847C340.755 189.687 342.008 186.41 342.992 183.048C343.399 182.447 343.721 181.793 343.95 181.104C345.149 178.404 346.713 175.882 348.6 173.609C351.119 170.153 352.479 165.989 352.487 161.713C352.519 160.379 352.173 159.063 351.487 157.918C350.802 156.773 349.805 155.846 348.614 155.245Z" fill="#263238" stroke="#263238" stroke-linecap="round" stroke-linejoin="round"/>
<path d="M336.746 155.98C336.746 155.98 328.417 152.857 327.029 158.756C325.641 164.656 339.522 166.391 350.974 164.309" stroke="white" stroke-width="0.75" stroke-linecap="round" stroke-linejoin="round"/>
<path d="M340.91 171.249C340.91 171.249 343.339 171.943 348.892 170.208" stroke="white" stroke-width="0.75" stroke-linecap="round" stroke-linejoin="round"/>
<path d="M325.725 172.054L325.211 175.024C325.211 175.024 321.852 182.534 322.754 183.436C323.656 184.338 328.445 185.379 328.834 183.825C329.041 183.105 329.171 182.365 329.223 181.618L327.668 181.229" stroke="#263238" stroke-linecap="round" stroke-linejoin="round"/>
<path d="M331.166 173.22C331.166 173.22 335.941 172.054 337.107 176.066" stroke="#263238" stroke-linecap="round" stroke-linejoin="round"/>
<path d="M324.697 170.763C324.137 170.226 323.417 169.885 322.646 169.792C321.874 169.7 321.094 169.86 320.422 170.25" stroke="#263238" stroke-linecap="round" stroke-linejoin="round"/>
<path d="M333.095 177.731C332.984 178.509 332.526 179.119 332.068 179.022C331.61 178.925 331.319 178.273 331.43 177.495C331.541 176.718 331.985 176.107 332.457 176.205C332.929 176.302 333.192 176.954 333.095 177.731Z" fill="#263238"/>
<path d="M322.296 174.497C322.185 175.274 321.727 175.885 321.269 175.788C320.811 175.691 320.519 175.052 320.63 174.261C320.741 173.47 321.186 172.873 321.658 172.97C322.13 173.067 322.393 173.72 322.296 174.497Z" fill="#263238"/>
<path d="M331.804 187.309C326.391 193.736 322.088 188.433 321.713 187.059L331.804 187.309Z" fill="white"/>
<path d="M315.731 221.081C315.731 221.081 309.415 246.205 308.207 258.239C307.492 265.036 307.14 271.866 307.152 278.7L310.317 284.252L314.981 278.7C314.981 278.7 314.828 251.924 314.828 243.345C314.828 234.767 315.731 221.081 315.731 221.081Z" fill="#263238" stroke="#263238" stroke-linecap="round" stroke-linejoin="round"/>
<path d="M345.546 225.87C345.546 225.87 341.674 234.601 343.131 238.959C344.589 243.318 356.942 261.501 358.15 262.237C359.358 262.973 368.824 265.138 370.032 259.572C371.239 254.006 361.065 221.025 357.914 216.181C354.763 211.336 352.362 211.808 351.126 212.78" fill="#92E3A9"/>
<path d="M345.546 225.87C345.546 225.87 341.674 234.601 343.131 238.959C344.589 243.318 356.942 261.501 358.15 262.237C359.358 262.973 368.824 265.138 370.032 259.572C371.239 254.006 361.065 221.025 357.914 216.181C354.763 211.336 352.362 211.808 351.126 212.78" stroke="#263238" stroke-linecap="round" stroke-linejoin="round"/>
<path d="M312.094 244.053L313.551 282.836L343.131 281.392L342.395 243.332L312.094 244.053Z" fill="white" stroke="#263238" stroke-linecap="round" stroke-linejoin="round"/>
<path d="M364.216 252.784C364.216 252.784 356.706 253.506 352.334 255.935C347.962 258.364 330.999 261.987 330.999 261.987L331.971 271.44C339.616 272.416 347.354 272.416 354.999 271.44C365.909 269.746 372.211 270.232 372.697 267.081C373.183 263.93 369.06 252.049 369.06 252.049" fill="#92E3A9"/>
<path d="M364.216 252.784C364.216 252.784 356.706 253.506 352.334 255.935C347.962 258.364 330.999 261.987 330.999 261.987L331.971 271.44C339.616 272.416 347.354 272.416 354.999 271.44C365.909 269.746 372.211 270.232 372.697 267.081C373.183 263.93 369.06 252.049 369.06 252.049" stroke="#263238" stroke-linecap="round" stroke-linejoin="round"/>
<path d="M337.315 261.016L337.787 271.926" stroke="#263238" stroke-linecap="round" stroke-linejoin="round"/>
<path d="M331.735 262.959L323.559 256.421C323.559 256.421 318.007 253.506 316.772 253.506C314.249 253.774 311.742 254.177 309.262 254.714C308.291 254.964 308.776 256.171 310.47 256.907C311.546 257.348 312.694 257.593 313.857 257.629C313.857 257.629 306.111 259.322 306.111 261.265C306.111 263.209 309.498 264.166 309.498 264.166C309.498 264.166 308.526 268.775 310.706 270.482C312.885 272.19 315.078 272.897 318.951 271.87C322.824 270.843 332.04 271.384 332.04 271.384L331.735 262.959Z" fill="white" stroke="#263238" stroke-linecap="round" stroke-linejoin="round"/>
<path d="M290.926 258.878C290.926 258.878 285.262 252.132 283.527 246.899C281.792 241.666 277.864 231.63 277.864 231.63L271.548 231.408C271.548 231.408 272.201 251.008 275.712 262.126C279.224 273.244 283.763 278.894 286.165 277.811C288.566 276.728 292.05 271.495 292.05 271.495" fill="#92E3A9"/>
<path d="M290.926 258.878C290.926 258.878 285.262 252.132 283.527 246.899C281.792 241.666 277.864 231.63 277.864 231.63L271.548 231.408C271.548 231.408 272.201 251.008 275.712 262.126C279.224 273.244 283.763 278.894 286.165 277.811C288.566 276.728 292.05 271.495 292.05 271.495" stroke="#263238" stroke-linecap="round" stroke-linejoin="round"/>
<path d="M284.402 207.047C282.762 208.248 281.664 210.05 281.348 212.058C280.904 213.793 280.043 214.446 277.184 214.238C276.686 214.162 276.179 214.186 275.69 214.307C275.202 214.429 274.743 214.646 274.338 214.946C274.227 214.49 274.162 214.025 274.144 213.557C274.144 212.003 276.795 208.588 278.003 207.603C279.21 206.617 280.973 205.174 280.779 203.855C280.585 202.536 275.601 205.396 274.172 206.395C272.742 207.394 271.965 211.462 271.965 211.462C271.227 213.963 271.16 216.615 271.77 219.151C271.618 219.485 271.479 219.804 271.326 220.179C269.369 224.967 271.548 231.505 271.548 231.505L277.864 231.727C277.864 231.727 277.212 228.465 278.294 227.147C279.376 225.437 280.617 223.834 282 222.358C283.736 220.831 284.61 216.264 284.61 215.168C284.808 213.143 285.324 211.161 286.137 209.296C287.011 207.256 286.359 205.743 284.402 207.047Z" fill="white" stroke="#263238" stroke-linecap="round" stroke-linejoin="round"/>
<path d="M270.313 215.57C270.313 215.57 271.09 211.503 272.52 210.504C273.95 209.504 278.919 206.645 279.127 207.977C279.335 209.31 277.586 210.754 276.351 211.711C275.116 212.669 272.492 216.125 272.492 217.666C272.598 218.953 272.897 220.217 273.38 221.414C273.38 221.414 271.992 223.954 270.951 224.273C269.91 224.593 269.105 219.651 270.313 215.57Z" fill="white" stroke="#263238" stroke-linecap="round" stroke-linejoin="round"/>
<path d="M270.535 217.999C270.535 217.999 271.312 213.918 272.742 212.933C274.172 211.947 279.127 209.074 279.349 210.393C279.571 211.711 277.808 213.169 276.573 214.14C275.338 215.112 272.714 218.554 272.714 220.095C272.82 221.382 273.119 222.646 273.603 223.843C273.603 223.843 272.215 226.369 271.173 226.702C270.132 227.036 269.327 222.08 270.535 217.999Z" fill="white" stroke="#263238" stroke-linecap="round" stroke-linejoin="round"/>
<path d="M270.813 228.91C270.813 228.91 269.05 222.844 269.272 220.428C269.494 218.013 270.368 215.903 271.59 215.792C272.811 215.681 277.975 213.807 277.975 215.237C277.975 216.667 273.242 218.221 273.242 218.221C273.242 218.221 276.212 222.08 276.101 224.051C275.983 225.461 275.728 226.856 275.338 228.216" fill="white"/>
<path d="M270.813 228.91C270.813 228.91 269.05 222.844 269.272 220.428C269.494 218.013 270.368 215.903 271.59 215.792C272.811 215.681 277.975 213.807 277.975 215.237C277.975 216.667 273.242 218.221 273.242 218.221C273.242 218.221 276.212 222.08 276.101 224.051C275.983 225.461 275.728 226.856 275.338 228.216" stroke="#263238" stroke-linecap="round" stroke-linejoin="round"/>
<path d="M309.914 304.171L315.37 308.168L328.098 433.261" stroke="white" stroke-width="0.75" stroke-linecap="round" stroke-linejoin="round"/>
<path d="M138.335 243.124C138.335 243.124 142.638 253.964 142.832 257.851C143.027 261.738 142.027 261.113 143.651 266.179C145.275 271.246 149.995 283.35 152.66 293.163C154.773 301.17 155.804 309.424 155.728 317.705H125.454C125.454 317.705 127.702 311.569 121.567 294.399C115.432 277.228 112.989 267.026 112.989 262.14C112.989 257.254 110.324 252.326 109.297 246.802C108.27 241.277 111.545 241.888 111.545 241.888L136.295 242.096C136.295 242.096 137.933 241.888 138.335 243.124Z" fill="#263238" stroke="#263238" stroke-linecap="round" stroke-linejoin="round"/>
<path d="M109.13 244.345C109.366 241.486 111.545 241.888 111.545 241.888L136.295 242.096C136.295 242.096 137.933 241.888 138.335 243.123C138.335 243.123 142.638 253.964 142.832 257.851C142.894 258.874 142.866 259.9 142.749 260.919L142.222 261.724C142.222 261.724 141.403 268.886 131.589 269.302C121.775 269.719 116.32 265.208 114.21 260.905C112.101 256.602 111.351 249.661 109.713 245.636C109.547 245.164 109.338 244.817 109.13 244.345Z" fill="white" stroke="#263238" stroke-linecap="round" stroke-linejoin="round"/>
<path d="M112.989 262.14C112.989 257.226 110.324 252.326 109.297 246.802C108.589 242.985 109.935 242.096 110.837 241.916C111.184 242.041 112.448 242.776 114.002 247.621C115.848 253.34 114.821 260.905 115.848 267.054C116.876 273.203 121.984 286.695 125.662 296.717C128.688 304.962 129.368 312.929 128.133 317.774H125.454C125.454 317.774 127.703 311.639 121.567 294.468C115.432 277.298 112.989 267.026 112.989 262.14Z" fill="white" stroke="#263238" stroke-linecap="round" stroke-linejoin="round"/>
<path d="M264.469 317.399H239.845C239.399 317.36 238.984 317.155 238.682 316.825C238.379 316.495 238.212 316.063 238.212 315.616C238.212 315.168 238.379 314.736 238.682 314.406C238.984 314.076 239.399 313.871 239.845 313.832H264.469C265.123 313.843 265.77 313.701 266.359 313.416C266.947 313.13 267.46 312.711 267.857 312.19C268.253 311.67 268.521 311.063 268.639 310.42C268.757 309.777 268.722 309.115 268.536 308.488L259.791 277.187C259.664 276.732 259.723 276.246 259.955 275.834C260.186 275.423 260.572 275.121 261.027 274.994C261.481 274.867 261.968 274.925 262.379 275.157C262.79 275.389 263.093 275.774 263.22 276.229L271.965 307.53C272.285 308.686 272.335 309.9 272.109 311.078C271.883 312.257 271.388 313.367 270.662 314.322C269.937 315.277 269 316.052 267.926 316.586C266.852 317.12 265.669 317.398 264.469 317.399Z" fill="white" stroke="#263238" stroke-linecap="round" stroke-linejoin="round"/>
<path d="M261.388 236.03L255.806 235.361L247.159 307.454L252.74 308.123L261.388 236.03Z" fill="white" stroke="#263238" stroke-linecap="round" stroke-linejoin="round"/>
<path d="M261.415 236.003C266.876 260.316 263.824 285.767 252.768 308.099L261.415 236.003Z" fill="white" stroke="#263238" stroke-linecap="round" stroke-linejoin="round"/>
<path d="M280.654 317.233H37.0476V423.42H280.654V317.233Z" fill="#F4C201"/>
<path d="M280.654 317.233H37.0476V423.42H280.654V317.233Z" stroke="#263238" stroke-linecap="round" stroke-linejoin="round"/>
<path d="M280.71 320.245H37.0754V323.77H280.71V320.245Z" fill="#263238"/>
<path d="M282.736 315.15H30.8013V320.703H282.736V315.15Z" fill="white" stroke="#263238" stroke-linecap="round" stroke-linejoin="round"/>
<path d="M524.33 233.823L496.957 234.059C496.957 234.059 495.153 233.823 494.694 235.184C494.694 235.184 489.947 247.177 489.711 251.48C489.475 255.783 490.627 255.089 488.809 260.752C486.991 266.415 481.799 279.755 478.857 290.623C474.901 305.226 473.873 320.716 473.624 335.777C473.624 338.192 472.138 359 475.9 359C479.023 359 507.826 362.817 508.173 357.264C509.561 335.139 505.563 313.512 513.253 292.025C516.237 283.697 519.652 274.841 522.192 266.096C524.732 257.351 525.163 248.259 526.814 239.306C527.953 233.143 524.33 233.823 524.33 233.823Z" fill="#045860" stroke="#263238" stroke-linecap="round" stroke-linejoin="round"/>
<path d="M527.009 236.488C526.745 233.338 524.33 233.782 524.33 233.782L496.957 234.018C496.957 234.018 495.153 233.782 494.695 235.142C494.695 235.142 489.947 247.135 489.711 251.438C489.653 252.572 489.685 253.71 489.808 254.839L490.392 255.727C490.392 255.727 491.294 263.653 502.162 264.056C513.031 264.458 519.125 259.53 521.387 254.783C523.65 250.036 524.552 242.291 526.37 237.821C526.551 237.446 526.773 236.988 527.009 236.488Z" fill="#E1B000" stroke="#263238" stroke-linecap="round" stroke-linejoin="round"/>
<path d="M520.665 245.372C518.833 251.979 519.93 253.825 518.097 265.208C516.265 276.59 509.658 289.429 507.076 301.186C504.494 312.943 505.688 354.433 505.98 356.265C506.117 357.239 506.173 358.224 506.146 359.208C507.368 358.75 508.117 358.111 508.173 357.25C509.561 335.125 505.563 313.498 513.253 292.011C516.237 283.683 519.652 274.827 522.192 266.082C524.732 257.337 525.163 248.245 526.814 239.292C527.508 235.544 526.412 234.351 525.426 234.004C523.366 237.577 521.766 241.397 520.665 245.372Z" fill="#E1B000" stroke="#263238" stroke-linecap="round" stroke-linejoin="round"/>
<path d="M446.112 246.038C442.05 247.875 438.121 249.995 434.355 252.382C430.954 254.867 431.579 260.974 431.579 262.556C431.579 264.139 422.529 278.852 424.111 284.058C425.694 289.263 429.538 303.06 429.774 306.267C430.01 309.473 429.316 318.482 429.316 318.482H472.083C471.975 310.471 472.355 302.461 473.221 294.496C474.609 284.321 477.524 280.698 477.524 265.097C477.524 249.495 460.548 246.538 456.259 246.08C452.882 245.821 449.491 245.807 446.112 246.038Z" fill="white" stroke="#263238" stroke-linecap="round" stroke-linejoin="round"/>
<path d="M424.167 284.058C425.555 288.763 428.886 300.492 429.719 305.031C429.719 303.088 429.719 301.214 429.65 299.66C429.427 293.108 429.65 283.822 436.215 268.664C441.254 257.018 444.155 249.398 445.224 246.455C441.482 248.158 437.868 250.13 434.411 252.354C431.01 254.839 431.634 260.946 431.634 262.529C431.634 264.111 422.584 278.852 424.167 284.058Z" fill="#92E3A9" stroke="#263238" stroke-linecap="round" stroke-linejoin="round"/>
<path d="M390.006 316.636C390.006 316.636 387.05 321.105 384.968 323.951C382.885 326.796 379.526 332.279 381.858 332.515C384.19 332.751 386.786 330.447 389.382 329.142C391.142 328.042 392.504 326.408 393.268 324.478C393.268 324.478 392.491 329.406 394.309 328.365C396.128 327.324 396.128 323.701 396.128 321.355C396.19 319.362 396.361 317.374 396.641 315.4C396.641 315.4 393.227 312.416 390.006 316.636Z" fill="white" stroke="#263238" stroke-linecap="round" stroke-linejoin="round"/>
<path d="M391.394 322.41C391.394 322.41 378.777 322.41 376.722 323.59C374.668 324.77 367.631 357.903 361.773 371.395C361.773 371.395 357.081 383.124 353.264 388.704C351.876 390.661 345.63 393.104 341.229 394.256C336.829 395.409 335.08 396.311 335.677 397.491C336.274 398.671 345.394 400.711 349.461 401.308C353.528 401.905 356.207 400.711 357.387 400.711C358.566 400.711 360.024 402.182 362.37 401.308C364.716 400.433 363.244 394.256 363.244 390.745C363.244 387.233 367.644 374.615 372.628 369.327C377.611 364.038 387.3 343.814 389.354 337.651C391.408 331.488 391.991 330.03 391.991 330.03" fill="white"/>
<path d="M391.394 322.41C391.394 322.41 378.777 322.41 376.722 323.59C374.668 324.77 367.631 357.903 361.773 371.395C361.773 371.395 357.081 383.124 353.264 388.704C351.876 390.661 345.63 393.104 341.229 394.256C336.829 395.409 335.08 396.311 335.677 397.491C336.274 398.671 345.394 400.711 349.461 401.308C353.528 401.905 356.207 400.711 357.387 400.711C358.566 400.711 360.024 402.182 362.37 401.308C364.716 400.433 363.244 394.256 363.244 390.745C363.244 387.233 367.644 374.615 372.628 369.327C377.611 364.038 387.3 343.814 389.354 337.651C391.408 331.488 391.991 330.03 391.991 330.03" stroke="#263238" stroke-linecap="round" stroke-linejoin="round"/>
<path d="M388.354 329.489C386.067 330.456 384.128 332.096 382.794 334.191C381.46 336.286 380.795 338.737 380.887 341.218C380.887 350.296 394.226 407.915 394.226 411.108C394.386 413.926 393.89 416.742 392.777 419.336C391.664 421.93 389.965 424.231 387.813 426.057C386.855 426.932 381.289 430.846 381.928 432.651C382.983 435.621 390.436 432.734 392.255 431.957C395.545 430.568 399.195 424.766 402.763 425.016C406.552 425.238 407.024 423.42 407.024 419.672C407.024 415.924 402.86 411.246 402.36 405.902C401.86 400.558 400.125 381.722 401.721 372.714C403.193 364.385 395.822 343.384 395.822 343.384C395.822 343.384 418.475 357.264 438.45 352.42C458.424 347.576 419.822 339.122 413.964 334.847C408.107 330.572 393.157 326.255 388.354 329.489Z" fill="white" stroke="#263238" stroke-linecap="round" stroke-linejoin="round"/>
<path d="M381.414 328.864C381.414 328.864 391.394 339.719 404.067 344.758L408.468 323.354C408.468 323.354 389.687 320.12 376.778 323.645" fill="white"/>
<path d="M381.414 328.864C381.414 328.864 391.394 339.719 404.067 344.758L408.468 323.354C408.468 323.354 389.687 320.12 376.778 323.645" stroke="#263238" stroke-linecap="round" stroke-linejoin="round"/>
<path d="M472.083 318.385C471.975 310.374 472.355 302.363 473.221 294.399C474.609 284.224 477.524 280.601 477.524 264.999C477.524 250.466 462.824 246.954 457.328 246.122C456.046 248.215 455.003 250.445 454.218 252.77C453.76 255.033 444.03 274.716 441.726 289.429C439.921 301.186 441.434 313.79 442.114 318.385H429.289L429.885 322.993L405.872 321.938L399.903 345.882C399.903 345.882 412.84 351.435 422.196 355.266C431.551 359.097 450.373 362.678 461.658 359.124C470.958 356.209 477.885 351.185 476.622 340.705C475.676 333.161 474.158 325.699 472.083 318.385Z" fill="#92E3A9" stroke="#263238" stroke-linecap="round" stroke-linejoin="round"/>
<path d="M445.168 246.482L433.439 263.458L434.799 267.303L430.954 271.606L430.274 284.057" stroke="#263238" stroke-linecap="round" stroke-linejoin="round"/>
<path d="M456.064 252.826L455.384 266.401L450.637 269.344L452.442 272.967L443.169 290.387" stroke="#263238" stroke-linecap="round" stroke-linejoin="round"/>
<path d="M436.604 205.951C436.604 205.951 433.925 211.975 434.147 213.766C434.369 215.556 433.939 217.666 432.204 218.346C430.468 219.027 428.581 220.387 429.427 221.872C430.033 222.774 430.86 223.505 431.829 223.996C431.829 223.996 430.691 231.436 431.385 233.393C432.079 235.35 433.453 239.07 435.702 238.793C437.95 238.515 443.586 238.043 443.586 238.043C444.782 241.711 444.969 245.633 444.127 249.397C442.739 255.963 437.798 262.071 443.225 263.417C448.652 264.763 451.831 257.768 454.329 252.784C456.828 247.801 458.133 241.277 459.257 237.516C460.381 233.754 462.033 229.881 462.033 229.881C459.594 229.129 457.374 227.794 455.565 225.993C453.756 224.191 452.413 221.977 451.65 219.54C448.513 210.809 448.694 204.854 443.988 203.619C442.666 203.214 441.252 203.221 439.934 203.637C438.615 204.053 437.454 204.86 436.604 205.951Z" fill="white" stroke="#263238" stroke-linecap="round" stroke-linejoin="round"/>
<path d="M440.712 231.824C440.712 231.824 441.184 235.642 445.473 233.518" stroke="#263238" stroke-linecap="round" stroke-linejoin="round"/>
<path d="M445.848 199.51C445.848 199.51 441.018 199.191 437.797 198.899C434.577 198.608 433.3 203.064 434.05 205.521C434.799 207.977 435.535 208.297 435.535 208.297C435.535 208.297 440.005 205.701 440.449 207.464C440.893 209.227 436.756 212.711 438.936 215.64C441.115 218.568 444.599 220.859 442.808 222.913C441.018 224.967 441.92 226.897 443.502 226.703C445.085 226.508 447.209 223.51 448.069 226.814C448.93 230.117 444.918 232.671 445.779 234.17C446.639 235.669 454.871 237.599 457.175 235.947C459.479 234.295 465.212 232.685 467.919 223.232C470.625 213.78 467.919 207.047 462.228 201.134C456.536 195.221 446.806 199.843 446.806 199.843L445.848 199.51Z" fill="#263238" stroke="#263238" stroke-linecap="round" stroke-linejoin="round"/>
<path d="M454.649 207.103C455.55 207.539 456.394 208.084 457.161 208.727" stroke="white" stroke-width="0.75" stroke-linecap="round" stroke-linejoin="round"/>
<path d="M440.504 205.604C444.478 204.905 448.558 205.109 452.442 206.201" stroke="white" stroke-width="0.75" stroke-linecap="round" stroke-linejoin="round"/>
<path d="M390.006 316.636L390.686 315.053C391.367 313.471 398.626 312.124 405.802 311.097C417.421 309.445 423.098 307.585 429.83 306.225C438.158 304.532 447.014 302.38 447.014 302.38C447.014 302.38 461.95 305.767 459.507 310.709C457.064 315.65 450.221 316.594 450.221 316.594H393.504C393.633 317.269 393.507 317.967 393.15 318.554C392.794 319.141 392.233 319.575 391.575 319.773" fill="white"/>
<path d="M390.006 316.636L390.686 315.053C391.367 313.471 398.626 312.124 405.802 311.097C417.421 309.445 423.098 307.585 429.83 306.225C438.158 304.532 447.014 302.38 447.014 302.38C447.014 302.38 461.95 305.767 459.507 310.709C457.064 315.65 450.221 316.594 450.221 316.594H393.504C393.633 317.269 393.507 317.967 393.15 318.554C392.794 319.141 392.233 319.575 391.575 319.773" stroke="#263238" stroke-linecap="round" stroke-linejoin="round"/>
<path d="M456.3 275.452C456.3 275.452 453.358 288.583 451.539 291.97C449.721 295.357 445.89 294.232 446.112 296.273C446.306 297.674 446.689 299.042 447.25 300.34C447.25 300.34 444.474 300.34 444.474 301.478C444.474 302.616 447.639 306.683 451.72 308.71C455.801 310.736 458.73 313.013 460.534 310.75C462.339 308.488 464.157 304.185 463.935 303.282C463.713 302.38 465.517 303.963 467.1 301.894C467.675 301.168 468.096 300.331 468.335 299.436C468.573 298.541 468.625 297.606 468.488 296.689C468.488 294.885 474.359 280.185 475.039 278.825" fill="#92E3A9"/>
<path d="M456.3 275.452C456.3 275.452 453.358 288.583 451.539 291.97C449.721 295.357 445.89 294.232 446.112 296.273C446.306 297.674 446.689 299.042 447.25 300.34C447.25 300.34 444.474 300.34 444.474 301.478C444.474 302.616 447.639 306.683 451.72 308.71C455.801 310.736 458.73 313.013 460.534 310.75C462.339 308.488 464.157 304.185 463.935 303.282C463.713 302.38 465.517 303.963 467.1 301.894C467.675 301.168 468.096 300.331 468.335 299.436C468.573 298.541 468.626 297.606 468.488 296.689C468.488 294.885 474.359 280.185 475.039 278.825" stroke="#263238" stroke-linecap="round" stroke-linejoin="round"/>
<path d="M451.97 298.743C455.869 299.353 459.694 300.372 463.38 301.783" stroke="#263238" stroke-width="0.75" stroke-linecap="round" stroke-linejoin="round"/>
<path d="M448.555 297.98C448.555 297.98 452.719 304.823 459.202 305.961" stroke="#263238" stroke-width="0.75" stroke-linecap="round" stroke-linejoin="round"/>
<path d="M464.976 215.223C464.976 215.223 465.42 222.011 459.548 232.644C453.677 243.276 445.515 263.639 451.401 274.716C457.286 285.793 473.346 283.544 477.871 273.592C482.396 263.639 479.453 238.293 474.706 227.66C469.959 217.028 467.919 213.183 467.919 213.183C467.919 213.183 465.142 211.822 464.976 215.223Z" fill="#263238" stroke="#263238" stroke-linecap="round" stroke-linejoin="round"/>
<path d="M467.141 276.173C469.33 276.151 471.444 275.371 473.124 273.966" stroke="white" stroke-width="0.75" stroke-linecap="round" stroke-linejoin="round"/>
<path d="M466.184 219.485C467.416 232.817 466.001 246.261 462.019 259.045C459.479 266.79 459.854 272.079 463.005 274.647" stroke="white" stroke-width="0.75" stroke-linecap="round" stroke-linejoin="round"/>
<path d="M465.489 227.813C465.489 227.813 458.549 245.511 452.997 257.657C447.444 269.802 452.303 277.437 460.631 279.172" stroke="white" stroke-width="0.75" stroke-linecap="round" stroke-linejoin="round"/>
<path d="M442.198 318.385C442.198 318.385 441.17 329.933 443.308 331.53C445.446 333.126 460.909 337.942 471.069 334.736" stroke="#263238" stroke-linecap="round" stroke-linejoin="round"/>
<path d="M429.969 323.049L439.574 324.659" stroke="#263238" stroke-linecap="round" stroke-linejoin="round"/>
<path d="M392.255 431.929C395.545 430.541 399.195 424.738 402.763 424.988C406.552 425.21 407.024 423.392 407.024 419.644C406.91 418.097 406.48 416.591 405.761 415.216C405.664 415.383 405.566 415.536 405.469 415.716C403.261 420.067 399.487 423.42 394.906 425.099C393.018 425.809 390.937 425.809 389.048 425.099L388.604 425.28C388.354 425.544 388.091 425.793 387.813 426.057C386.855 426.932 381.289 430.846 381.928 432.65C382.983 435.593 390.436 432.706 392.255 431.929Z" fill="#92E3A9" stroke="#263238" stroke-linecap="round" stroke-linejoin="round"/>
<path d="M345.241 393.021C343.853 393.521 342.465 393.951 341.229 394.27C336.829 395.45 335.08 396.325 335.677 397.504C336.274 398.684 345.394 400.725 349.461 401.322C353.528 401.919 356.207 400.725 357.387 400.725C358.566 400.725 360.024 402.196 362.37 401.322C364.341 400.572 363.619 396.13 363.341 392.646C360.262 393.635 357.082 394.282 353.861 394.576C347.892 395.048 345.768 393.59 345.241 393.021Z" fill="#92E3A9" stroke="#263238" stroke-linecap="round" stroke-linejoin="round"/>
<path d="M467.794 412.44L467.613 412.301V386.747H471.278V370.59H457.689V386.747H461.367V412.773L428.872 423.128V425.71C428.923 426.454 429.255 427.15 429.8 427.659C430.345 428.168 431.062 428.451 431.808 428.451C432.553 428.451 433.271 428.168 433.816 427.659C434.361 427.15 434.693 426.454 434.744 425.71V425.266L461.922 422.101V426.002C461.922 426.683 462.193 427.336 462.674 427.817C463.156 428.299 463.809 428.57 464.49 428.57C465.171 428.57 465.824 428.299 466.306 427.817C466.787 427.336 467.058 426.683 467.058 426.002V421.976L495.333 425.266V425.641C495.384 426.384 495.716 427.081 496.261 427.59C496.806 428.099 497.523 428.381 498.269 428.381C499.014 428.381 499.732 428.099 500.277 427.59C500.822 427.081 501.153 426.384 501.205 425.641V423.059L467.794 412.44Z" fill="#263238" stroke="#263238" stroke-linecap="round" stroke-linejoin="round"/>
<path d="M504.703 354.822H427.665C424.598 354.822 422.112 357.307 422.112 360.374V368.008C422.112 371.075 424.598 373.56 427.665 373.56H504.703C507.769 373.56 510.255 371.075 510.255 368.008V360.374C510.255 357.307 507.769 354.822 504.703 354.822Z" fill="#263238" stroke="#263238" stroke-linecap="round" stroke-linejoin="round"/>
<path d="M349.586 313.207H387.702V269.178H349.586V313.207Z" fill="white" stroke="#263238" stroke-linecap="round" stroke-linejoin="round"/>
<path d="M390.659 315.178H347.615V275.424H367.991L390.659 315.178Z" fill="white" stroke="#263238" stroke-linecap="round" stroke-linejoin="round"/>
<path d="M338.384 317.399H363.008C363.454 317.36 363.869 317.155 364.171 316.825C364.474 316.494 364.641 316.063 364.641 315.615C364.641 315.168 364.474 314.736 364.171 314.406C363.869 314.076 363.454 313.871 363.008 313.832H338.384C337.796 313.828 337.214 313.703 336.677 313.465C336.139 313.226 335.657 312.878 335.261 312.444C334.778 311.917 334.439 311.276 334.277 310.58C334.114 309.885 334.132 309.16 334.331 308.474L343.062 277.173C343.189 276.718 343.13 276.232 342.898 275.82C342.666 275.409 342.281 275.107 341.826 274.98C341.372 274.853 340.885 274.911 340.474 275.143C340.063 275.375 339.76 275.76 339.633 276.215L330.888 307.516C330.567 308.672 330.518 309.886 330.744 311.065C330.97 312.243 331.465 313.353 332.191 314.308C332.916 315.263 333.853 316.038 334.927 316.572C336.001 317.106 337.184 317.384 338.384 317.385V317.399Z" fill="white" stroke="#263238" stroke-linecap="round" stroke-linejoin="round"/>
<path d="M350.043 308.132L355.625 307.462L346.977 235.369L341.395 236.039L350.043 308.132Z" fill="white" stroke="#263238" stroke-linecap="round" stroke-linejoin="round"/>
<path d="M341.438 236.003C335.972 260.314 339.02 285.765 350.071 308.099L341.438 236.003Z" fill="white" stroke="#263238" stroke-linecap="round" stroke-linejoin="round"/>
<path d="M542.625 317.233H317.41V444.241H542.625V317.233Z" fill="#F4C201"/>
<path d="M542.625 317.233H317.41V444.241H542.625V317.233Z" stroke="#263238" stroke-linecap="round" stroke-linejoin="round"/>
<path d="M542.458 320.286H317.521V323.798H542.458V320.286Z" fill="#263238"/>
<path d="M544.263 315.15H312.496V320.703H544.263V315.15Z" fill="white" stroke="#263238" stroke-linecap="round" stroke-linejoin="round"/>
<path d="M174.05 304.573L170.58 307.349C170.58 307.349 160.697 312.555 158.781 314.109C156.866 315.664 158.268 317.232 159.309 319.148C160.35 321.064 165.375 323.132 167.11 323.132C168.845 323.132 176.826 319.315 178.048 317.066C179.269 314.817 180.477 306.822 180.477 306.822L174.05 304.573Z" fill="white" stroke="#263238" stroke-linecap="round" stroke-linejoin="round"/>
<path d="M172.26 312.374L171.746 316.538C171.746 316.538 164.625 320.703 165.319 321.924C166.013 323.146 166.707 322.785 170.872 321.577C175.036 320.37 177.812 318.107 177.992 317.066" stroke="#263238" stroke-linecap="round" stroke-linejoin="round"/>
<path d="M164.681 311.514L166.416 319.662" stroke="#263238" stroke-linecap="round" stroke-linejoin="round"/>
<path d="M160.864 313.415L164.514 322.271" stroke="#263238" stroke-linecap="round" stroke-linejoin="round"/>
<path d="M159.309 314.803C159.309 314.803 160.17 319.661 162.252 321.23" stroke="#263238" stroke-linecap="round" stroke-linejoin="round"/>
<path d="M175.272 299.021L173.884 305.267L180.477 306.822L183.42 299.882L175.272 299.021Z" fill="#92E3A9" stroke="#263238" stroke-linecap="round" stroke-linejoin="round"/>
<path d="M165.319 228.66C164.752 232.735 164.935 236.88 165.861 240.889C167.415 246.274 174.009 272.995 174.883 274.896C175.758 276.798 175.577 279.755 175.05 282.878C174.522 286.001 176.618 293.469 176.618 293.982C176.618 294.496 173.662 296.592 173.495 298.674C173.328 300.756 176.785 302.144 179.908 302.491C183.031 302.838 185.113 302.491 187.029 293.816C188.944 285.14 183.378 273.508 179.908 259.808C176.438 246.108 171.76 236.03 171.066 233.254C170.372 230.478 166.374 225.453 165.319 228.66Z" fill="#92E3A9" stroke="#263238" stroke-linecap="round" stroke-linejoin="round"/>
<path d="M201.645 418.104C201.645 418.104 205.115 422.726 204.421 424.114C203.727 425.502 196.551 427.584 195.163 428.75C193.12 430.783 190.562 432.223 187.764 432.914C183.364 434.066 172.718 435.912 173.884 434.066C175.05 432.22 188.222 422.726 188.222 422.726C192.614 420.954 197.094 419.411 201.645 418.104Z" fill="white" stroke="#263238" stroke-linecap="round" stroke-linejoin="round"/>
<path d="M203.547 423.073C203.547 423.073 195.76 425.849 193.261 427.792C191.784 428.955 190.204 429.982 188.542 430.86" stroke="#263238" stroke-width="0.75" stroke-linecap="round" stroke-linejoin="round"/>
<path d="M194.927 403.529L201.645 418.104C201.645 418.104 201.409 419.034 197.245 420.88C194.375 422.038 191.317 422.664 188.222 422.726L185.21 411.857L194.927 403.529Z" fill="#263238" stroke="#263238" stroke-linecap="round" stroke-linejoin="round"/>
<path d="M183.6 295.495C183.6 295.495 178.27 298.729 178.048 300.118C178.127 302.149 178.435 304.165 178.964 306.128C178.964 306.128 168.095 328.809 164.861 334.583C161.627 340.358 156.991 351.698 161.613 358.875C166.235 366.051 180.13 399.823 180.13 399.823L175.494 425.738L187.292 428.75C187.292 428.75 194.469 409.317 197.009 402.141C199.549 394.964 205.573 376.461 206.503 369.979C207.433 363.497 208.113 354.252 208.349 353.558C208.585 352.864 228.712 323.479 231.489 316.774C234.265 310.07 234.029 295.953 232.641 292.941C231.253 289.929 183.6 295.495 183.6 295.495Z" fill="#263238" stroke="#263238" stroke-linecap="round" stroke-linejoin="round"/>
<path d="M197.481 303.352L191.235 306.364L197.939 310.75L187.528 309.362L198.397 313.526" stroke="white" stroke-width="0.75" stroke-linecap="round" stroke-linejoin="round"/>
<path d="M214.596 306.364L201.867 311.444C201.867 311.444 217.83 308.432 225.006 308.668" stroke="#263238" stroke-linecap="round" stroke-linejoin="round"/>
<path d="M200.021 314.692C200.021 314.692 184.058 349.63 184.058 356.099C184.058 362.567 181.74 398.213 181.74 398.213" stroke="white" stroke-width="0.75" stroke-linecap="round" stroke-linejoin="round"/>
<path d="M187.168 215.945C187.168 215.945 165.833 226.466 165.361 228.66C164.889 230.853 167.401 237.127 167.401 237.127C167.401 237.127 180.574 279.977 181.671 283.433C182.767 286.889 183.239 287.666 182.143 289.388C181.046 291.109 179.63 294.26 181.199 295.981C182.767 297.702 193.289 300.853 200.035 300.853C206.781 300.853 218.871 298.813 226.714 296.925C234.556 295.037 234.251 291.595 233.932 287.986C233.612 284.377 229.073 222.538 229.073 220.179C229.073 217.819 212.417 214.376 206.781 214.057C201.145 213.738 189.055 214.057 187.168 215.945Z" fill="#92E3A9" stroke="#263238" stroke-linecap="round" stroke-linejoin="round"/>
<path d="M189.472 226.633L194.871 241.902L203.547 226.425C203.547 226.425 201.201 218.929 194.871 219.401C188.542 219.873 189.472 226.633 189.472 226.633Z" fill="#263238" stroke="#263238" stroke-linecap="round" stroke-linejoin="round"/>
<path d="M194.871 241.874C194.871 241.874 192.095 284.307 192.095 286.417C192.095 288.527 189.985 295.329 189.985 295.329L194.677 300.714C194.677 300.714 202.173 295.329 203.352 291.345C204.532 287.361 194.871 241.874 194.871 241.874Z" fill="#263238" stroke="#263238" stroke-linecap="round" stroke-linejoin="round"/>
<path d="M187.168 214.529C187.168 214.529 186.071 221.122 186.696 223.954C187.32 226.786 184.655 233.212 185.918 233.99C187.181 234.767 191.401 226.3 191.401 226.3L196.121 234.309L199.258 225.828C199.258 225.828 203.644 234.462 204.907 233.684C206.17 232.907 204.116 227.563 206.004 224.898C206.993 223.245 207.627 221.404 207.866 219.492C208.105 217.58 207.944 215.639 207.392 213.793C206.281 209.56 201.742 209.56 197.967 210.018C194.191 210.476 189.833 210.448 187.168 214.529Z" fill="#92E3A9" stroke="#263238" stroke-linecap="round" stroke-linejoin="round"/>
<path d="M187.167 215.945C187.167 215.945 192.192 222.885 193.136 226.147C194.08 229.409 195.482 236.349 196.121 234.309C196.759 232.269 196.426 224.426 200.201 220.026C203.977 215.626 202.978 212.489 202.978 212.489C202.978 212.489 198.161 218.443 187.167 215.945Z" fill="white" stroke="#263238" stroke-linecap="round" stroke-linejoin="round"/>
<path d="M177.132 203.397C177.132 203.397 183.239 215.473 189.527 218.666C195.815 221.858 202.395 218.513 204.116 213.655C205.837 208.796 204.269 202.55 204.269 202.55C204.269 202.55 207.725 200.51 208.197 197.845C208.669 195.179 209.141 194.236 205.532 192.195C204.145 191.309 202.671 190.569 201.131 189.988C201.131 189.988 200.979 184.658 197.842 182.937C194.705 181.215 188.125 182.145 184.183 186.379C180.241 190.613 177.132 203.397 177.132 203.397Z" fill="white" stroke="#263238" stroke-linecap="round" stroke-linejoin="round"/>
<path d="M187.528 202.134C188.622 203.691 189.517 205.379 190.194 207.158C190.513 208.727 189.25 210.615 191.137 210.615C191.694 210.614 192.245 210.502 192.758 210.285C193.27 210.068 193.734 209.751 194.122 209.352" stroke="#263238" stroke-linecap="round" stroke-linejoin="round"/>
<path d="M191.082 197.372C191.082 197.372 191.873 194.596 195.538 195.138" stroke="#263238" stroke-linecap="round" stroke-linejoin="round"/>
<path d="M185.044 199.857C185.044 199.857 182.268 199.08 179.658 202.356" stroke="#263238" stroke-linecap="round" stroke-linejoin="round"/>
<path d="M192.387 210.628L193.442 213.752C194.948 213.456 196.339 212.737 197.452 211.68C198.566 210.624 199.356 209.272 199.73 207.783" stroke="#263238" stroke-linecap="round" stroke-linejoin="round"/>
<path d="M188.264 205.354C188.264 206.208 188.011 207.042 187.537 207.752C187.062 208.462 186.388 209.016 185.599 209.342C184.81 209.669 183.942 209.755 183.105 209.588C182.268 209.421 181.498 209.01 180.895 208.407C180.291 207.803 179.88 207.034 179.713 206.196C179.547 205.359 179.632 204.491 179.959 203.702C180.286 202.913 180.839 202.239 181.549 201.765C182.259 201.29 183.093 201.037 183.947 201.037C184.514 201.037 185.075 201.149 185.599 201.366C186.123 201.583 186.599 201.901 187 202.301C187.401 202.702 187.718 203.178 187.935 203.702C188.152 204.226 188.264 204.787 188.264 205.354V205.354Z" stroke="#263238" stroke-width="0.5" stroke-linecap="round" stroke-linejoin="round"/>
<path d="M199.091 199.468L203.81 195.235" stroke="#263238" stroke-width="0.5" stroke-linecap="round" stroke-linejoin="round"/>
<path d="M199.258 200.801C199.258 201.655 199.004 202.489 198.53 203.199C198.056 203.909 197.381 204.463 196.593 204.789C195.804 205.116 194.936 205.202 194.098 205.035C193.261 204.868 192.492 204.457 191.888 203.854C191.284 203.25 190.873 202.481 190.707 201.643C190.54 200.806 190.626 199.938 190.952 199.149C191.279 198.36 191.832 197.686 192.542 197.212C193.252 196.737 194.087 196.484 194.941 196.484C196.086 196.484 197.184 196.939 197.993 197.749C198.803 198.558 199.258 199.656 199.258 200.801V200.801Z" stroke="#263238" stroke-width="0.5" stroke-linecap="round" stroke-linejoin="round"/>
<path d="M196.218 200.315C196.44 200.801 196.357 201.328 196.023 201.481C195.69 201.634 195.246 201.342 195.024 200.843C194.802 200.343 194.885 199.829 195.218 199.677C195.551 199.524 195.996 199.815 196.218 200.315Z" fill="#263238"/>
<path d="M186.557 204.188C186.779 204.688 186.696 205.215 186.362 205.354C186.029 205.493 185.585 205.229 185.363 204.729C185.141 204.23 185.224 203.716 185.557 203.563C185.89 203.411 186.335 203.688 186.557 204.188Z" fill="#263238"/>
<path d="M187.528 203.702C187.528 203.702 189.25 201.509 190.818 202.453" stroke="#263238" stroke-width="0.5" stroke-linecap="round" stroke-linejoin="round"/>
<path d="M190.152 189.294C190.152 189.294 184.822 195.096 180.741 200.399C179.265 202.501 177.637 204.491 175.869 206.353C174.9 204.565 174.06 202.709 173.356 200.801C172.858 199.306 172.283 197.837 171.635 196.401L170.247 199.538C170.247 199.538 166.166 184.269 170.566 177.259C174.966 170.25 184.905 168.404 192.442 171.069C199.979 173.734 201.007 180.716 202.422 184.325C203.838 187.934 205.087 192.473 205.087 192.473L203.047 196.873C203.047 196.873 199.285 193.583 197.398 191.848C196.222 190.727 195.357 189.321 194.885 187.767C194.885 187.767 191.748 191.543 190.804 192.639C190.298 193.249 189.65 193.726 188.916 194.027L190.152 189.294Z" fill="#263238" stroke="#263238" stroke-linecap="round" stroke-linejoin="round"/>
<path d="M191.609 174.483C189.905 181.489 186.364 187.915 181.351 193.097" stroke="white" stroke-width="0.75" stroke-linecap="round" stroke-linejoin="round"/>
<path d="M193.511 175.621C193.877 179.647 193.223 183.7 191.609 187.406" stroke="white" stroke-width="0.75" stroke-linecap="round" stroke-linejoin="round"/>
<path d="M227.782 218.652C227.782 218.652 233.834 220.234 235.944 223.135C238.054 226.036 252.268 266.054 252.796 272.897C253.323 279.741 251.213 293.954 251.741 295.537C252.268 297.119 253.85 299.229 252.268 300.02C250.828 300.909 249.5 301.967 248.312 303.171C244.876 303.004 241.452 302.651 238.054 302.116C236.472 301.589 234.362 298.174 235.944 296.064C237.09 294.646 237.739 292.89 237.79 291.067C237.79 290.012 234.501 277.062 234.501 274.41C234.51 271.999 234.381 269.589 234.112 267.192C233.185 263.334 232.045 259.529 230.697 255.796C226.473 248.126 224.374 239.467 224.618 230.714" fill="#92E3A9"/>
<path d="M227.782 218.652C227.782 218.652 233.834 220.234 235.944 223.135C238.054 226.036 252.268 266.054 252.796 272.897C253.323 279.741 251.213 293.954 251.741 295.537C252.268 297.119 253.85 299.229 252.268 300.02C250.828 300.909 249.5 301.967 248.312 303.171C244.876 303.004 241.452 302.651 238.054 302.116C236.472 301.589 234.362 298.174 235.944 296.064C237.09 294.646 237.739 292.89 237.79 291.067C237.79 290.012 234.501 277.062 234.501 274.41C234.51 271.999 234.381 269.589 234.112 267.192C233.185 263.334 232.045 259.529 230.697 255.796C226.473 248.126 224.374 239.467 224.618 230.714" stroke="#263238" stroke-linecap="round" stroke-linejoin="round"/>
<path d="M238.11 302.116L237.582 307.127L246.272 308.432L248.368 303.171L238.11 302.116Z" fill="#92E3A9" stroke="#263238" stroke-linecap="round" stroke-linejoin="round"/>
<path d="M237.582 307.127C237.582 307.127 227.574 311.597 226.783 312.915C225.992 314.234 224.409 320.55 223.355 321.341C222.3 322.132 221.259 323.187 224.146 322.923C227.033 322.66 227.838 321.077 227.838 321.077C227.701 322.049 227.701 323.035 227.838 324.006C230.007 324.269 232.191 324.403 234.376 324.409C235.03 324.495 235.693 324.495 236.347 324.409C236.347 324.409 235.819 325.672 236.805 326.088C237.79 326.505 237.735 325.561 238.373 324.7C239.141 323.268 239.796 321.779 240.331 320.244C240.652 319.463 240.885 318.648 241.025 317.815C242.609 316.959 244.055 315.869 245.314 314.581C246.702 312.902 245.952 308.043 245.952 308.043L237.582 307.127Z" fill="white" stroke="#263238" stroke-linecap="round" stroke-linejoin="round"/>
<path d="M227.838 321.077L228.365 314.456" stroke="#263238" stroke-linecap="round" stroke-linejoin="round"/>
<path d="M230.448 324.353L231.308 314.984" stroke="#263238" stroke-linecap="round" stroke-linejoin="round"/>
<path d="M233.737 324.173L235.125 315.497" stroke="#263238" stroke-linecap="round" stroke-linejoin="round"/>
<path d="M236.402 324.353C236.402 324.353 237.554 316.886 237.79 316.025" stroke="#263238" stroke-linecap="round" stroke-linejoin="round"/>
<path d="M175.494 425.738C175.494 425.738 171.566 429.208 170.872 429.666C170.178 430.124 157.449 437.078 157.685 438.924C157.921 440.771 171.108 439.854 178.506 437.994C185.904 436.134 186.376 435.454 186.598 434.302C186.82 433.15 187.292 428.75 187.292 428.75L175.494 425.738Z" fill="white" stroke="#263238" stroke-linecap="round" stroke-linejoin="round"/>
<path d="M160.197 438.078C160.197 438.078 177.701 437.8 184.655 433.358" stroke="#263238" stroke-width="0.75" stroke-linecap="round" stroke-linejoin="round"/>
<path d="M81.2855 427.959C81.2855 427.959 96.0545 431.943 99.5802 434.996C103.106 438.05 92.5427 438.98 85.9771 438.744C79.4116 438.508 78.7176 436.634 74.0259 436.634C69.3342 436.634 65.1145 438.744 64.4065 434.524C63.6986 430.305 69.5702 428.667 73.5539 427.723C76.1125 427.178 78.7649 427.259 81.2855 427.959Z" fill="white" stroke="#263238" stroke-linecap="round" stroke-linejoin="round"/>
<path d="M77.024 434.747C77.024 434.747 84.2559 439.466 97.04 436.69" stroke="#263238" stroke-width="0.75" stroke-linecap="round" stroke-linejoin="round"/>
<path d="M66.5164 430.305C70.1026 432.629 73.8667 434.667 77.7736 436.398C82.9373 438.508 86.685 439.174 84.3392 441.09C81.9934 443.006 81.2854 443.2 75.4278 444.366C69.5701 445.532 57.8409 442.492 56.675 442.492C55.509 442.492 54.3291 443.88 51.1227 442.728C47.9162 441.576 47.3749 439.952 48.5409 436.162C49.7068 432.373 64.6425 429.125 66.5164 430.305Z" fill="white" stroke="#263238" stroke-linecap="round" stroke-linejoin="round"/>
<path d="M54.5234 440.021C63.3836 443.156 73.0014 443.447 82.035 440.854" stroke="#263238" stroke-width="0.75" stroke-linecap="round" stroke-linejoin="round"/>
<path d="M99.1083 267.845L101.884 297.383C101.884 297.383 97.8868 339.816 92.9731 353.642C88.0593 367.467 83.5897 382.708 81.9518 388.343C80.3139 393.979 78.6759 416.008 80.0779 420.449C80.8686 422.547 81.2639 424.773 81.2439 427.015V427.959C81.2439 427.959 82.1878 428.667 78.898 430.541C76.5455 431.775 74.0175 432.641 71.4024 433.109L66.4748 430.333C66.4748 430.333 59.4512 435.482 56.8693 436.898C54.1602 438.015 51.3268 438.803 48.4299 439.244C47.3524 437.545 46.7221 435.602 46.5976 433.594V424.461C46.5976 421.171 44.2518 405.028 44.4877 395.159C44.7237 385.29 46.5976 374.518 48.4715 369.604C50.3454 364.691 56.675 349.672 56.675 349.672C56.3684 343.312 55.344 337.007 53.6213 330.877C50.5814 318.926 49.8735 312.832 45.8897 299.937C41.9059 287.042 49.8735 268.012 49.8735 268.012C49.8735 268.012 68.3903 271.287 78.4816 270.788C85.427 270.382 92.3265 269.397 99.1083 267.845Z" fill="#263238" stroke="#263238" stroke-linecap="round" stroke-linejoin="round"/>
<path d="M63.9901 293.163C65.015 294.979 66.1897 296.706 67.5019 298.327" stroke="white" stroke-width="0.75" stroke-linecap="round" stroke-linejoin="round"/>
<path d="M76.6077 275.119L84.3392 275.355L84.1032 273.467" stroke="white" stroke-width="0.75" stroke-linecap="round" stroke-linejoin="round"/>
<path d="M87.157 273.966V275.84C87.157 275.84 93.7087 277.492 98.8723 274.674" stroke="white" stroke-width="0.75" stroke-linecap="round" stroke-linejoin="round"/>
<path d="M94.6525 278.131L92.7787 285.404L95.8185 289.568C95.8185 289.568 91.3767 297.3 91.3767 298.008" stroke="white" stroke-width="0.75" stroke-linecap="round" stroke-linejoin="round"/>
<path d="M96.0546 299.493L88.323 305.892C88.323 305.892 83.6314 345.743 81.0495 356.057C78.4677 366.37 68.8623 399.892 67.6963 407.415C67.0424 411.058 66.579 414.732 66.3082 418.423C66.3082 419.131 67.6963 421.713 67.6963 423.114V428.514" stroke="white" stroke-width="0.75" stroke-linecap="round" stroke-linejoin="round"/>
<path d="M73.0819 272.065C73.0819 272.065 87.157 273.938 93.4866 273.453C99.8162 272.967 100.746 270.413 101.454 268.067C102.162 265.721 93.0146 209.935 92.5427 206.645C92.0707 203.355 92.7786 197.969 88.3785 196.095C83.9783 194.222 74.4978 197.484 72.9015 203.841C71.3052 210.198 76.4272 246.968 75.0113 254.936C74.0695 260.608 73.4255 266.325 73.0819 272.065Z" fill="white" stroke="#263238" stroke-linecap="round" stroke-linejoin="round"/>
<path d="M85.2693 207.131L88.795 213.46L89.961 265.971L94.1807 276.048L97.6925 263.625L90.9049 212.988L91.8349 205.493L89.031 199.399L85.2693 207.131Z" fill="#263238" stroke="#263238" stroke-linecap="round" stroke-linejoin="round"/>
<path d="M89.9609 204.549L94.1807 211.822L92.0708 198.455L87.8511 201.037L89.9609 204.549Z" fill="white" stroke="#263238" stroke-linecap="round" stroke-linejoin="round"/>
<path d="M79.6475 183.922L78.4816 189.308L88.087 206.423C88.087 206.423 90.9603 200.038 92.0708 198.455C93.1812 196.873 97.6231 189.919 97.6231 189.919C97.6231 189.919 90.5023 190.488 89.2946 186.268C88.087 182.048 89.2946 176.191 84.8389 175.719C80.3832 175.247 79.6475 183.922 79.6475 183.922Z" fill="white" stroke="#263238" stroke-linecap="round" stroke-linejoin="round"/>
<path d="M84.3114 180.605L84.7695 182.187C84.5176 182.967 84.4442 183.794 84.5547 184.606C84.6652 185.418 84.9569 186.195 85.408 186.879C86.9627 188.864 95.6936 193.653 99.5108 192.528C103.328 191.404 104.494 180.327 104.494 180.327C104.494 180.327 108.145 180.244 107.77 178.148C107.395 176.052 105.271 173.762 104.994 171.374C104.716 168.987 106.063 168.376 105.507 165.614C105.156 162.865 103.728 160.369 101.537 158.673C99.0111 156.73 85.1998 162.962 81.105 167.335C77.0102 171.707 76.1635 176.343 77.1768 178.981C78.1901 181.618 84.3114 180.605 84.3114 180.605Z" fill="white" stroke="#263238" stroke-linecap="round" stroke-linejoin="round"/>
<path d="M101.968 172.429C101.968 173.29 101.593 173.956 101.246 173.942C100.899 173.928 100.677 173.206 100.732 172.36C100.788 171.513 101.107 170.833 101.454 170.847C101.801 170.861 102.023 171.582 101.968 172.429Z" fill="#263238"/>
<path d="M102.939 168.473C102.939 168.473 101.19 166.863 99.4137 169.5" stroke="#263238" stroke-linecap="round" stroke-linejoin="round"/>
<path d="M99.733 183.742C98.8674 183.507 98.1112 182.976 97.5953 182.243" stroke="#263238" stroke-linecap="round" stroke-linejoin="round"/>
<path d="M86.0187 170.583L85.5607 174.872L88.2674 174.081C88.2674 174.081 86.8794 177.44 88.7949 175.885C90.7104 174.331 93.4172 169.153 94.2639 168.667C95.1106 168.182 99.8162 163.615 103.092 160.464C106.368 157.313 107.756 153.01 106.645 150.886C105.535 148.762 92.0985 139.504 79.828 146.014C67.5574 152.524 64.2399 162.046 65.5308 167.293C66.8217 172.54 76.6354 186.254 78.4538 186.462C80.2721 186.671 84.3114 180.605 84.3114 180.605C84.3114 180.605 79.0229 179.217 80.1472 176.954C81.2715 174.692 86.0187 170.583 86.0187 170.583Z" fill="#263238" stroke="#263238" stroke-linecap="round" stroke-linejoin="round"/>
<path d="M78.0096 171.749C76.4052 172.889 74.7161 173.905 72.957 174.789" stroke="white" stroke-width="0.75" stroke-linecap="round" stroke-linejoin="round"/>
<path d="M99.8995 149.109C94.9607 155.883 89.332 162.126 83.1039 167.737" stroke="white" stroke-width="0.75" stroke-linecap="round" stroke-linejoin="round"/>
<path d="M74.3035 168.251C73.776 168.737 73.2346 169.237 72.6655 169.736" stroke="white" stroke-width="0.75" stroke-linecap="round" stroke-linejoin="round"/>
<path d="M89.7805 149.692C86.1601 155.496 81.8692 160.854 76.9963 165.655" stroke="white" stroke-width="0.75" stroke-linecap="round" stroke-linejoin="round"/>
<path d="M78.0097 187.434L89.961 204.549L81.2855 213.224L75.1919 189.78L78.0097 187.434Z" fill="white" stroke="#263238" stroke-linecap="round" stroke-linejoin="round"/>
<path d="M71.916 191.196L55.509 196.582C55.509 196.582 42.6138 258.004 41.6283 259.642C40.6428 261.279 23.8193 291.567 25.9292 294.801C28.0391 298.036 48.1383 308.876 49.8318 308.169C51.5252 307.461 63.4349 284.724 70.6528 278.158C77.8708 271.593 85.2692 263.389 86.1992 254.256L79.8696 227.286L79.1617 210.407L71.916 191.196Z" fill="#92E3A9" stroke="#263238" stroke-linecap="round" stroke-linejoin="round"/>
<path d="M76.6077 189.78L71.9161 191.196L70.7362 214.168L78.7176 218.624L74.0259 225.648L86.2132 254.256L81.2855 209.948L76.6077 189.78Z" fill="#92E3A9" stroke="#263238" stroke-linecap="round" stroke-linejoin="round"/>
<path d="M61.436 288.916L42.7109 305.212C42.7109 305.212 44.5571 307.433 49.8734 308.168C49.8734 308.168 58.2018 296.786 61.436 288.916Z" fill="#92E3A9" stroke="#263238" stroke-linecap="round" stroke-linejoin="round"/>
<path d="M64.4065 275.354C67.5449 275.408 70.6777 275.64 73.7899 276.049C75.4278 276.52 81.7574 283.086 81.7574 283.086C81.7574 283.086 81.7574 283.794 79.4116 284.474C77.0657 285.154 72.846 282.128 72.846 282.128L63.7125 290.804L58.0769 283.78L64.4065 275.354Z" fill="white" stroke="#263238" stroke-linecap="round" stroke-linejoin="round"/>
<path d="M63.7126 272.773L65.8224 275.577L58.077 283.78L57.147 280.74L63.7126 272.773Z" fill="white" stroke="#263238" stroke-linecap="round" stroke-linejoin="round"/>
<path d="M69.5423 193.07C69.5423 193.07 47.4998 193.07 45.8619 194.943C44.2239 196.817 26.873 249.328 26.873 252.368C26.873 255.408 56.6472 283.322 56.6472 283.322L65.0866 273.009L48.2355 246.51L61.6026 217.68" fill="#92E3A9"/>
<path d="M69.5423 193.07C69.5423 193.07 47.4998 193.07 45.8619 194.943C44.2239 196.817 26.873 249.328 26.873 252.368C26.873 255.408 56.6472 283.322 56.6472 283.322L65.0866 273.009L48.2355 246.51L61.6026 217.68" stroke="#263238" stroke-linecap="round" stroke-linejoin="round"/>
</svg>
