<svg width="47" height="47" viewBox="0 0 47 47" fill="none" xmlns="http://www.w3.org/2000/svg">
<path opacity="0.4" d="M35.842 21.8344C38.6309 21.4346 40.7723 19.0367 40.7702 16.1387C40.7623 13.2827 38.6738 10.9205 35.9425 10.48" stroke="#FF7F00" stroke-width="3" stroke-linecap="round" stroke-linejoin="round"/>
<path d="M39.542 28.5313C42.2451 28.9278 44.1337 29.8686 44.1391 31.8186C44.1428 33.1606 43.2572 34.035 41.8228 34.587" stroke="#FF7F00" stroke-width="3" stroke-linecap="round" stroke-linejoin="round"/>
<path fill-rule="evenodd" clip-rule="evenodd" d="M23.8613 29.402C17.4333 29.4198 11.9461 30.409 11.9568 34.299C11.9676 38.187 17.4263 39.1739 23.8883 39.156C30.3163 39.1382 35.8016 38.159 35.7908 34.267C35.78 30.375 30.3233 29.3841 23.8613 29.402Z" stroke="#FF7F00" stroke-width="3" stroke-linecap="round" stroke-linejoin="round"/>
<path opacity="0.4" fill-rule="evenodd" clip-rule="evenodd" d="M23.8454 23.8501C28.0634 23.8384 31.4739 20.4109 31.4622 16.1909C31.4506 11.973 28.0211 8.56245 23.8031 8.57413C19.5851 8.58581 16.1746 12.0153 16.1862 16.2332C16.1819 20.4373 19.5854 23.8479 23.7894 23.8502L23.8454 23.8501Z" stroke="#FF7F00" stroke-width="3" stroke-linecap="round" stroke-linejoin="round"/>
<path opacity="0.4" d="M11.8358 21.9007C9.04269 21.5164 6.89008 19.1304 6.87606 16.2324C6.86815 13.3764 8.94358 11.0027 11.6723 10.5471" stroke="#FF7F00" stroke-width="3" stroke-linecap="round" stroke-linejoin="round"/>
<path d="M8.17295 28.6182C5.47207 29.0297 3.5887 29.9809 3.5941 31.9309C3.59781 33.2729 4.48823 34.1424 5.92574 34.6865" stroke="#FF7F00" stroke-width="3" stroke-linecap="round" stroke-linejoin="round"/>
</svg>
