<svg width="82" height="82" viewBox="0 0 82 82" fill="none" xmlns="http://www.w3.org/2000/svg">
<path fill-rule="evenodd" clip-rule="evenodd" d="M79.3747 23.9134V57.8759C79.3747 70.4592 71.4997 79.3342 58.9163 79.3342H22.8747C10.2913 79.3342 2.45801 70.4592 2.45801 57.8759V23.9134C2.45801 11.3301 10.333 2.45923 22.8747 2.45923H58.9163C71.4997 2.45923 79.3747 11.3301 79.3747 23.9134Z" stroke="#F9A825" stroke-width="4.5" stroke-linecap="round" stroke-linejoin="round"/>
<path opacity="0.4" d="M13.0049 59.4621L19.3715 52.7413C21.584 50.3955 25.2715 50.283 27.6216 52.4913C27.6924 52.5621 31.5257 56.458 31.5257 56.458C33.8382 58.8121 37.6174 58.8496 39.9716 56.5413C40.1257 56.3913 49.6966 44.783 49.6966 44.783C52.1632 41.7871 56.5924 41.358 59.5924 43.8288C59.7924 43.9955 68.8341 53.2746 68.8341 53.2746" stroke="#F9A825" stroke-width="4.5" stroke-linecap="round" stroke-linejoin="round"/>
<path opacity="0.4" fill-rule="evenodd" clip-rule="evenodd" d="M33.9692 29.0547C33.9692 33.0922 30.6984 36.363 26.6609 36.363C22.6234 36.363 19.3525 33.0922 19.3525 29.0547C19.3525 25.0172 22.6234 21.7463 26.6609 21.7463C30.6984 21.7505 33.9692 25.0172 33.9692 29.0547Z" stroke="#F9A825" stroke-width="4.5" stroke-linecap="round" stroke-linejoin="round"/>
</svg>
