<svg width="35" height="41" viewBox="0 0 35 41" fill="none" xmlns="http://www.w3.org/2000/svg">
<path d="M15.9457 0.341901C16.7394 0.0717095 17.6141 0.0692876 18.4072 0.335086L31.7048 4.83217C33.1922 5.33604 34.1941 6.70124 34.1984 8.23319L34.2352 21.5148C34.2463 25.5407 32.7609 29.4427 30.0546 32.4922C28.8154 33.8896 27.2237 35.0919 25.1891 36.1696L18.0189 39.9593C17.7948 40.0759 17.548 40.1366 17.299 40.1373C17.052 40.138 16.8049 40.0787 16.5802 39.9633L9.37466 36.2113C7.33005 35.143 5.72965 33.9495 4.48477 32.565C1.75758 29.5266 0.246422 25.6308 0.235264 21.601C0.233016 20.789 0.910362 20.1271 1.74595 20.1248C2.58154 20.1225 3.26254 20.7806 3.26479 21.5926C3.274 24.9165 4.51775 28.125 6.76598 30.6307C7.76726 31.7459 9.08921 32.7222 10.8061 33.6174L17.2903 36.9934L23.7413 33.5836C25.4491 32.6809 26.7656 31.6973 27.7628 30.5725C29.993 28.0564 31.2169 24.8451 31.2077 21.5232L31.1709 8.24158C31.1701 7.95759 30.9842 7.7061 30.7102 7.61287L17.4126 3.11578C17.2663 3.06619 17.1037 3.06664 16.9557 3.11705L3.68525 7.68769C3.41178 7.78245 3.22725 8.03496 3.22804 8.31895L3.23856 12.1188C3.24081 12.9328 2.56347 13.5947 1.72788 13.597C0.892288 13.5993 0.211286 12.9412 0.209032 12.1272L0.198511 8.32734C0.194269 6.79538 1.19072 5.42465 2.67526 4.91255L15.9457 0.341901ZM22.5843 14.6018C23.1734 14.0262 24.1325 14.0235 24.7248 14.5959C25.317 15.1682 25.3196 16.1002 24.7305 16.6758L16.8856 24.3414C16.6024 24.6182 16.2179 24.7752 15.8166 24.7763C15.4132 24.7775 15.03 24.6225 14.7452 24.3473L10.9151 20.646C10.3228 20.0717 10.3202 19.1437 10.9093 18.5661C11.5005 17.9884 12.4575 17.9858 13.0498 18.5601L15.8068 21.2224L22.5843 14.6018Z" fill="#CB000B"/>
</svg>
