<svg width="33" height="30" viewBox="0 0 33 30" fill="none" xmlns="http://www.w3.org/2000/svg">
<path fill-rule="evenodd" clip-rule="evenodd" d="M26.0631 28.5871C29.1036 28.5787 31.5584 26.1086 31.55 23.0697L31.5378 18.6913C29.527 18.6969 27.9009 17.0798 27.8954 15.0706C27.8898 13.0598 29.5069 11.4353 31.5177 11.4297L31.5024 7.04653C31.4939 4.00762 29.0255 1.5512 25.9866 1.55961L6.99424 1.6122C3.95533 1.62062 1.49892 4.09067 1.50733 7.12958L1.51824 11.6539C3.52742 11.6483 5.15313 13.1228 5.1587 15.1336C5.16426 17.1427 3.54714 18.7688 1.53796 18.7744L1.55008 23.1528C1.55849 26.1917 4.02693 28.6481 7.06583 28.6397L26.0631 28.5871Z" stroke="#E31A1C" stroke-width="2" stroke-linecap="round" stroke-linejoin="round"/>
<path opacity="0.4" fill-rule="evenodd" clip-rule="evenodd" d="M16.5346 17.9714L19.3603 19.4474C19.625 19.5845 19.9342 19.3599 19.8831 19.0665L19.3344 15.9237L21.6131 13.6941C21.8265 13.4843 21.7072 13.123 21.4119 13.0801L18.255 12.6299L16.8346 9.77328C16.7025 9.50608 16.3215 9.50713 16.1892 9.77507L14.7847 12.6395L11.6319 13.1072C11.3369 13.1518 11.2196 13.5137 11.4342 13.7223L13.7236 15.9392L13.1923 19.085C13.1428 19.3787 13.4532 19.6016 13.7171 19.463L16.5346 17.9714Z" stroke="#E31A1C" stroke-linecap="round" stroke-linejoin="round"/>
</svg>
