<svg width="21" height="23" viewBox="0 0 21 23" fill="none" xmlns="http://www.w3.org/2000/svg">
<path fill-rule="evenodd" clip-rule="evenodd" d="M8.24204 15.2009C4.33599 15.2009 1 15.8633 1 18.5174C1 21.1714 4.31567 21.8577 8.24204 21.8577C12.1491 21.8577 15.4841 21.1942 15.4841 18.5413C15.4841 15.8884 12.1694 15.2009 8.24204 15.2009Z" stroke="#029244" stroke-width="2" stroke-linecap="round" stroke-linejoin="round"/>
<path opacity="0.4" fill-rule="evenodd" clip-rule="evenodd" d="M8.24234 11.4156C10.8061 11.4156 12.8841 9.08421 12.8841 6.20783C12.8841 3.33144 10.8061 1 8.24234 1C5.67963 1 3.60159 3.33144 3.60159 6.20783C3.59248 9.07395 5.65524 11.4054 8.21084 11.4156H8.24234Z" stroke="#029244" stroke-width="2" stroke-linecap="round" stroke-linejoin="round"/>
<path d="M17.7188 7.74829V12.3199" stroke="#029244" stroke-width="2" stroke-linecap="round" stroke-linejoin="round"/>
<path d="M19.8005 10.0339H15.6445" stroke="#029244" stroke-width="2" stroke-linecap="round" stroke-linejoin="round"/>
</svg>
