<svg width="25" height="24" viewBox="0 0 25 24" fill="none" xmlns="http://www.w3.org/2000/svg">
<path fill-rule="evenodd" clip-rule="evenodd" d="M17.9137 22.2557H7.62561C3.84654 22.2557 0.947367 21.031 1.77087 16.1017L2.72974 9.4214C3.23737 6.96183 4.9859 6.02051 6.52009 6.02051H19.0644C20.6211 6.02051 22.2681 7.03268 22.8547 9.4214L23.8136 16.1017C24.513 20.4743 21.6928 22.2557 17.9137 22.2557Z" stroke="#FF7F00" stroke-width="2" stroke-linecap="round" stroke-linejoin="round"/>
<path opacity="0.4" d="M18.083 5.77754C18.083 3.13903 15.6991 1.00006 12.7585 1.00006C11.3424 0.994717 9.9823 1.49568 8.97887 2.3922C7.97544 3.28873 7.41138 4.50697 7.41138 5.77754" stroke="#FF7F00" stroke-width="2" stroke-linecap="round" stroke-linejoin="round"/>
<path d="M16.4133 10.7574H16.3569" stroke="#FF7F00" stroke-width="2" stroke-linecap="round" stroke-linejoin="round"/>
<path d="M9.22755 10.7574H9.17114" stroke="#FF7F00" stroke-width="2" stroke-linecap="round" stroke-linejoin="round"/>
</svg>
