<svg width="25" height="20" viewBox="0 0 25 20" fill="none" xmlns="http://www.w3.org/2000/svg">
<path opacity="0.4" d="M11.0332 15.035L1.4082 15.0617" stroke="#029244" stroke-width="2" stroke-linecap="round" stroke-linejoin="round"/>
<path fill-rule="evenodd" clip-rule="evenodd" d="M23.4079 15.0008C23.4132 16.8992 21.8784 18.4425 19.98 18.4478C18.0815 18.453 16.5382 16.9183 16.533 15.0198C16.5277 13.1199 18.0624 11.578 19.9609 11.5728C21.8594 11.5675 23.4027 13.1009 23.4079 15.0008Z" stroke="#029244" stroke-width="2" stroke-linecap="round" stroke-linejoin="round"/>
<path opacity="0.4" d="M13.7559 5.40245L23.3808 5.3758" stroke="#029244" stroke-width="2" stroke-linecap="round" stroke-linejoin="round"/>
<path fill-rule="evenodd" clip-rule="evenodd" d="M1.38061 5.43671C1.38587 7.33659 2.92914 8.86993 4.82762 8.86468C6.7261 8.85942 8.26085 7.31756 8.25559 5.41767C8.25033 3.51919 6.70706 1.98445 4.80858 1.9897C2.9101 1.99496 1.37536 3.53823 1.38061 5.43671Z" stroke="#029244" stroke-width="2" stroke-linecap="round" stroke-linejoin="round"/>
</svg>
