<svg width="40" height="38" viewBox="0 0 40 38" fill="none" xmlns="http://www.w3.org/2000/svg">
<path fill-rule="evenodd" clip-rule="evenodd" d="M22.2085 3.35401L25.8633 10.6555C26.2215 11.3723 26.9129 11.8693 27.7147 11.9844L35.8907 13.1612C37.9107 13.4529 38.7146 15.9011 37.2526 17.3039L31.3404 22.9849C30.7593 23.5435 30.4949 24.3466 30.6323 25.1353L32.0276 33.1556C32.3712 35.1397 30.2595 36.6534 28.454 35.7148L21.1464 31.9254C20.43 31.5536 19.572 31.5536 18.8536 31.9254L11.546 35.7148C9.74046 36.6534 7.62879 35.1397 7.97449 33.1556L9.36769 25.1353C9.50514 24.3466 9.24066 23.5435 8.65964 22.9849L2.74736 17.3039C1.28543 15.9011 2.08928 13.4529 4.10933 13.1612L12.2853 11.9844C13.0871 11.8693 13.7806 11.3723 14.1387 10.6555L17.7915 3.35401C18.6953 1.54866 21.3047 1.54866 22.2085 3.35401Z" stroke="#F9A825" stroke-width="3" stroke-linecap="round" stroke-linejoin="round"/>
</svg>
