<svg width="16" height="16" viewBox="0 0 16 16" fill="none" xmlns="http://www.w3.org/2000/svg">
<path d="M12.4384 9.74C12.2442 9.92825 12.1549 10.2005 12.1992 10.4675L12.8659 14.1575C12.9222 14.4702 12.7902 14.7867 12.5284 14.9675C12.2719 15.155 11.9307 15.1775 11.6509 15.0275L8.32917 13.295C8.21367 13.2335 8.08542 13.2005 7.95417 13.1967H7.75092C7.68042 13.2072 7.61142 13.2297 7.54842 13.2642L4.22592 15.005C4.06167 15.0875 3.87567 15.1167 3.69342 15.0875C3.24942 15.0035 2.95317 14.5805 3.02592 14.1342L3.69342 10.4442C3.73767 10.175 3.64842 9.90125 3.45417 9.71L0.745924 7.085C0.519424 6.86525 0.440674 6.53525 0.544174 6.2375C0.644674 5.9405 0.901174 5.72375 1.21092 5.675L4.93842 5.13425C5.22192 5.105 5.47092 4.9325 5.59842 4.6775L7.24092 1.31C7.27992 1.235 7.33017 1.166 7.39092 1.1075L7.45842 1.055C7.49367 1.016 7.53417 0.98375 7.57917 0.9575L7.66092 0.9275L7.78842 0.875H8.10417C8.38617 0.90425 8.63442 1.073 8.76417 1.325L10.4284 4.6775C10.5484 4.92275 10.7817 5.093 11.0509 5.13425L14.7784 5.675C15.0934 5.72 15.3567 5.9375 15.4609 6.2375C15.5592 6.53825 15.4744 6.86825 15.2434 7.085L12.4384 9.74Z" fill="#F9A825"/>
</svg>
