<svg width="22" height="18" viewBox="0 0 22 18" fill="none" xmlns="http://www.w3.org/2000/svg">
<g opacity="0.4">
<path opacity="0.4" d="M12.8613 1.2782L12.868 3.69819" stroke="#029244" stroke-width="1.5" stroke-linecap="round" stroke-linejoin="round"/>
<path opacity="0.4" d="M12.8984 14.788L12.904 16.812" stroke="#029244" stroke-width="1.5" stroke-linecap="round" stroke-linejoin="round"/>
<path opacity="0.4" d="M12.8883 11.3525L12.875 6.53149" stroke="#029244" stroke-width="1.5" stroke-linecap="round" stroke-linejoin="round"/>
</g>
<path fill-rule="evenodd" clip-rule="evenodd" d="M17.7581 17.0144C19.5801 17.0094 21.0519 15.5478 21.0469 13.7484L21.0397 11.156C19.8341 11.1593 18.8604 10.2031 18.8571 9.01238C18.8538 7.8217 19.8222 6.85906 21.0278 6.85572L21.0196 4.2622C21.0146 2.4628 19.5338 1.00944 17.7127 1.01449L4.31062 1.0516C2.4896 1.05664 1.0168 2.51817 1.02178 4.31757L1.02815 6.99556C2.23382 6.99222 3.20725 7.86503 3.21054 9.0557C3.21384 10.2464 2.24549 11.208 1.03982 11.2113L1.047 13.8038C1.05199 15.6032 2.53182 17.0566 4.35388 17.0515L17.7581 17.0144Z" stroke="#029244" stroke-width="1.5" stroke-linecap="round" stroke-linejoin="round"/>
</svg>
