<svg width="22" height="23" viewBox="0 0 22 23" fill="none" xmlns="http://www.w3.org/2000/svg">
<path fill-rule="evenodd" clip-rule="evenodd" d="M17.1689 21.014C19.1757 21.014 20.8004 19.19 20.8004 16.9397V13.6975C19.4733 13.6975 18.403 12.4966 18.403 11.0088C18.403 9.51981 19.4733 8.32019 20.8004 8.32019L20.7983 5.07438C20.7983 2.82404 19.1736 1 17.1679 1H4.63258C2.62685 1 1.00107 2.82404 1.00107 5.07438L1 8.42466C2.32609 8.42466 3.39639 9.51981 3.39639 11.0088C3.39639 12.4966 2.32609 13.6975 1 13.6975V16.9397C1 19.19 2.62471 21.014 4.63044 21.014H17.1689Z" stroke="#E1B000" stroke-width="2" stroke-linecap="round" stroke-linejoin="round"/>
<path opacity="0.4" fill-rule="evenodd" clip-rule="evenodd" d="M10.8994 13.1337L12.7618 14.2324C12.9362 14.3345 13.1406 14.1688 13.1075 13.9514L12.7511 11.623L14.2591 9.97671C14.4004 9.82181 14.3223 9.55402 14.1275 9.5216L12.0447 9.18177L11.1124 7.06352C11.0257 6.86538 10.7742 6.86538 10.6865 7.06352L9.75423 9.18177L7.67251 9.5216C7.47772 9.55402 7.39959 9.82181 7.54087 9.97671L9.04784 11.623L8.69143 13.9514C8.65825 14.1688 8.86268 14.3345 9.03714 14.2324L10.8994 13.1337Z" stroke="#E1B000" stroke-linecap="round" stroke-linejoin="round"/>
</svg>
