<svg width="21" height="22" viewBox="0 0 21 22" fill="none" xmlns="http://www.w3.org/2000/svg">
<path fill-rule="evenodd" clip-rule="evenodd" d="M8.01464 14.8152C11.7967 14.8152 15.0293 15.4326 15.0293 17.8987C15.0293 20.3649 11.8183 20.9999 8.01464 20.9999C4.23153 20.9999 1 20.388 1 17.9208C1 15.4535 4.21 14.8152 8.01464 14.8152Z" stroke="#4285F4" stroke-width="1.5" stroke-linecap="round" stroke-linejoin="round"/>
<path opacity="0.4" fill-rule="evenodd" clip-rule="evenodd" d="M8.0162 11.2954C5.53309 11.2954 3.51953 9.12748 3.51953 6.45259C3.51953 3.7777 5.53309 1.60974 8.0162 1.60974C10.4983 1.60974 12.5119 3.7777 12.5119 6.45259C12.5211 9.11754 10.5219 11.2855 8.04798 11.2954H8.0162Z" stroke="#4285F4" stroke-width="1.5" stroke-linecap="round" stroke-linejoin="round"/>
<path opacity="0.4" d="M15.082 10.0385C16.7234 9.78997 17.9875 8.27249 17.9906 6.43584C17.9906 4.62569 16.7655 3.12368 15.1589 2.83984" stroke="#4285F4" stroke-width="1.5" stroke-linecap="round" stroke-linejoin="round"/>
<path d="M17.2461 14.291C18.8362 14.5461 19.9466 15.1469 19.9466 16.3839C19.9466 17.2354 19.4237 17.7876 18.5789 18.1333" stroke="#4285F4" stroke-width="1.5" stroke-linecap="round" stroke-linejoin="round"/>
</svg>
