<svg width="26" height="20" viewBox="0 0 26 20" fill="none" xmlns="http://www.w3.org/2000/svg">
<path fill-rule="evenodd" clip-rule="evenodd" d="M18.2131 14.4915C18.3181 16.7364 16.5167 18.64 14.1897 18.7419C14.0183 18.7496 5.66147 18.7558 5.66147 18.7558C3.34598 18.9386 1.31441 17.2751 1.12554 15.0388C1.11132 14.8722 1.09017 5.87931 1.09017 5.87931C0.981346 3.63198 2.78031 1.72358 5.10852 1.61809C5.28242 1.60916 13.628 1.60175 13.628 1.60175C15.9547 1.42139 17.9926 3.09695 18.179 5.34406C18.1921 5.50587 18.2131 14.4915 18.2131 14.4915Z" stroke="#E31A1C" stroke-width="2" stroke-linecap="round" stroke-linejoin="round"/>
<path opacity="0.4" d="M18.1976 7.67963L22.2123 4.36576C23.2071 3.54436 24.7047 4.25346 24.707 5.54392L24.7173 14.5502C24.7197 15.8406 23.2248 16.5519 22.2279 15.736L18.2108 12.4444" stroke="#E31A1C" stroke-width="2" stroke-linecap="round" stroke-linejoin="round"/>
</svg>
