<svg width="26" height="20" viewBox="0 0 26 20" fill="none" xmlns="http://www.w3.org/2000/svg">
<path fill-rule="evenodd" clip-rule="evenodd" d="M18.217 14.2197C18.3221 16.4647 16.5206 18.3682 14.1936 18.4701C14.0222 18.4778 5.66537 18.484 5.66537 18.484C3.34989 18.6668 1.31831 17.0033 1.12945 14.7671C1.11522 14.6004 1.09407 5.60753 1.09407 5.60753C0.985253 3.36019 2.78422 1.45179 5.11243 1.3463C5.28632 1.33737 13.6319 1.32996 13.6319 1.32996C15.9586 1.1496 17.9965 2.82516 18.1829 5.07227C18.196 5.23408 18.217 14.2197 18.217 14.2197Z" stroke="#6A1B9A" stroke-width="2" stroke-linecap="round" stroke-linejoin="round"/>
<path opacity="0.4" d="M18.2015 7.40784L22.2162 4.09397C23.211 3.27257 24.7086 3.98167 24.7109 5.27213L24.7212 14.2784C24.7236 15.5688 23.2287 16.2801 22.2318 15.4642L18.2147 12.1726" stroke="#6A1B9A" stroke-width="2" stroke-linecap="round" stroke-linejoin="round"/>
</svg>
