<svg width="27" height="20" viewBox="0 0 27 20" fill="none" xmlns="http://www.w3.org/2000/svg">
<path fill-rule="evenodd" clip-rule="evenodd" d="M18.9825 14.4671C19.0818 16.7124 17.2671 18.6109 14.9296 18.7064C14.7574 18.7136 6.36359 18.6967 6.36359 18.6967C4.03736 18.873 2.00144 17.2039 1.81795 14.9672C1.80413 14.8005 1.8079 5.80757 1.8079 5.80757C1.70484 3.55994 3.51707 1.65652 5.85587 1.55749C6.03055 1.54903 14.413 1.56473 14.413 1.56473C16.7506 1.39082 18.7928 3.07201 18.9738 5.31963C18.9864 5.48147 18.9825 14.4671 18.9825 14.4671Z" stroke="#E31A1C" stroke-width="2" stroke-linecap="round" stroke-linejoin="round"/>
<path opacity="0.4" d="M18.9863 7.65523L23.028 4.35249C24.0295 3.53385 25.5317 4.24709 25.5305 5.53755L25.5158 14.5438C25.5145 15.8343 24.0111 16.5414 23.012 15.7227L18.9863 12.42" stroke="#E31A1C" stroke-width="2" stroke-linecap="round" stroke-linejoin="round"/>
</svg>
