<svg width="28" height="26" viewBox="0 0 28 26" fill="none" xmlns="http://www.w3.org/2000/svg">
<path d="M26.8811 15.9844L21.5823 15.9991C19.6367 16.0033 18.0554 14.4319 18.0488 12.4865C18.0434 10.541 19.6173 8.96093 21.5628 8.95435L26.8616 8.93968" stroke="#F9A825" stroke-width="2" stroke-linecap="round" stroke-linejoin="round"/>
<path d="M22.1716 12.3944L21.7637 12.3956" stroke="#F9A825" stroke-width="2" stroke-linecap="round" stroke-linejoin="round"/>
<path fill-rule="evenodd" clip-rule="evenodd" d="M8.6577 1.1199L19.971 1.08857C23.7644 1.07807 26.8482 4.14461 26.8587 7.93774L26.8847 17.3311C26.8952 21.1242 23.8284 24.2078 20.0351 24.2183L8.72174 24.2496C4.92836 24.2601 1.84459 21.1936 1.83409 17.4005L1.80808 8.0071C1.79758 4.21397 4.86432 1.1304 8.6577 1.1199Z" stroke="#F9A825" stroke-width="2" stroke-linecap="round" stroke-linejoin="round"/>
<path opacity="0.4" d="M7.74219 7.06207L14.8088 7.04251" stroke="#F9A825" stroke-width="2" stroke-linecap="round" stroke-linejoin="round"/>
</svg>
