<svg width="20" height="20" viewBox="0 0 20 20" fill="none" xmlns="http://www.w3.org/2000/svg">
<path opacity="0.4" d="M0.804688 13.4771C0.804688 13.4771 0.946688 15.2151 0.979688 15.7631C1.02369 16.4981 1.30769 17.3191 1.78169 17.8891C2.45069 18.6971 3.23869 18.982 4.29069 18.984C5.52769 18.986 14.5227 18.986 15.7597 18.984C16.8117 18.982 17.5997 18.6971 18.2687 17.8891C18.7427 17.3191 19.0267 16.4981 19.0717 15.7631C19.1037 15.2151 19.2457 13.4771 19.2457 13.4771" stroke="#4285F4" stroke-width="1.5" stroke-linecap="round" stroke-linejoin="round"/>
<path d="M6.49609 3.32949V2.95849C6.49609 1.73849 7.48409 0.750488 8.70409 0.750488H11.2861C12.5051 0.750488 13.4941 1.73849 13.4941 2.95849L13.4951 3.32949" stroke="#4285F4" stroke-width="1.5" stroke-linecap="round" stroke-linejoin="round"/>
<path d="M9.99609 14.6782V13.3842" stroke="#4285F4" stroke-width="1.5" stroke-linecap="round" stroke-linejoin="round"/>
<path fill-rule="evenodd" clip-rule="evenodd" d="M0.75 6.38906V9.85606C2.668 11.1211 4.966 12.0071 7.488 12.3581C7.79 11.2571 8.783 10.4501 9.99 10.4501C11.178 10.4501 12.191 11.2571 12.473 12.3681C15.005 12.0171 17.312 11.1311 19.24 9.85606V6.38906C19.24 4.69506 17.877 3.33105 16.183 3.33105H3.817C2.123 3.33105 0.75 4.69506 0.75 6.38906Z" stroke="#4285F4" stroke-width="1.5" stroke-linecap="round" stroke-linejoin="round"/>
</svg>
