<svg width="26" height="26" viewBox="0 0 26 26" fill="none" xmlns="http://www.w3.org/2000/svg">
<path fill-rule="evenodd" clip-rule="evenodd" d="M21.2496 20.9817C17.7648 24.4862 12.5924 25.2556 8.35249 23.309C7.72667 23.0591 7.2136 22.8571 6.72637 22.8584C5.36929 22.8702 3.68373 24.1908 2.80337 23.3164C1.92301 22.4408 3.23522 20.7466 3.23144 19.3813C3.23009 18.894 3.03335 18.3912 2.77996 17.7655C0.808988 13.5371 1.55078 8.35884 5.03557 4.85546C9.48409 0.380585 16.7316 0.360518 21.2048 4.80954C25.6861 9.26658 25.6981 16.508 21.2496 20.9817Z" stroke="#029244" stroke-width="2" stroke-linecap="round" stroke-linejoin="round"/>
<path opacity="0.4" d="M17.6484 13.3798L17.6618 13.3797" stroke="#029244" stroke-width="2" stroke-linecap="round" stroke-linejoin="round"/>
<path opacity="0.4" d="M13.0645 13.3924L13.0778 13.3924" stroke="#029244" stroke-width="2" stroke-linecap="round" stroke-linejoin="round"/>
<path opacity="0.4" d="M8.48047 13.4048L8.49384 13.4047" stroke="#029244" stroke-width="2" stroke-linecap="round" stroke-linejoin="round"/>
</svg>
