<svg width="25" height="27" viewBox="0 0 25 27" fill="none" xmlns="http://www.w3.org/2000/svg">
<path opacity="0.4" d="M21.0602 10.5776C21.0602 10.5776 20.4221 18.7753 20.0484 22.2288C19.8704 23.8782 18.8545 24.8472 17.1862 24.8823C14.0114 24.9483 10.8329 24.9607 7.65898 24.9026C6.05379 24.8742 5.04956 23.8985 4.86619 22.2793C4.47078 18.7976 3.79102 10.6254 3.79102 10.6254" stroke="#E31A1C" stroke-width="3" stroke-linecap="round" stroke-linejoin="round"/>
<path d="M22.7321 6.64414L2.0957 6.70128" stroke="#E31A1C" stroke-width="3" stroke-linecap="round" stroke-linejoin="round"/>
<path d="M18.7562 6.6551C17.8009 6.65775 16.9764 5.98464 16.7864 5.04935L16.4866 3.5704C16.3022 2.88822 15.6827 2.41777 14.9781 2.41972L9.82689 2.43398C9.1223 2.43593 8.50541 2.90981 8.32477 3.593L8.03316 5.07359C7.84834 6.00991 7.02758 6.68758 6.0723 6.69022" stroke="#E31A1C" stroke-width="3" stroke-linecap="round" stroke-linejoin="round"/>
</svg>
