<svg width="31" height="37" viewBox="0 0 31 37" fill="none" xmlns="http://www.w3.org/2000/svg">
<path fill-rule="evenodd" clip-rule="evenodd" d="M20.3937 2.43873L8.77608 2.4709C5.18008 2.48086 2.08815 5.40431 2.09811 9.00206L2.15003 27.754C2.16056 31.5543 5.06449 34.5345 8.86483 34.524L22.8157 34.4854C26.4134 34.4754 29.3212 31.2765 29.3113 27.6788L29.2668 11.6287L20.3937 2.43873Z" stroke="#0067C0" stroke-width="3" stroke-linecap="round" stroke-linejoin="round"/>
<path d="M19.9355 2.41705L19.9496 7.49756C19.9565 9.97756 21.9688 11.9839 24.4488 11.9823C26.7471 11.9812 29.0997 11.9764 29.2586 11.9655" stroke="#0067C0" stroke-width="3" stroke-linecap="round" stroke-linejoin="round"/>
<path opacity="0.4" d="M15.0515 25.5954L15.0197 14.1158M10.0805 20.6306L15.0508 25.5961L19.9953 20.6032L10.0805 20.6306Z" stroke="#0067C0" stroke-width="3" stroke-linecap="round" stroke-linejoin="round"/>
</svg>
