<svg width="24" height="21" viewBox="0 0 24 21" fill="none" xmlns="http://www.w3.org/2000/svg">
<path opacity="0.4" d="M18.1788 7.04371L13.3909 10.9205C12.4848 11.635 11.2118 11.6386 10.3017 10.9291L5.45117 7.07895" stroke="#0067C0" stroke-width="1.5" stroke-linecap="round" stroke-linejoin="round"/>
<path fill-rule="evenodd" clip-rule="evenodd" d="M6.48321 0.819827L17.0896 0.790459C18.6189 0.803377 20.0763 1.44586 21.1223 2.56828C22.1682 3.69069 22.7115 5.19507 22.6255 6.73104L22.6458 14.0749C22.7403 15.6103 22.2054 17.1177 21.1657 18.2459C20.1259 19.3741 18.6722 20.0246 17.1429 20.046L6.53653 20.0754C3.25164 20.0845 1.03029 17.4182 1.0212 14.1347L1.00087 6.79091C0.991774 3.50742 3.19833 0.828922 6.48321 0.819827Z" stroke="#0067C0" stroke-width="1.5" stroke-linecap="round" stroke-linejoin="round"/>
</svg>
